M48
; DRILL file {KiCad 9.0.2} date 2025-07-05T15:42:34+1000
; FORMAT={-:-/ absolute / metric / decimal}
; #@! TF.CreationDate,2025-07-05T15:42:34+10:00
; #@! TF.GenerationSoftware,Kicad,Pcbnew,9.0.2
; #@! TF.FileFunction,Plated,1,4,PTH
FMAT,2
METRIC
; #@! TA.AperFunction,Plated,PTH,ViaDrill
T1C0.300
; #@! TA.AperFunction,Plated,PTH,ViaDrill
T2C0.400
; #@! TA.AperFunction,Plated,PTH,ComponentDrill
T3C0.600
; #@! TA.AperFunction,Plated,PTH,ComponentDrill
T4C0.700
; #@! TA.AperFunction,Plated,PTH,ComponentDrill
T5C0.800
; #@! TA.AperFunction,Plated,PTH,ComponentDrill
T6C1.000
; #@! TA.AperFunction,Plated,PTH,ComponentDrill
T7C1.200
; #@! TA.AperFunction,Plated,PTH,ComponentDrill
T8C1.300
; #@! TA.AperFunction,Plated,PTH,ComponentDrill
T9C3.200
%
G90
G05
T1
X63.0Y-132.0
X65.0Y-142.2
X66.7Y-132.8
X67.0Y-107.7
X67.0Y-118.3
X68.5Y-124.8
X69.1Y-132.0
X72.6Y-134.0
X75.1Y-76.6
X76.0Y-136.7
X79.5Y-130.0
X90.5Y-112.0
X92.0Y-137.3
X95.0Y-82.9
X95.1Y-108.0
X96.6Y-55.6
X96.6Y-91.5
X98.0Y-69.6
X104.5Y-97.5
X106.0Y-131.3
X109.0Y-69.6
X111.0Y-55.6
X115.5Y-106.0
X118.1Y-48.5
X122.0Y-79.0
X125.5Y-112.0
X131.9Y-48.7
X131.9Y-81.0
X141.5Y-48.7
X141.5Y-95.5
X143.5Y-62.6
X143.5Y-93.5
X154.0Y-110.0
X154.5Y-62.7
X156.0Y-48.6
X156.0Y-108.0
X166.6Y-48.7
X171.5Y-75.0
X180.4Y-48.8
X180.5Y-77.0
X191.0Y-48.7
X191.0Y-99.5
X193.0Y-62.7
X193.0Y-88.0
X195.0Y-71.0
X195.0Y-122.5
X197.0Y-71.0
X197.0Y-121.5
X198.0Y-133.5
X199.0Y-87.0
X199.0Y-101.5
X199.0Y-116.0
X199.0Y-135.5
X200.5Y-87.0
X200.5Y-101.5
X200.5Y-116.0
X202.0Y-87.0
X202.0Y-101.5
X202.0Y-116.0
X203.0Y-129.5
X203.0Y-132.5
X204.0Y-62.7
X204.006Y-113.006
X204.75Y-78.5
X205.0Y-81.0
X205.0Y-93.0
X205.0Y-95.5
X205.0Y-107.5
X205.5Y-129.5
X205.5Y-132.5
X205.75Y-108.75
X206.0Y-48.7
X206.0Y-102.5
X206.5Y-104.75
X206.75Y-74.25
X206.75Y-75.75
X206.75Y-77.25
X206.75Y-88.75
X206.75Y-90.25
X206.75Y-91.75
X207.5Y-81.9
X207.5Y-84.8
X207.5Y-106.25
X207.512Y-96.4
X207.512Y-99.3
X207.512Y-110.9
X207.512Y-113.8
X208.0Y-129.5
X208.0Y-132.5
X208.5Y-137.6
X212.0Y-58.5
X215.9Y-65.5
X216.9Y-76.2
X217.0Y-78.2
X217.0Y-92.7
X217.0Y-107.2
X217.5Y-118.5
X217.5Y-135.5
X217.9Y-86.5
X217.9Y-101.0
X221.0Y-99.5
X221.6Y-76.0
X221.7Y-90.5
X222.0Y-135.5
X222.6Y-82.5
X224.0Y-135.5
X226.0Y-135.5
X229.0Y-57.7
X229.0Y-66.4
X229.0Y-103.0
X231.0Y-88.5
X232.0Y-86.5
X235.6Y-79.5
X235.7Y-86.5
X238.433Y-120.9
X239.5Y-122.0
X246.0Y-101.0
X252.5Y-87.4
X253.6Y-79.5
T2
X65.5Y-136.0
X70.5Y-139.6
X74.0Y-118.2
X74.0Y-141.0
X74.3Y-83.0
X74.5Y-120.1
X76.35Y-111.65
X77.5Y-83.8
X82.0Y-75.1
X82.0Y-84.3
X84.5Y-119.2
X84.5Y-125.0
X86.0Y-105.0
X86.5Y-83.8
X87.1Y-125.0
X89.3Y-84.0
X90.4Y-73.0
X95.7Y-62.0
X97.0Y-118.8
X99.0Y-61.2
X103.5Y-54.1
X103.5Y-72.0
X105.3Y-49.5
X108.0Y-62.9
X111.9Y-52.0
X111.9Y-62.0
X115.6Y-45.0
X117.2Y-55.0
X118.5Y-133.9
X120.5Y-55.8
X125.0Y-47.1
X125.0Y-56.4
X129.5Y-55.9
X132.8Y-55.0
X133.4Y-45.0
X140.3Y-45.0
X140.6Y-55.0
X144.5Y-55.8
X149.0Y-47.1
X149.0Y-65.0
X153.5Y-55.8
X156.9Y-55.0
X157.2Y-45.0
X165.3Y-45.0
X165.7Y-55.0
X169.0Y-55.8
X173.5Y-47.0
X173.5Y-56.2
X178.0Y-55.9
X180.4Y-43.5
X181.4Y-55.0
X190.1Y-55.0
X190.3Y-45.0
X193.0Y-132.9
X194.0Y-55.8
X198.5Y-45.0
X198.5Y-65.0
X203.0Y-55.9
X205.5Y-125.1
X206.8Y-45.0
X206.9Y-55.0
X210.6Y-68.4
X212.7Y-62.0
X212.8Y-102.0
X213.1Y-73.0
X213.1Y-87.5
X215.0Y-86.5
X215.0Y-101.0
X216.0Y-73.0
X221.0Y-54.5
X221.006Y-69.494
X221.9Y-57.5
X221.9Y-66.5
X228.9Y-62.0
X232.6Y-70.0
X236.6Y-83.0
X239.2Y-93.5
X243.6Y-78.5
X243.6Y-87.5
X244.2Y-63.2
X244.5Y-75.3
X244.5Y-90.7
X245.5Y-55.1
X248.0Y-110.0
X248.6Y-106.0
X249.7Y-93.6
X252.4Y-83.0
X255.5Y-112.9
X256.9Y-107.0
X260.0Y-112.5
X261.0Y-107.2
X263.5Y-107.8
T4
X199.0Y-141.5
X200.0Y-139.5
X201.0Y-141.5
X202.0Y-139.5
X203.0Y-141.5
X204.0Y-139.5
X205.0Y-141.5
X206.0Y-139.5
X207.0Y-141.5
X208.0Y-139.5
X209.0Y-141.5
X210.0Y-139.5
X215.0Y-141.5
X216.0Y-139.5
X217.0Y-141.5
X218.0Y-139.5
X219.0Y-141.5
X220.0Y-139.5
X221.0Y-141.5
X222.0Y-139.5
X223.0Y-141.5
X224.0Y-139.5
X225.0Y-141.5
X226.0Y-139.5
T5
X258.0Y-118.0
X260.5Y-118.0
T6
X145.95Y-125.87
X145.95Y-141.11
X146.225Y-119.0
X148.49Y-125.87
X148.49Y-141.11
X148.765Y-119.0
X151.03Y-125.87
X151.03Y-141.11
X153.57Y-125.87
X153.57Y-141.11
X155.88Y-119.0
X156.11Y-125.87
X156.11Y-141.11
X158.42Y-119.0
X158.65Y-125.87
X158.65Y-141.11
X160.96Y-119.0
X161.19Y-125.87
X161.19Y-141.11
X163.5Y-119.0
X163.73Y-125.87
X163.73Y-141.11
X166.27Y-125.87
X166.27Y-141.11
X168.81Y-125.87
X168.81Y-141.11
X171.35Y-125.87
X171.35Y-141.11
X173.89Y-125.87
X173.89Y-141.11
X176.43Y-125.87
X176.43Y-141.11
X178.97Y-125.87
X178.97Y-141.11
X181.51Y-125.87
X181.51Y-141.11
T7
X74.242Y-70.854
X74.772Y-65.728
X80.782Y-66.081
X86.97Y-58.127
X87.5Y-53.0
X93.51Y-53.354
X99.698Y-45.399
X100.228Y-40.272
X106.238Y-40.626
X114.0Y-39.25
X118.0Y-36.0
X122.0Y-40.5
X132.0Y-39.25
X136.0Y-36.0
X140.0Y-40.5
X150.0Y-39.25
X154.0Y-36.0
X158.0Y-40.5
X170.0Y-39.25
X174.0Y-36.0
X178.0Y-40.5
X188.0Y-39.25
X192.0Y-36.0
X196.0Y-40.5
X206.0Y-39.25
X210.0Y-36.0
X214.0Y-40.5
X222.646Y-39.742
X227.419Y-46.282
X227.772Y-40.272
X235.373Y-52.47
X240.146Y-59.01
X240.5Y-53.0
X248.101Y-65.198
X252.874Y-71.738
X253.228Y-65.728
T8
X103.5Y-140.0
X108.5Y-140.0
X113.5Y-140.0
X118.5Y-140.0
T9
X110.0Y-115.0
X125.0Y-70.0
X185.0Y-70.0
X247.5Y-131.5
T3
X243.112Y-55.279G85X243.536Y-54.854
G05
X245.799Y-52.592G85X246.223Y-52.167
G05
X249.221Y-61.388G85X249.646Y-60.964
G05
X251.908Y-58.701G85X252.333Y-58.277
G05
M30
