%TF.GenerationSoftware,KiCad,Pcbnew,9.0.2*%
%TF.CreationDate,2025-06-27T10:33:39+10:00*%
%TF.ProjectId,avswitch,61767377-6974-4636-982e-6b696361645f,rev?*%
%TF.SameCoordinates,Original*%
%TF.FileFunction,Drillmap*%
%TF.FilePolarity,Positive*%
%FSLAX45Y45*%
G04 Gerber Fmt 4.5, Leading zero omitted, Abs format (unit mm)*
G04 Created by KiCad (PCBNEW 9.0.2) date 2025-06-27 10:33:39*
%MOMM*%
%LPD*%
G01*
G04 APERTURE LIST*
%ADD10C,0.050000*%
%ADD11C,0.200000*%
%ADD12C,0.100000*%
%ADD13C,0.120000*%
%ADD14C,0.130000*%
%ADD15C,0.320000*%
G04 APERTURE END LIST*
D10*
X26800000Y-7060000D02*
X26800000Y-14500000D01*
X6350000Y-6710000D02*
X10160000Y-2900000D01*
X26800000Y-14500000D02*
X6000000Y-14500000D01*
X26390000Y-6650000D02*
X26800000Y-7060000D01*
X6350000Y-6710000D02*
X6000000Y-7060000D01*
X6000000Y-7060000D02*
X6000000Y-14500000D01*
X22640000Y-2900000D02*
X10160000Y-2900000D01*
X26390000Y-6650000D02*
X22640000Y-2900000D01*
D11*
D12*
X6285000Y-13185000D02*
X6315000Y-13215000D01*
X6315000Y-13185000D02*
X6285000Y-13215000D01*
X6485000Y-14205000D02*
X6515000Y-14235000D01*
X6515000Y-14205000D02*
X6485000Y-14235000D01*
X6655000Y-13265000D02*
X6685000Y-13295000D01*
X6685000Y-13265000D02*
X6655000Y-13295000D01*
X6685000Y-10755000D02*
X6715000Y-10785000D01*
X6715000Y-10755000D02*
X6685000Y-10785000D01*
X6685000Y-11815000D02*
X6715000Y-11845000D01*
X6715000Y-11815000D02*
X6685000Y-11845000D01*
X6835000Y-12465000D02*
X6865000Y-12495000D01*
X6865000Y-12465000D02*
X6835000Y-12495000D01*
X6895000Y-13185000D02*
X6925000Y-13215000D01*
X6925000Y-13185000D02*
X6895000Y-13215000D01*
X7245000Y-13385000D02*
X7275000Y-13415000D01*
X7275000Y-13385000D02*
X7245000Y-13415000D01*
X7495000Y-7645000D02*
X7525000Y-7675000D01*
X7525000Y-7645000D02*
X7495000Y-7675000D01*
X7585000Y-13655000D02*
X7615000Y-13685000D01*
X7615000Y-13655000D02*
X7585000Y-13685000D01*
X7935000Y-12985000D02*
X7965000Y-13015000D01*
X7965000Y-12985000D02*
X7935000Y-13015000D01*
X9035000Y-11185000D02*
X9065000Y-11215000D01*
X9065000Y-11185000D02*
X9035000Y-11215000D01*
X9185000Y-13715000D02*
X9215000Y-13745000D01*
X9215000Y-13715000D02*
X9185000Y-13745000D01*
X9485000Y-8275000D02*
X9515000Y-8305000D01*
X9515000Y-8275000D02*
X9485000Y-8305000D01*
X9495000Y-10785000D02*
X9525000Y-10815000D01*
X9525000Y-10785000D02*
X9495000Y-10815000D01*
X9645000Y-5545000D02*
X9675000Y-5575000D01*
X9675000Y-5545000D02*
X9645000Y-5575000D01*
X9645000Y-9135000D02*
X9675000Y-9165000D01*
X9675000Y-9135000D02*
X9645000Y-9165000D01*
X9785000Y-6945000D02*
X9815000Y-6975000D01*
X9815000Y-6945000D02*
X9785000Y-6975000D01*
X10435000Y-9735000D02*
X10465000Y-9765000D01*
X10465000Y-9735000D02*
X10435000Y-9765000D01*
X10585000Y-13115000D02*
X10615000Y-13145000D01*
X10615000Y-13115000D02*
X10585000Y-13145000D01*
X10885000Y-6945000D02*
X10915000Y-6975000D01*
X10915000Y-6945000D02*
X10885000Y-6975000D01*
X11085000Y-5545000D02*
X11115000Y-5575000D01*
X11115000Y-5545000D02*
X11085000Y-5575000D01*
X11535000Y-10585000D02*
X11565000Y-10615000D01*
X11565000Y-10585000D02*
X11535000Y-10615000D01*
X11795000Y-4835000D02*
X11825000Y-4865000D01*
X11825000Y-4835000D02*
X11795000Y-4865000D01*
X12185000Y-7885000D02*
X12215000Y-7915000D01*
X12215000Y-7885000D02*
X12185000Y-7915000D01*
X12535000Y-11185000D02*
X12565000Y-11215000D01*
X12565000Y-11185000D02*
X12535000Y-11215000D01*
X13175000Y-4855000D02*
X13205000Y-4885000D01*
X13205000Y-4855000D02*
X13175000Y-4885000D01*
X13175000Y-8085000D02*
X13205000Y-8115000D01*
X13205000Y-8085000D02*
X13175000Y-8115000D01*
X14135000Y-4855000D02*
X14165000Y-4885000D01*
X14165000Y-4855000D02*
X14135000Y-4885000D01*
X14135000Y-9535000D02*
X14165000Y-9565000D01*
X14165000Y-9535000D02*
X14135000Y-9565000D01*
X14335000Y-6245000D02*
X14365000Y-6275000D01*
X14365000Y-6245000D02*
X14335000Y-6275000D01*
X14335000Y-9335000D02*
X14365000Y-9365000D01*
X14365000Y-9335000D02*
X14335000Y-9365000D01*
X15385000Y-10985000D02*
X15415000Y-11015000D01*
X15415000Y-10985000D02*
X15385000Y-11015000D01*
X15435000Y-6255000D02*
X15465000Y-6285000D01*
X15465000Y-6255000D02*
X15435000Y-6285000D01*
X15585000Y-4845000D02*
X15615000Y-4875000D01*
X15615000Y-4845000D02*
X15585000Y-4875000D01*
X15585000Y-10785000D02*
X15615000Y-10815000D01*
X15615000Y-10785000D02*
X15585000Y-10815000D01*
X16645000Y-4855000D02*
X16675000Y-4885000D01*
X16675000Y-4855000D02*
X16645000Y-4885000D01*
X17135000Y-7485000D02*
X17165000Y-7515000D01*
X17165000Y-7485000D02*
X17135000Y-7515000D01*
X18025000Y-4865000D02*
X18055000Y-4895000D01*
X18055000Y-4865000D02*
X18025000Y-4895000D01*
X18035000Y-7685000D02*
X18065000Y-7715000D01*
X18065000Y-7685000D02*
X18035000Y-7715000D01*
X19085000Y-4855000D02*
X19115000Y-4885000D01*
X19115000Y-4855000D02*
X19085000Y-4885000D01*
X19085000Y-9935000D02*
X19115000Y-9965000D01*
X19115000Y-9935000D02*
X19085000Y-9965000D01*
X19285000Y-6255000D02*
X19315000Y-6285000D01*
X19315000Y-6255000D02*
X19285000Y-6285000D01*
X19285000Y-8785000D02*
X19315000Y-8815000D01*
X19315000Y-8785000D02*
X19285000Y-8815000D01*
X19485000Y-7085000D02*
X19515000Y-7115000D01*
X19515000Y-7085000D02*
X19485000Y-7115000D01*
X19485000Y-12235000D02*
X19515000Y-12265000D01*
X19515000Y-12235000D02*
X19485000Y-12265000D01*
X19685000Y-7085000D02*
X19715000Y-7115000D01*
X19715000Y-7085000D02*
X19685000Y-7115000D01*
X19685000Y-12135000D02*
X19715000Y-12165000D01*
X19715000Y-12135000D02*
X19685000Y-12165000D01*
X19785000Y-13335000D02*
X19815000Y-13365000D01*
X19815000Y-13335000D02*
X19785000Y-13365000D01*
X19885000Y-8685000D02*
X19915000Y-8715000D01*
X19915000Y-8685000D02*
X19885000Y-8715000D01*
X19885000Y-10135000D02*
X19915000Y-10165000D01*
X19915000Y-10135000D02*
X19885000Y-10165000D01*
X19885000Y-11585000D02*
X19915000Y-11615000D01*
X19915000Y-11585000D02*
X19885000Y-11615000D01*
X19885000Y-13535000D02*
X19915000Y-13565000D01*
X19915000Y-13535000D02*
X19885000Y-13565000D01*
X20035000Y-8685000D02*
X20065000Y-8715000D01*
X20065000Y-8685000D02*
X20035000Y-8715000D01*
X20035000Y-10135000D02*
X20065000Y-10165000D01*
X20065000Y-10135000D02*
X20035000Y-10165000D01*
X20035000Y-11585000D02*
X20065000Y-11615000D01*
X20065000Y-11585000D02*
X20035000Y-11615000D01*
X20185000Y-8685000D02*
X20215000Y-8715000D01*
X20215000Y-8685000D02*
X20185000Y-8715000D01*
X20185000Y-10135000D02*
X20215000Y-10165000D01*
X20215000Y-10135000D02*
X20185000Y-10165000D01*
X20185000Y-11585000D02*
X20215000Y-11615000D01*
X20215000Y-11585000D02*
X20185000Y-11615000D01*
X20285000Y-12935000D02*
X20315000Y-12965000D01*
X20315000Y-12935000D02*
X20285000Y-12965000D01*
X20285000Y-13235000D02*
X20315000Y-13265000D01*
X20315000Y-13235000D02*
X20285000Y-13265000D01*
X20385000Y-6255000D02*
X20415000Y-6285000D01*
X20415000Y-6255000D02*
X20385000Y-6285000D01*
X20385625Y-11285625D02*
X20415625Y-11315625D01*
X20415625Y-11285625D02*
X20385625Y-11315625D01*
X20460000Y-7835000D02*
X20490000Y-7865000D01*
X20490000Y-7835000D02*
X20460000Y-7865000D01*
X20485000Y-8085000D02*
X20515000Y-8115000D01*
X20515000Y-8085000D02*
X20485000Y-8115000D01*
X20485000Y-9285000D02*
X20515000Y-9315000D01*
X20515000Y-9285000D02*
X20485000Y-9315000D01*
X20485000Y-9535000D02*
X20515000Y-9565000D01*
X20515000Y-9535000D02*
X20485000Y-9565000D01*
X20485000Y-10735000D02*
X20515000Y-10765000D01*
X20515000Y-10735000D02*
X20485000Y-10765000D01*
X20535000Y-12935000D02*
X20565000Y-12965000D01*
X20565000Y-12935000D02*
X20535000Y-12965000D01*
X20535000Y-13235000D02*
X20565000Y-13265000D01*
X20565000Y-13235000D02*
X20535000Y-13265000D01*
X20560000Y-10860000D02*
X20590000Y-10890000D01*
X20590000Y-10860000D02*
X20560000Y-10890000D01*
X20585000Y-4855000D02*
X20615000Y-4885000D01*
X20615000Y-4855000D02*
X20585000Y-4885000D01*
X20585000Y-10235000D02*
X20615000Y-10265000D01*
X20615000Y-10235000D02*
X20585000Y-10265000D01*
X20635000Y-10460000D02*
X20665000Y-10490000D01*
X20665000Y-10460000D02*
X20635000Y-10490000D01*
X20660000Y-7410000D02*
X20690000Y-7440000D01*
X20690000Y-7410000D02*
X20660000Y-7440000D01*
X20660000Y-7560000D02*
X20690000Y-7590000D01*
X20690000Y-7560000D02*
X20660000Y-7590000D01*
X20660000Y-7710000D02*
X20690000Y-7740000D01*
X20690000Y-7710000D02*
X20660000Y-7740000D01*
X20660000Y-8860000D02*
X20690000Y-8890000D01*
X20690000Y-8860000D02*
X20660000Y-8890000D01*
X20660000Y-9010000D02*
X20690000Y-9040000D01*
X20690000Y-9010000D02*
X20660000Y-9040000D01*
X20660000Y-9160000D02*
X20690000Y-9190000D01*
X20690000Y-9160000D02*
X20660000Y-9190000D01*
X20735000Y-8175000D02*
X20765000Y-8205000D01*
X20765000Y-8175000D02*
X20735000Y-8205000D01*
X20735000Y-8465000D02*
X20765000Y-8495000D01*
X20765000Y-8465000D02*
X20735000Y-8495000D01*
X20735000Y-10610000D02*
X20765000Y-10640000D01*
X20765000Y-10610000D02*
X20735000Y-10640000D01*
X20736250Y-9625000D02*
X20766250Y-9655000D01*
X20766250Y-9625000D02*
X20736250Y-9655000D01*
X20736250Y-9915000D02*
X20766250Y-9945000D01*
X20766250Y-9915000D02*
X20736250Y-9945000D01*
X20736250Y-11075000D02*
X20766250Y-11105000D01*
X20766250Y-11075000D02*
X20736250Y-11105000D01*
X20736250Y-11365000D02*
X20766250Y-11395000D01*
X20766250Y-11365000D02*
X20736250Y-11395000D01*
X20785000Y-12935000D02*
X20815000Y-12965000D01*
X20815000Y-12935000D02*
X20785000Y-12965000D01*
X20785000Y-13235000D02*
X20815000Y-13265000D01*
X20815000Y-13235000D02*
X20785000Y-13265000D01*
X20835000Y-13745000D02*
X20865000Y-13775000D01*
X20865000Y-13745000D02*
X20835000Y-13775000D01*
X21185000Y-5835000D02*
X21215000Y-5865000D01*
X21215000Y-5835000D02*
X21185000Y-5865000D01*
X21575000Y-6535000D02*
X21605000Y-6565000D01*
X21605000Y-6535000D02*
X21575000Y-6565000D01*
X21675000Y-7605000D02*
X21705000Y-7635000D01*
X21705000Y-7605000D02*
X21675000Y-7635000D01*
X21685000Y-7805000D02*
X21715000Y-7835000D01*
X21715000Y-7805000D02*
X21685000Y-7835000D01*
X21685000Y-9255000D02*
X21715000Y-9285000D01*
X21715000Y-9255000D02*
X21685000Y-9285000D01*
X21685000Y-10705000D02*
X21715000Y-10735000D01*
X21715000Y-10705000D02*
X21685000Y-10735000D01*
X21735000Y-11835000D02*
X21765000Y-11865000D01*
X21765000Y-11835000D02*
X21735000Y-11865000D01*
X21735000Y-13535000D02*
X21765000Y-13565000D01*
X21765000Y-13535000D02*
X21735000Y-13565000D01*
X21775000Y-8635000D02*
X21805000Y-8665000D01*
X21805000Y-8635000D02*
X21775000Y-8665000D01*
X21775000Y-10085000D02*
X21805000Y-10115000D01*
X21805000Y-10085000D02*
X21775000Y-10115000D01*
X22085000Y-9935000D02*
X22115000Y-9965000D01*
X22115000Y-9935000D02*
X22085000Y-9965000D01*
X22145000Y-7585000D02*
X22175000Y-7615000D01*
X22175000Y-7585000D02*
X22145000Y-7615000D01*
X22155000Y-9035000D02*
X22185000Y-9065000D01*
X22185000Y-9035000D02*
X22155000Y-9065000D01*
X22185000Y-13535000D02*
X22215000Y-13565000D01*
X22215000Y-13535000D02*
X22185000Y-13565000D01*
X22245000Y-8235000D02*
X22275000Y-8265000D01*
X22275000Y-8235000D02*
X22245000Y-8265000D01*
X22385000Y-13535000D02*
X22415000Y-13565000D01*
X22415000Y-13535000D02*
X22385000Y-13565000D01*
X22585000Y-13535000D02*
X22615000Y-13565000D01*
X22615000Y-13535000D02*
X22585000Y-13565000D01*
X22885000Y-5755000D02*
X22915000Y-5785000D01*
X22915000Y-5755000D02*
X22885000Y-5785000D01*
X22885000Y-6625000D02*
X22915000Y-6655000D01*
X22915000Y-6625000D02*
X22885000Y-6655000D01*
X22885000Y-10285000D02*
X22915000Y-10315000D01*
X22915000Y-10285000D02*
X22885000Y-10315000D01*
X23085000Y-8835000D02*
X23115000Y-8865000D01*
X23115000Y-8835000D02*
X23085000Y-8865000D01*
X23185000Y-8635000D02*
X23215000Y-8665000D01*
X23215000Y-8635000D02*
X23185000Y-8665000D01*
X23545000Y-7935000D02*
X23575000Y-7965000D01*
X23575000Y-7935000D02*
X23545000Y-7965000D01*
X23555000Y-8635000D02*
X23585000Y-8665000D01*
X23585000Y-8635000D02*
X23555000Y-8665000D01*
X23828290Y-12075000D02*
X23858290Y-12105000D01*
X23858290Y-12075000D02*
X23828290Y-12105000D01*
X23935000Y-12185000D02*
X23965000Y-12215000D01*
X23965000Y-12185000D02*
X23935000Y-12215000D01*
X24585000Y-10085000D02*
X24615000Y-10115000D01*
X24615000Y-10085000D02*
X24585000Y-10115000D01*
X25235000Y-8725000D02*
X25265000Y-8755000D01*
X25265000Y-8725000D02*
X25235000Y-8755000D01*
X25345000Y-7935000D02*
X25375000Y-7965000D01*
X25375000Y-7935000D02*
X25345000Y-7965000D01*
X6570000Y-13600000D02*
G75*
G02*
X6530000Y-13600000I-20000J0D01*
G01*
X6530000Y-13600000D02*
G75*
G02*
X6570000Y-13600000I20000J0D01*
G01*
X7070000Y-13960000D02*
G75*
G02*
X7030000Y-13960000I-20000J0D01*
G01*
X7030000Y-13960000D02*
G75*
G02*
X7070000Y-13960000I20000J0D01*
G01*
X7420000Y-11820000D02*
G75*
G02*
X7380000Y-11820000I-20000J0D01*
G01*
X7380000Y-11820000D02*
G75*
G02*
X7420000Y-11820000I20000J0D01*
G01*
X7420000Y-14100000D02*
G75*
G02*
X7380000Y-14100000I-20000J0D01*
G01*
X7380000Y-14100000D02*
G75*
G02*
X7420000Y-14100000I20000J0D01*
G01*
X7450000Y-8300000D02*
G75*
G02*
X7410000Y-8300000I-20000J0D01*
G01*
X7410000Y-8300000D02*
G75*
G02*
X7450000Y-8300000I20000J0D01*
G01*
X7470000Y-12010000D02*
G75*
G02*
X7430000Y-12010000I-20000J0D01*
G01*
X7430000Y-12010000D02*
G75*
G02*
X7470000Y-12010000I20000J0D01*
G01*
X7655000Y-11165000D02*
G75*
G02*
X7615000Y-11165000I-20000J0D01*
G01*
X7615000Y-11165000D02*
G75*
G02*
X7655000Y-11165000I20000J0D01*
G01*
X7770000Y-8380000D02*
G75*
G02*
X7730000Y-8380000I-20000J0D01*
G01*
X7730000Y-8380000D02*
G75*
G02*
X7770000Y-8380000I20000J0D01*
G01*
X8220000Y-7510000D02*
G75*
G02*
X8180000Y-7510000I-20000J0D01*
G01*
X8180000Y-7510000D02*
G75*
G02*
X8220000Y-7510000I20000J0D01*
G01*
X8220000Y-8430000D02*
G75*
G02*
X8180000Y-8430000I-20000J0D01*
G01*
X8180000Y-8430000D02*
G75*
G02*
X8220000Y-8430000I20000J0D01*
G01*
X8470000Y-11920000D02*
G75*
G02*
X8430000Y-11920000I-20000J0D01*
G01*
X8430000Y-11920000D02*
G75*
G02*
X8470000Y-11920000I20000J0D01*
G01*
X8470000Y-12500000D02*
G75*
G02*
X8430000Y-12500000I-20000J0D01*
G01*
X8430000Y-12500000D02*
G75*
G02*
X8470000Y-12500000I20000J0D01*
G01*
X8620000Y-10500000D02*
G75*
G02*
X8580000Y-10500000I-20000J0D01*
G01*
X8580000Y-10500000D02*
G75*
G02*
X8620000Y-10500000I20000J0D01*
G01*
X8670000Y-8380000D02*
G75*
G02*
X8630000Y-8380000I-20000J0D01*
G01*
X8630000Y-8380000D02*
G75*
G02*
X8670000Y-8380000I20000J0D01*
G01*
X8730000Y-12500000D02*
G75*
G02*
X8690000Y-12500000I-20000J0D01*
G01*
X8690000Y-12500000D02*
G75*
G02*
X8730000Y-12500000I20000J0D01*
G01*
X8950000Y-8400000D02*
G75*
G02*
X8910000Y-8400000I-20000J0D01*
G01*
X8910000Y-8400000D02*
G75*
G02*
X8950000Y-8400000I20000J0D01*
G01*
X9060000Y-7300000D02*
G75*
G02*
X9020000Y-7300000I-20000J0D01*
G01*
X9020000Y-7300000D02*
G75*
G02*
X9060000Y-7300000I20000J0D01*
G01*
X9590000Y-6200000D02*
G75*
G02*
X9550000Y-6200000I-20000J0D01*
G01*
X9550000Y-6200000D02*
G75*
G02*
X9590000Y-6200000I20000J0D01*
G01*
X9720000Y-11880000D02*
G75*
G02*
X9680000Y-11880000I-20000J0D01*
G01*
X9680000Y-11880000D02*
G75*
G02*
X9720000Y-11880000I20000J0D01*
G01*
X9920000Y-6120000D02*
G75*
G02*
X9880000Y-6120000I-20000J0D01*
G01*
X9880000Y-6120000D02*
G75*
G02*
X9920000Y-6120000I20000J0D01*
G01*
X10370000Y-5410000D02*
G75*
G02*
X10330000Y-5410000I-20000J0D01*
G01*
X10330000Y-5410000D02*
G75*
G02*
X10370000Y-5410000I20000J0D01*
G01*
X10370000Y-7200000D02*
G75*
G02*
X10330000Y-7200000I-20000J0D01*
G01*
X10330000Y-7200000D02*
G75*
G02*
X10370000Y-7200000I20000J0D01*
G01*
X10550000Y-4950000D02*
G75*
G02*
X10510000Y-4950000I-20000J0D01*
G01*
X10510000Y-4950000D02*
G75*
G02*
X10550000Y-4950000I20000J0D01*
G01*
X10820000Y-6290000D02*
G75*
G02*
X10780000Y-6290000I-20000J0D01*
G01*
X10780000Y-6290000D02*
G75*
G02*
X10820000Y-6290000I20000J0D01*
G01*
X11210000Y-5200000D02*
G75*
G02*
X11170000Y-5200000I-20000J0D01*
G01*
X11170000Y-5200000D02*
G75*
G02*
X11210000Y-5200000I20000J0D01*
G01*
X11210000Y-6200000D02*
G75*
G02*
X11170000Y-6200000I-20000J0D01*
G01*
X11170000Y-6200000D02*
G75*
G02*
X11210000Y-6200000I20000J0D01*
G01*
X11580000Y-4500000D02*
G75*
G02*
X11540000Y-4500000I-20000J0D01*
G01*
X11540000Y-4500000D02*
G75*
G02*
X11580000Y-4500000I20000J0D01*
G01*
X11740000Y-5500000D02*
G75*
G02*
X11700000Y-5500000I-20000J0D01*
G01*
X11700000Y-5500000D02*
G75*
G02*
X11740000Y-5500000I20000J0D01*
G01*
X11870000Y-13390000D02*
G75*
G02*
X11830000Y-13390000I-20000J0D01*
G01*
X11830000Y-13390000D02*
G75*
G02*
X11870000Y-13390000I20000J0D01*
G01*
X12070000Y-5580000D02*
G75*
G02*
X12030000Y-5580000I-20000J0D01*
G01*
X12030000Y-5580000D02*
G75*
G02*
X12070000Y-5580000I20000J0D01*
G01*
X12520000Y-4710000D02*
G75*
G02*
X12480000Y-4710000I-20000J0D01*
G01*
X12480000Y-4710000D02*
G75*
G02*
X12520000Y-4710000I20000J0D01*
G01*
X12520000Y-5640000D02*
G75*
G02*
X12480000Y-5640000I-20000J0D01*
G01*
X12480000Y-5640000D02*
G75*
G02*
X12520000Y-5640000I20000J0D01*
G01*
X12970000Y-5590000D02*
G75*
G02*
X12930000Y-5590000I-20000J0D01*
G01*
X12930000Y-5590000D02*
G75*
G02*
X12970000Y-5590000I20000J0D01*
G01*
X13300000Y-5500000D02*
G75*
G02*
X13260000Y-5500000I-20000J0D01*
G01*
X13260000Y-5500000D02*
G75*
G02*
X13300000Y-5500000I20000J0D01*
G01*
X13360000Y-4500000D02*
G75*
G02*
X13320000Y-4500000I-20000J0D01*
G01*
X13320000Y-4500000D02*
G75*
G02*
X13360000Y-4500000I20000J0D01*
G01*
X14050000Y-4500000D02*
G75*
G02*
X14010000Y-4500000I-20000J0D01*
G01*
X14010000Y-4500000D02*
G75*
G02*
X14050000Y-4500000I20000J0D01*
G01*
X14080000Y-5500000D02*
G75*
G02*
X14040000Y-5500000I-20000J0D01*
G01*
X14040000Y-5500000D02*
G75*
G02*
X14080000Y-5500000I20000J0D01*
G01*
X14470000Y-5580000D02*
G75*
G02*
X14430000Y-5580000I-20000J0D01*
G01*
X14430000Y-5580000D02*
G75*
G02*
X14470000Y-5580000I20000J0D01*
G01*
X14920000Y-4710000D02*
G75*
G02*
X14880000Y-4710000I-20000J0D01*
G01*
X14880000Y-4710000D02*
G75*
G02*
X14920000Y-4710000I20000J0D01*
G01*
X14920000Y-6500000D02*
G75*
G02*
X14880000Y-6500000I-20000J0D01*
G01*
X14880000Y-6500000D02*
G75*
G02*
X14920000Y-6500000I20000J0D01*
G01*
X15370000Y-5580000D02*
G75*
G02*
X15330000Y-5580000I-20000J0D01*
G01*
X15330000Y-5580000D02*
G75*
G02*
X15370000Y-5580000I20000J0D01*
G01*
X15710000Y-5500000D02*
G75*
G02*
X15670000Y-5500000I-20000J0D01*
G01*
X15670000Y-5500000D02*
G75*
G02*
X15710000Y-5500000I20000J0D01*
G01*
X15740000Y-4500000D02*
G75*
G02*
X15700000Y-4500000I-20000J0D01*
G01*
X15700000Y-4500000D02*
G75*
G02*
X15740000Y-4500000I20000J0D01*
G01*
X16550000Y-4500000D02*
G75*
G02*
X16510000Y-4500000I-20000J0D01*
G01*
X16510000Y-4500000D02*
G75*
G02*
X16550000Y-4500000I20000J0D01*
G01*
X16590000Y-5500000D02*
G75*
G02*
X16550000Y-5500000I-20000J0D01*
G01*
X16550000Y-5500000D02*
G75*
G02*
X16590000Y-5500000I20000J0D01*
G01*
X16920000Y-5580000D02*
G75*
G02*
X16880000Y-5580000I-20000J0D01*
G01*
X16880000Y-5580000D02*
G75*
G02*
X16920000Y-5580000I20000J0D01*
G01*
X17370000Y-4700000D02*
G75*
G02*
X17330000Y-4700000I-20000J0D01*
G01*
X17330000Y-4700000D02*
G75*
G02*
X17370000Y-4700000I20000J0D01*
G01*
X17370000Y-5620000D02*
G75*
G02*
X17330000Y-5620000I-20000J0D01*
G01*
X17330000Y-5620000D02*
G75*
G02*
X17370000Y-5620000I20000J0D01*
G01*
X17820000Y-5590000D02*
G75*
G02*
X17780000Y-5590000I-20000J0D01*
G01*
X17780000Y-5590000D02*
G75*
G02*
X17820000Y-5590000I20000J0D01*
G01*
X18060000Y-4350000D02*
G75*
G02*
X18020000Y-4350000I-20000J0D01*
G01*
X18020000Y-4350000D02*
G75*
G02*
X18060000Y-4350000I20000J0D01*
G01*
X18160000Y-5500000D02*
G75*
G02*
X18120000Y-5500000I-20000J0D01*
G01*
X18120000Y-5500000D02*
G75*
G02*
X18160000Y-5500000I20000J0D01*
G01*
X19030000Y-5500000D02*
G75*
G02*
X18990000Y-5500000I-20000J0D01*
G01*
X18990000Y-5500000D02*
G75*
G02*
X19030000Y-5500000I20000J0D01*
G01*
X19050000Y-4500000D02*
G75*
G02*
X19010000Y-4500000I-20000J0D01*
G01*
X19010000Y-4500000D02*
G75*
G02*
X19050000Y-4500000I20000J0D01*
G01*
X19320000Y-13290000D02*
G75*
G02*
X19280000Y-13290000I-20000J0D01*
G01*
X19280000Y-13290000D02*
G75*
G02*
X19320000Y-13290000I20000J0D01*
G01*
X19420000Y-5580000D02*
G75*
G02*
X19380000Y-5580000I-20000J0D01*
G01*
X19380000Y-5580000D02*
G75*
G02*
X19420000Y-5580000I20000J0D01*
G01*
X19870000Y-4500000D02*
G75*
G02*
X19830000Y-4500000I-20000J0D01*
G01*
X19830000Y-4500000D02*
G75*
G02*
X19870000Y-4500000I20000J0D01*
G01*
X19870000Y-6500000D02*
G75*
G02*
X19830000Y-6500000I-20000J0D01*
G01*
X19830000Y-6500000D02*
G75*
G02*
X19870000Y-6500000I20000J0D01*
G01*
X20320000Y-5590000D02*
G75*
G02*
X20280000Y-5590000I-20000J0D01*
G01*
X20280000Y-5590000D02*
G75*
G02*
X20320000Y-5590000I20000J0D01*
G01*
X20570000Y-12510000D02*
G75*
G02*
X20530000Y-12510000I-20000J0D01*
G01*
X20530000Y-12510000D02*
G75*
G02*
X20570000Y-12510000I20000J0D01*
G01*
X20700000Y-4500000D02*
G75*
G02*
X20660000Y-4500000I-20000J0D01*
G01*
X20660000Y-4500000D02*
G75*
G02*
X20700000Y-4500000I20000J0D01*
G01*
X20710000Y-5500000D02*
G75*
G02*
X20670000Y-5500000I-20000J0D01*
G01*
X20670000Y-5500000D02*
G75*
G02*
X20710000Y-5500000I20000J0D01*
G01*
X21080000Y-6840000D02*
G75*
G02*
X21040000Y-6840000I-20000J0D01*
G01*
X21040000Y-6840000D02*
G75*
G02*
X21080000Y-6840000I20000J0D01*
G01*
X21290000Y-6200000D02*
G75*
G02*
X21250000Y-6200000I-20000J0D01*
G01*
X21250000Y-6200000D02*
G75*
G02*
X21290000Y-6200000I20000J0D01*
G01*
X21300000Y-10200000D02*
G75*
G02*
X21260000Y-10200000I-20000J0D01*
G01*
X21260000Y-10200000D02*
G75*
G02*
X21300000Y-10200000I20000J0D01*
G01*
X21330000Y-7300000D02*
G75*
G02*
X21290000Y-7300000I-20000J0D01*
G01*
X21290000Y-7300000D02*
G75*
G02*
X21330000Y-7300000I20000J0D01*
G01*
X21330000Y-8750000D02*
G75*
G02*
X21290000Y-8750000I-20000J0D01*
G01*
X21290000Y-8750000D02*
G75*
G02*
X21330000Y-8750000I20000J0D01*
G01*
X21520000Y-8650000D02*
G75*
G02*
X21480000Y-8650000I-20000J0D01*
G01*
X21480000Y-8650000D02*
G75*
G02*
X21520000Y-8650000I20000J0D01*
G01*
X21520000Y-10100000D02*
G75*
G02*
X21480000Y-10100000I-20000J0D01*
G01*
X21480000Y-10100000D02*
G75*
G02*
X21520000Y-10100000I20000J0D01*
G01*
X21620000Y-7300000D02*
G75*
G02*
X21580000Y-7300000I-20000J0D01*
G01*
X21580000Y-7300000D02*
G75*
G02*
X21620000Y-7300000I20000J0D01*
G01*
X22120000Y-5450000D02*
G75*
G02*
X22080000Y-5450000I-20000J0D01*
G01*
X22080000Y-5450000D02*
G75*
G02*
X22120000Y-5450000I20000J0D01*
G01*
X22120588Y-6949412D02*
G75*
G02*
X22080588Y-6949412I-20000J0D01*
G01*
X22080588Y-6949412D02*
G75*
G02*
X22120588Y-6949412I20000J0D01*
G01*
X22210000Y-5750000D02*
G75*
G02*
X22170000Y-5750000I-20000J0D01*
G01*
X22170000Y-5750000D02*
G75*
G02*
X22210000Y-5750000I20000J0D01*
G01*
X22210000Y-6650000D02*
G75*
G02*
X22170000Y-6650000I-20000J0D01*
G01*
X22170000Y-6650000D02*
G75*
G02*
X22210000Y-6650000I20000J0D01*
G01*
X22910000Y-6200000D02*
G75*
G02*
X22870000Y-6200000I-20000J0D01*
G01*
X22870000Y-6200000D02*
G75*
G02*
X22910000Y-6200000I20000J0D01*
G01*
X23280000Y-7000000D02*
G75*
G02*
X23240000Y-7000000I-20000J0D01*
G01*
X23240000Y-7000000D02*
G75*
G02*
X23280000Y-7000000I20000J0D01*
G01*
X23680000Y-8300000D02*
G75*
G02*
X23640000Y-8300000I-20000J0D01*
G01*
X23640000Y-8300000D02*
G75*
G02*
X23680000Y-8300000I20000J0D01*
G01*
X23940000Y-9350000D02*
G75*
G02*
X23900000Y-9350000I-20000J0D01*
G01*
X23900000Y-9350000D02*
G75*
G02*
X23940000Y-9350000I20000J0D01*
G01*
X24380000Y-7850000D02*
G75*
G02*
X24340000Y-7850000I-20000J0D01*
G01*
X24340000Y-7850000D02*
G75*
G02*
X24380000Y-7850000I20000J0D01*
G01*
X24380000Y-8750000D02*
G75*
G02*
X24340000Y-8750000I-20000J0D01*
G01*
X24340000Y-8750000D02*
G75*
G02*
X24380000Y-8750000I20000J0D01*
G01*
X24440000Y-6320000D02*
G75*
G02*
X24400000Y-6320000I-20000J0D01*
G01*
X24400000Y-6320000D02*
G75*
G02*
X24440000Y-6320000I20000J0D01*
G01*
X24470000Y-7530000D02*
G75*
G02*
X24430000Y-7530000I-20000J0D01*
G01*
X24430000Y-7530000D02*
G75*
G02*
X24470000Y-7530000I20000J0D01*
G01*
X24470000Y-9070000D02*
G75*
G02*
X24430000Y-9070000I-20000J0D01*
G01*
X24430000Y-9070000D02*
G75*
G02*
X24470000Y-9070000I20000J0D01*
G01*
X24570000Y-5510000D02*
G75*
G02*
X24530000Y-5510000I-20000J0D01*
G01*
X24530000Y-5510000D02*
G75*
G02*
X24570000Y-5510000I20000J0D01*
G01*
X24820000Y-11000000D02*
G75*
G02*
X24780000Y-11000000I-20000J0D01*
G01*
X24780000Y-11000000D02*
G75*
G02*
X24820000Y-11000000I20000J0D01*
G01*
X24880000Y-10600000D02*
G75*
G02*
X24840000Y-10600000I-20000J0D01*
G01*
X24840000Y-10600000D02*
G75*
G02*
X24880000Y-10600000I20000J0D01*
G01*
X24990000Y-9360000D02*
G75*
G02*
X24950000Y-9360000I-20000J0D01*
G01*
X24950000Y-9360000D02*
G75*
G02*
X24990000Y-9360000I20000J0D01*
G01*
X25260000Y-8300000D02*
G75*
G02*
X25220000Y-8300000I-20000J0D01*
G01*
X25220000Y-8300000D02*
G75*
G02*
X25260000Y-8300000I20000J0D01*
G01*
X25570000Y-11290000D02*
G75*
G02*
X25530000Y-11290000I-20000J0D01*
G01*
X25530000Y-11290000D02*
G75*
G02*
X25570000Y-11290000I20000J0D01*
G01*
X25710000Y-10700000D02*
G75*
G02*
X25670000Y-10700000I-20000J0D01*
G01*
X25670000Y-10700000D02*
G75*
G02*
X25710000Y-10700000I20000J0D01*
G01*
X26020000Y-11250000D02*
G75*
G02*
X25980000Y-11250000I-20000J0D01*
G01*
X25980000Y-11250000D02*
G75*
G02*
X26020000Y-11250000I20000J0D01*
G01*
X26120000Y-10720000D02*
G75*
G02*
X26080000Y-10720000I-20000J0D01*
G01*
X26080000Y-10720000D02*
G75*
G02*
X26120000Y-10720000I20000J0D01*
G01*
X26370000Y-10780000D02*
G75*
G02*
X26330000Y-10780000I-20000J0D01*
G01*
X26330000Y-10780000D02*
G75*
G02*
X26370000Y-10780000I20000J0D01*
G01*
X24332398Y-5476662D02*
X24332398Y-5536662D01*
X24302398Y-5506662D02*
X24362398Y-5506662D01*
X24332398Y-5549088D02*
X24374824Y-5506662D01*
X24332398Y-5464236D02*
G75*
G02*
X24374824Y-5506662I21213J-21213D01*
G01*
X24332398Y-5464236D02*
X24289971Y-5506662D01*
X24289971Y-5506662D02*
G75*
G03*
X24332398Y-5549088I21213J-21213D01*
G01*
X24601098Y-5207961D02*
X24601098Y-5267961D01*
X24571098Y-5237961D02*
X24631098Y-5237961D01*
X24601098Y-5280388D02*
X24643525Y-5237961D01*
X24601098Y-5195535D02*
G75*
G02*
X24643525Y-5237961I21213J-21213D01*
G01*
X24601098Y-5195535D02*
X24558672Y-5237961D01*
X24558672Y-5237961D02*
G75*
G03*
X24601098Y-5280388I21213J-21213D01*
G01*
X24943338Y-6087602D02*
X24943338Y-6147602D01*
X24913338Y-6117602D02*
X24973338Y-6117602D01*
X24943338Y-6160029D02*
X24985764Y-6117602D01*
X24943338Y-6075176D02*
G75*
G02*
X24985764Y-6117602I21213J-21213D01*
G01*
X24943338Y-6075176D02*
X24900912Y-6117602D01*
X24900912Y-6117602D02*
G75*
G03*
X24943338Y-6160029I21213J-21213D01*
G01*
X25212039Y-5818902D02*
X25212039Y-5878902D01*
X25182039Y-5848902D02*
X25242039Y-5848902D01*
X25212039Y-5891328D02*
X25254465Y-5848902D01*
X25212039Y-5806475D02*
G75*
G02*
X25254465Y-5848902I21213J-21213D01*
G01*
X25212039Y-5806475D02*
X25169612Y-5848902D01*
X25169612Y-5848902D02*
G75*
G03*
X25212039Y-5891328I21213J-21213D01*
G01*
X19924749Y-14174749D02*
X19924749Y-14125251D01*
X19875251Y-14125251D01*
X19875251Y-14174749D01*
X19924749Y-14174749D01*
X20024749Y-13974749D02*
X20024749Y-13925251D01*
X19975251Y-13925251D01*
X19975251Y-13974749D01*
X20024749Y-13974749D01*
X20124749Y-14174749D02*
X20124749Y-14125251D01*
X20075251Y-14125251D01*
X20075251Y-14174749D01*
X20124749Y-14174749D01*
X20224749Y-13974749D02*
X20224749Y-13925251D01*
X20175251Y-13925251D01*
X20175251Y-13974749D01*
X20224749Y-13974749D01*
X20324749Y-14174749D02*
X20324749Y-14125251D01*
X20275251Y-14125251D01*
X20275251Y-14174749D01*
X20324749Y-14174749D01*
X20424749Y-13974749D02*
X20424749Y-13925251D01*
X20375251Y-13925251D01*
X20375251Y-13974749D01*
X20424749Y-13974749D01*
X20524749Y-14174749D02*
X20524749Y-14125251D01*
X20475251Y-14125251D01*
X20475251Y-14174749D01*
X20524749Y-14174749D01*
X20624749Y-13974749D02*
X20624749Y-13925251D01*
X20575251Y-13925251D01*
X20575251Y-13974749D01*
X20624749Y-13974749D01*
X20724749Y-14174749D02*
X20724749Y-14125251D01*
X20675251Y-14125251D01*
X20675251Y-14174749D01*
X20724749Y-14174749D01*
X20824749Y-13974749D02*
X20824749Y-13925251D01*
X20775251Y-13925251D01*
X20775251Y-13974749D01*
X20824749Y-13974749D01*
X20924749Y-14174749D02*
X20924749Y-14125251D01*
X20875251Y-14125251D01*
X20875251Y-14174749D01*
X20924749Y-14174749D01*
X21024749Y-13974749D02*
X21024749Y-13925251D01*
X20975251Y-13925251D01*
X20975251Y-13974749D01*
X21024749Y-13974749D01*
X21524749Y-14174749D02*
X21524749Y-14125251D01*
X21475251Y-14125251D01*
X21475251Y-14174749D01*
X21524749Y-14174749D01*
X21624749Y-13974749D02*
X21624749Y-13925251D01*
X21575251Y-13925251D01*
X21575251Y-13974749D01*
X21624749Y-13974749D01*
X21724749Y-14174749D02*
X21724749Y-14125251D01*
X21675251Y-14125251D01*
X21675251Y-14174749D01*
X21724749Y-14174749D01*
X21824749Y-13974749D02*
X21824749Y-13925251D01*
X21775251Y-13925251D01*
X21775251Y-13974749D01*
X21824749Y-13974749D01*
X21924749Y-14174749D02*
X21924749Y-14125251D01*
X21875251Y-14125251D01*
X21875251Y-14174749D01*
X21924749Y-14174749D01*
X22024749Y-13974749D02*
X22024749Y-13925251D01*
X21975251Y-13925251D01*
X21975251Y-13974749D01*
X22024749Y-13974749D01*
X22124749Y-14174749D02*
X22124749Y-14125251D01*
X22075251Y-14125251D01*
X22075251Y-14174749D01*
X22124749Y-14174749D01*
X22224749Y-13974749D02*
X22224749Y-13925251D01*
X22175251Y-13925251D01*
X22175251Y-13974749D01*
X22224749Y-13974749D01*
X22324749Y-14174749D02*
X22324749Y-14125251D01*
X22275251Y-14125251D01*
X22275251Y-14174749D01*
X22324749Y-14174749D01*
X22424749Y-13974749D02*
X22424749Y-13925251D01*
X22375251Y-13925251D01*
X22375251Y-13974749D01*
X22424749Y-13974749D01*
X22524749Y-14174749D02*
X22524749Y-14125251D01*
X22475251Y-14125251D01*
X22475251Y-14174749D01*
X22524749Y-14174749D01*
X22624749Y-13974749D02*
X22624749Y-13925251D01*
X22575251Y-13925251D01*
X22575251Y-13974749D01*
X22624749Y-13974749D01*
X25800000Y-11840000D02*
X25840000Y-11800000D01*
X25800000Y-11760000D01*
X25760000Y-11800000D01*
X25800000Y-11840000D01*
X26050000Y-11840000D02*
X26090000Y-11800000D01*
X26050000Y-11760000D01*
X26010000Y-11800000D01*
X26050000Y-11840000D01*
X14545000Y-12537000D02*
X14645000Y-12637000D01*
X14645000Y-12537000D02*
X14545000Y-12637000D01*
X14645000Y-12587000D02*
G75*
G02*
X14545000Y-12587000I-50000J0D01*
G01*
X14545000Y-12587000D02*
G75*
G02*
X14645000Y-12587000I50000J0D01*
G01*
X14545000Y-14061000D02*
X14645000Y-14161000D01*
X14645000Y-14061000D02*
X14545000Y-14161000D01*
X14645000Y-14111000D02*
G75*
G02*
X14545000Y-14111000I-50000J0D01*
G01*
X14545000Y-14111000D02*
G75*
G02*
X14645000Y-14111000I50000J0D01*
G01*
X14572500Y-11850000D02*
X14672500Y-11950000D01*
X14672500Y-11850000D02*
X14572500Y-11950000D01*
X14672500Y-11900000D02*
G75*
G02*
X14572500Y-11900000I-50000J0D01*
G01*
X14572500Y-11900000D02*
G75*
G02*
X14672500Y-11900000I50000J0D01*
G01*
X14799000Y-12537000D02*
X14899000Y-12637000D01*
X14899000Y-12537000D02*
X14799000Y-12637000D01*
X14899000Y-12587000D02*
G75*
G02*
X14799000Y-12587000I-50000J0D01*
G01*
X14799000Y-12587000D02*
G75*
G02*
X14899000Y-12587000I50000J0D01*
G01*
X14799000Y-14061000D02*
X14899000Y-14161000D01*
X14899000Y-14061000D02*
X14799000Y-14161000D01*
X14899000Y-14111000D02*
G75*
G02*
X14799000Y-14111000I-50000J0D01*
G01*
X14799000Y-14111000D02*
G75*
G02*
X14899000Y-14111000I50000J0D01*
G01*
X14826500Y-11850000D02*
X14926500Y-11950000D01*
X14926500Y-11850000D02*
X14826500Y-11950000D01*
X14926500Y-11900000D02*
G75*
G02*
X14826500Y-11900000I-50000J0D01*
G01*
X14826500Y-11900000D02*
G75*
G02*
X14926500Y-11900000I50000J0D01*
G01*
X15053000Y-12537000D02*
X15153000Y-12637000D01*
X15153000Y-12537000D02*
X15053000Y-12637000D01*
X15153000Y-12587000D02*
G75*
G02*
X15053000Y-12587000I-50000J0D01*
G01*
X15053000Y-12587000D02*
G75*
G02*
X15153000Y-12587000I50000J0D01*
G01*
X15053000Y-14061000D02*
X15153000Y-14161000D01*
X15153000Y-14061000D02*
X15053000Y-14161000D01*
X15153000Y-14111000D02*
G75*
G02*
X15053000Y-14111000I-50000J0D01*
G01*
X15053000Y-14111000D02*
G75*
G02*
X15153000Y-14111000I50000J0D01*
G01*
X15307000Y-12537000D02*
X15407000Y-12637000D01*
X15407000Y-12537000D02*
X15307000Y-12637000D01*
X15407000Y-12587000D02*
G75*
G02*
X15307000Y-12587000I-50000J0D01*
G01*
X15307000Y-12587000D02*
G75*
G02*
X15407000Y-12587000I50000J0D01*
G01*
X15307000Y-14061000D02*
X15407000Y-14161000D01*
X15407000Y-14061000D02*
X15307000Y-14161000D01*
X15407000Y-14111000D02*
G75*
G02*
X15307000Y-14111000I-50000J0D01*
G01*
X15307000Y-14111000D02*
G75*
G02*
X15407000Y-14111000I50000J0D01*
G01*
X15538000Y-11850000D02*
X15638000Y-11950000D01*
X15638000Y-11850000D02*
X15538000Y-11950000D01*
X15638000Y-11900000D02*
G75*
G02*
X15538000Y-11900000I-50000J0D01*
G01*
X15538000Y-11900000D02*
G75*
G02*
X15638000Y-11900000I50000J0D01*
G01*
X15561000Y-12537000D02*
X15661000Y-12637000D01*
X15661000Y-12537000D02*
X15561000Y-12637000D01*
X15661000Y-12587000D02*
G75*
G02*
X15561000Y-12587000I-50000J0D01*
G01*
X15561000Y-12587000D02*
G75*
G02*
X15661000Y-12587000I50000J0D01*
G01*
X15561000Y-14061000D02*
X15661000Y-14161000D01*
X15661000Y-14061000D02*
X15561000Y-14161000D01*
X15661000Y-14111000D02*
G75*
G02*
X15561000Y-14111000I-50000J0D01*
G01*
X15561000Y-14111000D02*
G75*
G02*
X15661000Y-14111000I50000J0D01*
G01*
X15792000Y-11850000D02*
X15892000Y-11950000D01*
X15892000Y-11850000D02*
X15792000Y-11950000D01*
X15892000Y-11900000D02*
G75*
G02*
X15792000Y-11900000I-50000J0D01*
G01*
X15792000Y-11900000D02*
G75*
G02*
X15892000Y-11900000I50000J0D01*
G01*
X15815000Y-12537000D02*
X15915000Y-12637000D01*
X15915000Y-12537000D02*
X15815000Y-12637000D01*
X15915000Y-12587000D02*
G75*
G02*
X15815000Y-12587000I-50000J0D01*
G01*
X15815000Y-12587000D02*
G75*
G02*
X15915000Y-12587000I50000J0D01*
G01*
X15815000Y-14061000D02*
X15915000Y-14161000D01*
X15915000Y-14061000D02*
X15815000Y-14161000D01*
X15915000Y-14111000D02*
G75*
G02*
X15815000Y-14111000I-50000J0D01*
G01*
X15815000Y-14111000D02*
G75*
G02*
X15915000Y-14111000I50000J0D01*
G01*
X16046000Y-11850000D02*
X16146000Y-11950000D01*
X16146000Y-11850000D02*
X16046000Y-11950000D01*
X16146000Y-11900000D02*
G75*
G02*
X16046000Y-11900000I-50000J0D01*
G01*
X16046000Y-11900000D02*
G75*
G02*
X16146000Y-11900000I50000J0D01*
G01*
X16069000Y-12537000D02*
X16169000Y-12637000D01*
X16169000Y-12537000D02*
X16069000Y-12637000D01*
X16169000Y-12587000D02*
G75*
G02*
X16069000Y-12587000I-50000J0D01*
G01*
X16069000Y-12587000D02*
G75*
G02*
X16169000Y-12587000I50000J0D01*
G01*
X16069000Y-14061000D02*
X16169000Y-14161000D01*
X16169000Y-14061000D02*
X16069000Y-14161000D01*
X16169000Y-14111000D02*
G75*
G02*
X16069000Y-14111000I-50000J0D01*
G01*
X16069000Y-14111000D02*
G75*
G02*
X16169000Y-14111000I50000J0D01*
G01*
X16300000Y-11850000D02*
X16400000Y-11950000D01*
X16400000Y-11850000D02*
X16300000Y-11950000D01*
X16400000Y-11900000D02*
G75*
G02*
X16300000Y-11900000I-50000J0D01*
G01*
X16300000Y-11900000D02*
G75*
G02*
X16400000Y-11900000I50000J0D01*
G01*
X16323000Y-12537000D02*
X16423000Y-12637000D01*
X16423000Y-12537000D02*
X16323000Y-12637000D01*
X16423000Y-12587000D02*
G75*
G02*
X16323000Y-12587000I-50000J0D01*
G01*
X16323000Y-12587000D02*
G75*
G02*
X16423000Y-12587000I50000J0D01*
G01*
X16323000Y-14061000D02*
X16423000Y-14161000D01*
X16423000Y-14061000D02*
X16323000Y-14161000D01*
X16423000Y-14111000D02*
G75*
G02*
X16323000Y-14111000I-50000J0D01*
G01*
X16323000Y-14111000D02*
G75*
G02*
X16423000Y-14111000I50000J0D01*
G01*
X16577000Y-12537000D02*
X16677000Y-12637000D01*
X16677000Y-12537000D02*
X16577000Y-12637000D01*
X16677000Y-12587000D02*
G75*
G02*
X16577000Y-12587000I-50000J0D01*
G01*
X16577000Y-12587000D02*
G75*
G02*
X16677000Y-12587000I50000J0D01*
G01*
X16577000Y-14061000D02*
X16677000Y-14161000D01*
X16677000Y-14061000D02*
X16577000Y-14161000D01*
X16677000Y-14111000D02*
G75*
G02*
X16577000Y-14111000I-50000J0D01*
G01*
X16577000Y-14111000D02*
G75*
G02*
X16677000Y-14111000I50000J0D01*
G01*
X16831000Y-12537000D02*
X16931000Y-12637000D01*
X16931000Y-12537000D02*
X16831000Y-12637000D01*
X16931000Y-12587000D02*
G75*
G02*
X16831000Y-12587000I-50000J0D01*
G01*
X16831000Y-12587000D02*
G75*
G02*
X16931000Y-12587000I50000J0D01*
G01*
X16831000Y-14061000D02*
X16931000Y-14161000D01*
X16931000Y-14061000D02*
X16831000Y-14161000D01*
X16931000Y-14111000D02*
G75*
G02*
X16831000Y-14111000I-50000J0D01*
G01*
X16831000Y-14111000D02*
G75*
G02*
X16931000Y-14111000I50000J0D01*
G01*
X17085000Y-12537000D02*
X17185000Y-12637000D01*
X17185000Y-12537000D02*
X17085000Y-12637000D01*
X17185000Y-12587000D02*
G75*
G02*
X17085000Y-12587000I-50000J0D01*
G01*
X17085000Y-12587000D02*
G75*
G02*
X17185000Y-12587000I50000J0D01*
G01*
X17085000Y-14061000D02*
X17185000Y-14161000D01*
X17185000Y-14061000D02*
X17085000Y-14161000D01*
X17185000Y-14111000D02*
G75*
G02*
X17085000Y-14111000I-50000J0D01*
G01*
X17085000Y-14111000D02*
G75*
G02*
X17185000Y-14111000I50000J0D01*
G01*
X17339000Y-12537000D02*
X17439000Y-12637000D01*
X17439000Y-12537000D02*
X17339000Y-12637000D01*
X17439000Y-12587000D02*
G75*
G02*
X17339000Y-12587000I-50000J0D01*
G01*
X17339000Y-12587000D02*
G75*
G02*
X17439000Y-12587000I50000J0D01*
G01*
X17339000Y-14061000D02*
X17439000Y-14161000D01*
X17439000Y-14061000D02*
X17339000Y-14161000D01*
X17439000Y-14111000D02*
G75*
G02*
X17339000Y-14111000I-50000J0D01*
G01*
X17339000Y-14111000D02*
G75*
G02*
X17439000Y-14111000I50000J0D01*
G01*
X17593000Y-12537000D02*
X17693000Y-12637000D01*
X17693000Y-12537000D02*
X17593000Y-12637000D01*
X17693000Y-12587000D02*
G75*
G02*
X17593000Y-12587000I-50000J0D01*
G01*
X17593000Y-12587000D02*
G75*
G02*
X17693000Y-12587000I50000J0D01*
G01*
X17593000Y-14061000D02*
X17693000Y-14161000D01*
X17693000Y-14061000D02*
X17593000Y-14161000D01*
X17693000Y-14111000D02*
G75*
G02*
X17593000Y-14111000I-50000J0D01*
G01*
X17593000Y-14111000D02*
G75*
G02*
X17693000Y-14111000I50000J0D01*
G01*
X17847000Y-12537000D02*
X17947000Y-12637000D01*
X17947000Y-12537000D02*
X17847000Y-12637000D01*
X17947000Y-12587000D02*
G75*
G02*
X17847000Y-12587000I-50000J0D01*
G01*
X17847000Y-12587000D02*
G75*
G02*
X17947000Y-12587000I50000J0D01*
G01*
X17847000Y-14061000D02*
X17947000Y-14161000D01*
X17947000Y-14061000D02*
X17847000Y-14161000D01*
X17947000Y-14111000D02*
G75*
G02*
X17847000Y-14111000I-50000J0D01*
G01*
X17847000Y-14111000D02*
G75*
G02*
X17947000Y-14111000I50000J0D01*
G01*
X18101000Y-12537000D02*
X18201000Y-12637000D01*
X18201000Y-12537000D02*
X18101000Y-12637000D01*
X18201000Y-12587000D02*
G75*
G02*
X18101000Y-12587000I-50000J0D01*
G01*
X18101000Y-12587000D02*
G75*
G02*
X18201000Y-12587000I50000J0D01*
G01*
X18101000Y-14061000D02*
X18201000Y-14161000D01*
X18201000Y-14061000D02*
X18101000Y-14161000D01*
X18201000Y-14111000D02*
G75*
G02*
X18101000Y-14111000I-50000J0D01*
G01*
X18101000Y-14111000D02*
G75*
G02*
X18201000Y-14111000I50000J0D01*
G01*
D13*
X7364175Y-7025445D02*
X7484175Y-7145445D01*
X7484175Y-7025445D02*
X7364175Y-7145445D01*
X7424175Y-7025445D02*
X7424175Y-7145445D01*
X7364175Y-7085445D02*
X7484175Y-7085445D01*
X7417208Y-6512792D02*
X7537208Y-6632792D01*
X7537208Y-6512792D02*
X7417208Y-6632792D01*
X7477208Y-6512792D02*
X7477208Y-6632792D01*
X7417208Y-6572792D02*
X7537208Y-6572792D01*
X8018249Y-6548147D02*
X8138249Y-6668147D01*
X8138249Y-6548147D02*
X8018249Y-6668147D01*
X8078249Y-6548147D02*
X8078249Y-6668147D01*
X8018249Y-6608147D02*
X8138249Y-6608147D01*
X8636967Y-5752652D02*
X8756967Y-5872652D01*
X8756967Y-5752652D02*
X8636967Y-5872652D01*
X8696967Y-5752652D02*
X8696967Y-5872652D01*
X8636967Y-5812652D02*
X8756967Y-5812652D01*
X8690000Y-5240000D02*
X8810000Y-5360000D01*
X8810000Y-5240000D02*
X8690000Y-5360000D01*
X8750000Y-5240000D02*
X8750000Y-5360000D01*
X8690000Y-5300000D02*
X8810000Y-5300000D01*
X9291041Y-5275355D02*
X9411041Y-5395355D01*
X9411041Y-5275355D02*
X9291041Y-5395355D01*
X9351041Y-5275355D02*
X9351041Y-5395355D01*
X9291041Y-5335355D02*
X9411041Y-5335355D01*
X9909759Y-4479860D02*
X10029759Y-4599860D01*
X10029759Y-4479860D02*
X9909759Y-4599860D01*
X9969759Y-4479860D02*
X9969759Y-4599860D01*
X9909759Y-4539860D02*
X10029759Y-4539860D01*
X9962792Y-3967208D02*
X10082792Y-4087208D01*
X10082792Y-3967208D02*
X9962792Y-4087208D01*
X10022792Y-3967208D02*
X10022792Y-4087208D01*
X9962792Y-4027208D02*
X10082792Y-4027208D01*
X10563833Y-4002563D02*
X10683833Y-4122563D01*
X10683833Y-4002563D02*
X10563833Y-4122563D01*
X10623833Y-4002563D02*
X10623833Y-4122563D01*
X10563833Y-4062563D02*
X10683833Y-4062563D01*
X11340000Y-3865000D02*
X11460000Y-3985000D01*
X11460000Y-3865000D02*
X11340000Y-3985000D01*
X11400000Y-3865000D02*
X11400000Y-3985000D01*
X11340000Y-3925000D02*
X11460000Y-3925000D01*
X11740000Y-3540000D02*
X11860000Y-3660000D01*
X11860000Y-3540000D02*
X11740000Y-3660000D01*
X11800000Y-3540000D02*
X11800000Y-3660000D01*
X11740000Y-3600000D02*
X11860000Y-3600000D01*
X12140000Y-3990000D02*
X12260000Y-4110000D01*
X12260000Y-3990000D02*
X12140000Y-4110000D01*
X12200000Y-3990000D02*
X12200000Y-4110000D01*
X12140000Y-4050000D02*
X12260000Y-4050000D01*
X13140000Y-3865000D02*
X13260000Y-3985000D01*
X13260000Y-3865000D02*
X13140000Y-3985000D01*
X13200000Y-3865000D02*
X13200000Y-3985000D01*
X13140000Y-3925000D02*
X13260000Y-3925000D01*
X13540000Y-3540000D02*
X13660000Y-3660000D01*
X13660000Y-3540000D02*
X13540000Y-3660000D01*
X13600000Y-3540000D02*
X13600000Y-3660000D01*
X13540000Y-3600000D02*
X13660000Y-3600000D01*
X13940000Y-3990000D02*
X14060000Y-4110000D01*
X14060000Y-3990000D02*
X13940000Y-4110000D01*
X14000000Y-3990000D02*
X14000000Y-4110000D01*
X13940000Y-4050000D02*
X14060000Y-4050000D01*
X14940000Y-3865000D02*
X15060000Y-3985000D01*
X15060000Y-3865000D02*
X14940000Y-3985000D01*
X15000000Y-3865000D02*
X15000000Y-3985000D01*
X14940000Y-3925000D02*
X15060000Y-3925000D01*
X15340000Y-3540000D02*
X15460000Y-3660000D01*
X15460000Y-3540000D02*
X15340000Y-3660000D01*
X15400000Y-3540000D02*
X15400000Y-3660000D01*
X15340000Y-3600000D02*
X15460000Y-3600000D01*
X15740000Y-3990000D02*
X15860000Y-4110000D01*
X15860000Y-3990000D02*
X15740000Y-4110000D01*
X15800000Y-3990000D02*
X15800000Y-4110000D01*
X15740000Y-4050000D02*
X15860000Y-4050000D01*
X16940000Y-3865000D02*
X17060000Y-3985000D01*
X17060000Y-3865000D02*
X16940000Y-3985000D01*
X17000000Y-3865000D02*
X17000000Y-3985000D01*
X16940000Y-3925000D02*
X17060000Y-3925000D01*
X17340000Y-3540000D02*
X17460000Y-3660000D01*
X17460000Y-3540000D02*
X17340000Y-3660000D01*
X17400000Y-3540000D02*
X17400000Y-3660000D01*
X17340000Y-3600000D02*
X17460000Y-3600000D01*
X17740000Y-3990000D02*
X17860000Y-4110000D01*
X17860000Y-3990000D02*
X17740000Y-4110000D01*
X17800000Y-3990000D02*
X17800000Y-4110000D01*
X17740000Y-4050000D02*
X17860000Y-4050000D01*
X18740000Y-3865000D02*
X18860000Y-3985000D01*
X18860000Y-3865000D02*
X18740000Y-3985000D01*
X18800000Y-3865000D02*
X18800000Y-3985000D01*
X18740000Y-3925000D02*
X18860000Y-3925000D01*
X19140000Y-3540000D02*
X19260000Y-3660000D01*
X19260000Y-3540000D02*
X19140000Y-3660000D01*
X19200000Y-3540000D02*
X19200000Y-3660000D01*
X19140000Y-3600000D02*
X19260000Y-3600000D01*
X19540000Y-3990000D02*
X19660000Y-4110000D01*
X19660000Y-3990000D02*
X19540000Y-4110000D01*
X19600000Y-3990000D02*
X19600000Y-4110000D01*
X19540000Y-4050000D02*
X19660000Y-4050000D01*
X20540000Y-3865000D02*
X20660000Y-3985000D01*
X20660000Y-3865000D02*
X20540000Y-3985000D01*
X20600000Y-3865000D02*
X20600000Y-3985000D01*
X20540000Y-3925000D02*
X20660000Y-3925000D01*
X20940000Y-3540000D02*
X21060000Y-3660000D01*
X21060000Y-3540000D02*
X20940000Y-3660000D01*
X21000000Y-3540000D02*
X21000000Y-3660000D01*
X20940000Y-3600000D02*
X21060000Y-3600000D01*
X21340000Y-3990000D02*
X21460000Y-4110000D01*
X21460000Y-3990000D02*
X21340000Y-4110000D01*
X21400000Y-3990000D02*
X21400000Y-4110000D01*
X21340000Y-4050000D02*
X21460000Y-4050000D01*
X22204555Y-3914175D02*
X22324555Y-4034175D01*
X22324555Y-3914175D02*
X22204555Y-4034175D01*
X22264555Y-3914175D02*
X22264555Y-4034175D01*
X22204555Y-3974175D02*
X22324555Y-3974175D01*
X22681852Y-4568249D02*
X22801852Y-4688249D01*
X22801852Y-4568249D02*
X22681852Y-4688249D01*
X22741852Y-4568249D02*
X22741852Y-4688249D01*
X22681852Y-4628249D02*
X22801852Y-4628249D01*
X22717208Y-3967208D02*
X22837208Y-4087208D01*
X22837208Y-3967208D02*
X22717208Y-4087208D01*
X22777208Y-3967208D02*
X22777208Y-4087208D01*
X22717208Y-4027208D02*
X22837208Y-4027208D01*
X23477348Y-5186967D02*
X23597348Y-5306967D01*
X23597348Y-5186967D02*
X23477348Y-5306967D01*
X23537348Y-5186967D02*
X23537348Y-5306967D01*
X23477348Y-5246967D02*
X23597348Y-5246967D01*
X23954645Y-5841041D02*
X24074645Y-5961041D01*
X24074645Y-5841041D02*
X23954645Y-5961041D01*
X24014645Y-5841041D02*
X24014645Y-5961041D01*
X23954645Y-5901041D02*
X24074645Y-5901041D01*
X23990000Y-5240000D02*
X24110000Y-5360000D01*
X24110000Y-5240000D02*
X23990000Y-5360000D01*
X24050000Y-5240000D02*
X24050000Y-5360000D01*
X23990000Y-5300000D02*
X24110000Y-5300000D01*
X24750140Y-6459759D02*
X24870140Y-6579759D01*
X24870140Y-6459759D02*
X24750140Y-6579759D01*
X24810140Y-6459759D02*
X24810140Y-6579759D01*
X24750140Y-6519759D02*
X24870140Y-6519759D01*
X25227437Y-7113833D02*
X25347437Y-7233833D01*
X25347437Y-7113833D02*
X25227437Y-7233833D01*
X25287437Y-7113833D02*
X25287437Y-7233833D01*
X25227437Y-7173833D02*
X25347437Y-7173833D01*
X25262792Y-6512792D02*
X25382792Y-6632792D01*
X25382792Y-6512792D02*
X25262792Y-6632792D01*
X25322792Y-6512792D02*
X25322792Y-6632792D01*
X25262792Y-6572792D02*
X25382792Y-6572792D01*
D14*
X10285000Y-13935000D02*
X10415000Y-14065000D01*
X10415000Y-13935000D02*
X10285000Y-14065000D01*
X10395962Y-14045962D02*
X10395962Y-13954038D01*
X10304038Y-13954038D01*
X10304038Y-14045962D01*
X10395962Y-14045962D01*
X10785000Y-13935000D02*
X10915000Y-14065000D01*
X10915000Y-13935000D02*
X10785000Y-14065000D01*
X10895962Y-14045962D02*
X10895962Y-13954038D01*
X10804038Y-13954038D01*
X10804038Y-14045962D01*
X10895962Y-14045962D01*
X11285000Y-13935000D02*
X11415000Y-14065000D01*
X11415000Y-13935000D02*
X11285000Y-14065000D01*
X11395962Y-14045962D02*
X11395962Y-13954038D01*
X11304038Y-13954038D01*
X11304038Y-14045962D01*
X11395962Y-14045962D01*
X11785000Y-13935000D02*
X11915000Y-14065000D01*
X11915000Y-13935000D02*
X11785000Y-14065000D01*
X11895962Y-14045962D02*
X11895962Y-13954038D01*
X11804038Y-13954038D01*
X11804038Y-14045962D01*
X11895962Y-14045962D01*
D15*
X10840000Y-11340000D02*
X11160000Y-11660000D01*
X11160000Y-11340000D02*
X10840000Y-11660000D01*
X11000000Y-11660000D02*
X11160000Y-11500000D01*
X11000000Y-11340000D01*
X10840000Y-11500000D01*
X11000000Y-11660000D01*
X12340000Y-6840000D02*
X12660000Y-7160000D01*
X12660000Y-6840000D02*
X12340000Y-7160000D01*
X12500000Y-7160000D02*
X12660000Y-7000000D01*
X12500000Y-6840000D01*
X12340000Y-7000000D01*
X12500000Y-7160000D01*
X18340000Y-6840000D02*
X18660000Y-7160000D01*
X18660000Y-6840000D02*
X18340000Y-7160000D01*
X18500000Y-7160000D02*
X18660000Y-7000000D01*
X18500000Y-6840000D01*
X18340000Y-7000000D01*
X18500000Y-7160000D01*
X24590000Y-12990000D02*
X24910000Y-13310000D01*
X24910000Y-12990000D02*
X24590000Y-13310000D01*
X24750000Y-13310000D02*
X24910000Y-13150000D01*
X24750000Y-12990000D01*
X24590000Y-13150000D01*
X24750000Y-13310000D01*
D11*
X6258277Y-14813984D02*
X6258277Y-14613984D01*
X6258277Y-14613984D02*
X6305896Y-14613984D01*
X6305896Y-14613984D02*
X6334467Y-14623508D01*
X6334467Y-14623508D02*
X6353515Y-14642555D01*
X6353515Y-14642555D02*
X6363039Y-14661603D01*
X6363039Y-14661603D02*
X6372562Y-14699698D01*
X6372562Y-14699698D02*
X6372562Y-14728269D01*
X6372562Y-14728269D02*
X6363039Y-14766365D01*
X6363039Y-14766365D02*
X6353515Y-14785412D01*
X6353515Y-14785412D02*
X6334467Y-14804460D01*
X6334467Y-14804460D02*
X6305896Y-14813984D01*
X6305896Y-14813984D02*
X6258277Y-14813984D01*
X6458277Y-14813984D02*
X6458277Y-14680650D01*
X6458277Y-14718746D02*
X6467801Y-14699698D01*
X6467801Y-14699698D02*
X6477324Y-14690174D01*
X6477324Y-14690174D02*
X6496372Y-14680650D01*
X6496372Y-14680650D02*
X6515420Y-14680650D01*
X6582086Y-14813984D02*
X6582086Y-14680650D01*
X6582086Y-14613984D02*
X6572562Y-14623508D01*
X6572562Y-14623508D02*
X6582086Y-14633031D01*
X6582086Y-14633031D02*
X6591610Y-14623508D01*
X6591610Y-14623508D02*
X6582086Y-14613984D01*
X6582086Y-14613984D02*
X6582086Y-14633031D01*
X6705896Y-14813984D02*
X6686848Y-14804460D01*
X6686848Y-14804460D02*
X6677324Y-14785412D01*
X6677324Y-14785412D02*
X6677324Y-14613984D01*
X6810658Y-14813984D02*
X6791610Y-14804460D01*
X6791610Y-14804460D02*
X6782086Y-14785412D01*
X6782086Y-14785412D02*
X6782086Y-14613984D01*
X7039229Y-14813984D02*
X7039229Y-14613984D01*
X7039229Y-14613984D02*
X7105896Y-14756841D01*
X7105896Y-14756841D02*
X7172562Y-14613984D01*
X7172562Y-14613984D02*
X7172562Y-14813984D01*
X7353515Y-14813984D02*
X7353515Y-14709222D01*
X7353515Y-14709222D02*
X7343991Y-14690174D01*
X7343991Y-14690174D02*
X7324943Y-14680650D01*
X7324943Y-14680650D02*
X7286848Y-14680650D01*
X7286848Y-14680650D02*
X7267801Y-14690174D01*
X7353515Y-14804460D02*
X7334467Y-14813984D01*
X7334467Y-14813984D02*
X7286848Y-14813984D01*
X7286848Y-14813984D02*
X7267801Y-14804460D01*
X7267801Y-14804460D02*
X7258277Y-14785412D01*
X7258277Y-14785412D02*
X7258277Y-14766365D01*
X7258277Y-14766365D02*
X7267801Y-14747317D01*
X7267801Y-14747317D02*
X7286848Y-14737793D01*
X7286848Y-14737793D02*
X7334467Y-14737793D01*
X7334467Y-14737793D02*
X7353515Y-14728269D01*
X7448753Y-14680650D02*
X7448753Y-14880650D01*
X7448753Y-14690174D02*
X7467801Y-14680650D01*
X7467801Y-14680650D02*
X7505896Y-14680650D01*
X7505896Y-14680650D02*
X7524943Y-14690174D01*
X7524943Y-14690174D02*
X7534467Y-14699698D01*
X7534467Y-14699698D02*
X7543991Y-14718746D01*
X7543991Y-14718746D02*
X7543991Y-14775888D01*
X7543991Y-14775888D02*
X7534467Y-14794936D01*
X7534467Y-14794936D02*
X7524943Y-14804460D01*
X7524943Y-14804460D02*
X7505896Y-14813984D01*
X7505896Y-14813984D02*
X7467801Y-14813984D01*
X7467801Y-14813984D02*
X7448753Y-14804460D01*
X7629705Y-14794936D02*
X7639229Y-14804460D01*
X7639229Y-14804460D02*
X7629705Y-14813984D01*
X7629705Y-14813984D02*
X7620182Y-14804460D01*
X7620182Y-14804460D02*
X7629705Y-14794936D01*
X7629705Y-14794936D02*
X7629705Y-14813984D01*
X7629705Y-14690174D02*
X7639229Y-14699698D01*
X7639229Y-14699698D02*
X7629705Y-14709222D01*
X7629705Y-14709222D02*
X7620182Y-14699698D01*
X7620182Y-14699698D02*
X7629705Y-14690174D01*
X7629705Y-14690174D02*
X7629705Y-14709222D01*
D12*
X5967500Y-15127500D02*
X5997500Y-15157500D01*
X5997500Y-15127500D02*
X5967500Y-15157500D01*
D11*
X6296372Y-15033984D02*
X6315420Y-15033984D01*
X6315420Y-15033984D02*
X6334467Y-15043508D01*
X6334467Y-15043508D02*
X6343991Y-15053031D01*
X6343991Y-15053031D02*
X6353515Y-15072079D01*
X6353515Y-15072079D02*
X6363039Y-15110174D01*
X6363039Y-15110174D02*
X6363039Y-15157793D01*
X6363039Y-15157793D02*
X6353515Y-15195888D01*
X6353515Y-15195888D02*
X6343991Y-15214936D01*
X6343991Y-15214936D02*
X6334467Y-15224460D01*
X6334467Y-15224460D02*
X6315420Y-15233984D01*
X6315420Y-15233984D02*
X6296372Y-15233984D01*
X6296372Y-15233984D02*
X6277324Y-15224460D01*
X6277324Y-15224460D02*
X6267801Y-15214936D01*
X6267801Y-15214936D02*
X6258277Y-15195888D01*
X6258277Y-15195888D02*
X6248753Y-15157793D01*
X6248753Y-15157793D02*
X6248753Y-15110174D01*
X6248753Y-15110174D02*
X6258277Y-15072079D01*
X6258277Y-15072079D02*
X6267801Y-15053031D01*
X6267801Y-15053031D02*
X6277324Y-15043508D01*
X6277324Y-15043508D02*
X6296372Y-15033984D01*
X6448753Y-15214936D02*
X6458277Y-15224460D01*
X6458277Y-15224460D02*
X6448753Y-15233984D01*
X6448753Y-15233984D02*
X6439229Y-15224460D01*
X6439229Y-15224460D02*
X6448753Y-15214936D01*
X6448753Y-15214936D02*
X6448753Y-15233984D01*
X6524943Y-15033984D02*
X6648753Y-15033984D01*
X6648753Y-15033984D02*
X6582086Y-15110174D01*
X6582086Y-15110174D02*
X6610658Y-15110174D01*
X6610658Y-15110174D02*
X6629705Y-15119698D01*
X6629705Y-15119698D02*
X6639229Y-15129222D01*
X6639229Y-15129222D02*
X6648753Y-15148269D01*
X6648753Y-15148269D02*
X6648753Y-15195888D01*
X6648753Y-15195888D02*
X6639229Y-15214936D01*
X6639229Y-15214936D02*
X6629705Y-15224460D01*
X6629705Y-15224460D02*
X6610658Y-15233984D01*
X6610658Y-15233984D02*
X6553515Y-15233984D01*
X6553515Y-15233984D02*
X6534467Y-15224460D01*
X6534467Y-15224460D02*
X6524943Y-15214936D01*
X6772562Y-15033984D02*
X6791610Y-15033984D01*
X6791610Y-15033984D02*
X6810658Y-15043508D01*
X6810658Y-15043508D02*
X6820182Y-15053031D01*
X6820182Y-15053031D02*
X6829705Y-15072079D01*
X6829705Y-15072079D02*
X6839229Y-15110174D01*
X6839229Y-15110174D02*
X6839229Y-15157793D01*
X6839229Y-15157793D02*
X6829705Y-15195888D01*
X6829705Y-15195888D02*
X6820182Y-15214936D01*
X6820182Y-15214936D02*
X6810658Y-15224460D01*
X6810658Y-15224460D02*
X6791610Y-15233984D01*
X6791610Y-15233984D02*
X6772562Y-15233984D01*
X6772562Y-15233984D02*
X6753515Y-15224460D01*
X6753515Y-15224460D02*
X6743991Y-15214936D01*
X6743991Y-15214936D02*
X6734467Y-15195888D01*
X6734467Y-15195888D02*
X6724943Y-15157793D01*
X6724943Y-15157793D02*
X6724943Y-15110174D01*
X6724943Y-15110174D02*
X6734467Y-15072079D01*
X6734467Y-15072079D02*
X6743991Y-15053031D01*
X6743991Y-15053031D02*
X6753515Y-15043508D01*
X6753515Y-15043508D02*
X6772562Y-15033984D01*
X6963039Y-15033984D02*
X6982086Y-15033984D01*
X6982086Y-15033984D02*
X7001134Y-15043508D01*
X7001134Y-15043508D02*
X7010658Y-15053031D01*
X7010658Y-15053031D02*
X7020182Y-15072079D01*
X7020182Y-15072079D02*
X7029705Y-15110174D01*
X7029705Y-15110174D02*
X7029705Y-15157793D01*
X7029705Y-15157793D02*
X7020182Y-15195888D01*
X7020182Y-15195888D02*
X7010658Y-15214936D01*
X7010658Y-15214936D02*
X7001134Y-15224460D01*
X7001134Y-15224460D02*
X6982086Y-15233984D01*
X6982086Y-15233984D02*
X6963039Y-15233984D01*
X6963039Y-15233984D02*
X6943991Y-15224460D01*
X6943991Y-15224460D02*
X6934467Y-15214936D01*
X6934467Y-15214936D02*
X6924943Y-15195888D01*
X6924943Y-15195888D02*
X6915420Y-15157793D01*
X6915420Y-15157793D02*
X6915420Y-15110174D01*
X6915420Y-15110174D02*
X6924943Y-15072079D01*
X6924943Y-15072079D02*
X6934467Y-15053031D01*
X6934467Y-15053031D02*
X6943991Y-15043508D01*
X6943991Y-15043508D02*
X6963039Y-15033984D01*
X7115420Y-15233984D02*
X7115420Y-15100650D01*
X7115420Y-15119698D02*
X7124943Y-15110174D01*
X7124943Y-15110174D02*
X7143991Y-15100650D01*
X7143991Y-15100650D02*
X7172563Y-15100650D01*
X7172563Y-15100650D02*
X7191610Y-15110174D01*
X7191610Y-15110174D02*
X7201134Y-15129222D01*
X7201134Y-15129222D02*
X7201134Y-15233984D01*
X7201134Y-15129222D02*
X7210658Y-15110174D01*
X7210658Y-15110174D02*
X7229705Y-15100650D01*
X7229705Y-15100650D02*
X7258277Y-15100650D01*
X7258277Y-15100650D02*
X7277324Y-15110174D01*
X7277324Y-15110174D02*
X7286848Y-15129222D01*
X7286848Y-15129222D02*
X7286848Y-15233984D01*
X7382086Y-15233984D02*
X7382086Y-15100650D01*
X7382086Y-15119698D02*
X7391610Y-15110174D01*
X7391610Y-15110174D02*
X7410658Y-15100650D01*
X7410658Y-15100650D02*
X7439229Y-15100650D01*
X7439229Y-15100650D02*
X7458277Y-15110174D01*
X7458277Y-15110174D02*
X7467801Y-15129222D01*
X7467801Y-15129222D02*
X7467801Y-15233984D01*
X7467801Y-15129222D02*
X7477324Y-15110174D01*
X7477324Y-15110174D02*
X7496372Y-15100650D01*
X7496372Y-15100650D02*
X7524943Y-15100650D01*
X7524943Y-15100650D02*
X7543991Y-15110174D01*
X7543991Y-15110174D02*
X7553515Y-15129222D01*
X7553515Y-15129222D02*
X7553515Y-15233984D01*
X7943991Y-15024460D02*
X7772563Y-15281603D01*
X8201134Y-15033984D02*
X8220182Y-15033984D01*
X8220182Y-15033984D02*
X8239229Y-15043508D01*
X8239229Y-15043508D02*
X8248753Y-15053031D01*
X8248753Y-15053031D02*
X8258277Y-15072079D01*
X8258277Y-15072079D02*
X8267801Y-15110174D01*
X8267801Y-15110174D02*
X8267801Y-15157793D01*
X8267801Y-15157793D02*
X8258277Y-15195888D01*
X8258277Y-15195888D02*
X8248753Y-15214936D01*
X8248753Y-15214936D02*
X8239229Y-15224460D01*
X8239229Y-15224460D02*
X8220182Y-15233984D01*
X8220182Y-15233984D02*
X8201134Y-15233984D01*
X8201134Y-15233984D02*
X8182086Y-15224460D01*
X8182086Y-15224460D02*
X8172563Y-15214936D01*
X8172563Y-15214936D02*
X8163039Y-15195888D01*
X8163039Y-15195888D02*
X8153515Y-15157793D01*
X8153515Y-15157793D02*
X8153515Y-15110174D01*
X8153515Y-15110174D02*
X8163039Y-15072079D01*
X8163039Y-15072079D02*
X8172563Y-15053031D01*
X8172563Y-15053031D02*
X8182086Y-15043508D01*
X8182086Y-15043508D02*
X8201134Y-15033984D01*
X8353515Y-15214936D02*
X8363039Y-15224460D01*
X8363039Y-15224460D02*
X8353515Y-15233984D01*
X8353515Y-15233984D02*
X8343991Y-15224460D01*
X8343991Y-15224460D02*
X8353515Y-15214936D01*
X8353515Y-15214936D02*
X8353515Y-15233984D01*
X8486848Y-15033984D02*
X8505896Y-15033984D01*
X8505896Y-15033984D02*
X8524944Y-15043508D01*
X8524944Y-15043508D02*
X8534468Y-15053031D01*
X8534468Y-15053031D02*
X8543991Y-15072079D01*
X8543991Y-15072079D02*
X8553515Y-15110174D01*
X8553515Y-15110174D02*
X8553515Y-15157793D01*
X8553515Y-15157793D02*
X8543991Y-15195888D01*
X8543991Y-15195888D02*
X8534468Y-15214936D01*
X8534468Y-15214936D02*
X8524944Y-15224460D01*
X8524944Y-15224460D02*
X8505896Y-15233984D01*
X8505896Y-15233984D02*
X8486848Y-15233984D01*
X8486848Y-15233984D02*
X8467801Y-15224460D01*
X8467801Y-15224460D02*
X8458277Y-15214936D01*
X8458277Y-15214936D02*
X8448753Y-15195888D01*
X8448753Y-15195888D02*
X8439229Y-15157793D01*
X8439229Y-15157793D02*
X8439229Y-15110174D01*
X8439229Y-15110174D02*
X8448753Y-15072079D01*
X8448753Y-15072079D02*
X8458277Y-15053031D01*
X8458277Y-15053031D02*
X8467801Y-15043508D01*
X8467801Y-15043508D02*
X8486848Y-15033984D01*
X8743991Y-15233984D02*
X8629706Y-15233984D01*
X8686848Y-15233984D02*
X8686848Y-15033984D01*
X8686848Y-15033984D02*
X8667801Y-15062555D01*
X8667801Y-15062555D02*
X8648753Y-15081603D01*
X8648753Y-15081603D02*
X8629706Y-15091127D01*
X8934468Y-15233984D02*
X8820182Y-15233984D01*
X8877325Y-15233984D02*
X8877325Y-15033984D01*
X8877325Y-15033984D02*
X8858277Y-15062555D01*
X8858277Y-15062555D02*
X8839229Y-15081603D01*
X8839229Y-15081603D02*
X8820182Y-15091127D01*
X9048753Y-15119698D02*
X9029706Y-15110174D01*
X9029706Y-15110174D02*
X9020182Y-15100650D01*
X9020182Y-15100650D02*
X9010658Y-15081603D01*
X9010658Y-15081603D02*
X9010658Y-15072079D01*
X9010658Y-15072079D02*
X9020182Y-15053031D01*
X9020182Y-15053031D02*
X9029706Y-15043508D01*
X9029706Y-15043508D02*
X9048753Y-15033984D01*
X9048753Y-15033984D02*
X9086849Y-15033984D01*
X9086849Y-15033984D02*
X9105896Y-15043508D01*
X9105896Y-15043508D02*
X9115420Y-15053031D01*
X9115420Y-15053031D02*
X9124944Y-15072079D01*
X9124944Y-15072079D02*
X9124944Y-15081603D01*
X9124944Y-15081603D02*
X9115420Y-15100650D01*
X9115420Y-15100650D02*
X9105896Y-15110174D01*
X9105896Y-15110174D02*
X9086849Y-15119698D01*
X9086849Y-15119698D02*
X9048753Y-15119698D01*
X9048753Y-15119698D02*
X9029706Y-15129222D01*
X9029706Y-15129222D02*
X9020182Y-15138746D01*
X9020182Y-15138746D02*
X9010658Y-15157793D01*
X9010658Y-15157793D02*
X9010658Y-15195888D01*
X9010658Y-15195888D02*
X9020182Y-15214936D01*
X9020182Y-15214936D02*
X9029706Y-15224460D01*
X9029706Y-15224460D02*
X9048753Y-15233984D01*
X9048753Y-15233984D02*
X9086849Y-15233984D01*
X9086849Y-15233984D02*
X9105896Y-15224460D01*
X9105896Y-15224460D02*
X9115420Y-15214936D01*
X9115420Y-15214936D02*
X9124944Y-15195888D01*
X9124944Y-15195888D02*
X9124944Y-15157793D01*
X9124944Y-15157793D02*
X9115420Y-15138746D01*
X9115420Y-15138746D02*
X9105896Y-15129222D01*
X9105896Y-15129222D02*
X9086849Y-15119698D01*
X9201134Y-15033984D02*
X9201134Y-15072079D01*
X9277325Y-15033984D02*
X9277325Y-15072079D01*
X9572563Y-15310174D02*
X9563039Y-15300650D01*
X9563039Y-15300650D02*
X9543991Y-15272079D01*
X9543991Y-15272079D02*
X9534468Y-15253031D01*
X9534468Y-15253031D02*
X9524944Y-15224460D01*
X9524944Y-15224460D02*
X9515420Y-15176841D01*
X9515420Y-15176841D02*
X9515420Y-15138746D01*
X9515420Y-15138746D02*
X9524944Y-15091127D01*
X9524944Y-15091127D02*
X9534468Y-15062555D01*
X9534468Y-15062555D02*
X9543991Y-15043508D01*
X9543991Y-15043508D02*
X9563039Y-15014936D01*
X9563039Y-15014936D02*
X9572563Y-15005412D01*
X9753515Y-15233984D02*
X9639230Y-15233984D01*
X9696372Y-15233984D02*
X9696372Y-15033984D01*
X9696372Y-15033984D02*
X9677325Y-15062555D01*
X9677325Y-15062555D02*
X9658277Y-15081603D01*
X9658277Y-15081603D02*
X9639230Y-15091127D01*
X9943991Y-15233984D02*
X9829706Y-15233984D01*
X9886849Y-15233984D02*
X9886849Y-15033984D01*
X9886849Y-15033984D02*
X9867801Y-15062555D01*
X9867801Y-15062555D02*
X9848753Y-15081603D01*
X9848753Y-15081603D02*
X9829706Y-15091127D01*
X10039230Y-15233984D02*
X10077325Y-15233984D01*
X10077325Y-15233984D02*
X10096372Y-15224460D01*
X10096372Y-15224460D02*
X10105896Y-15214936D01*
X10105896Y-15214936D02*
X10124944Y-15186365D01*
X10124944Y-15186365D02*
X10134468Y-15148269D01*
X10134468Y-15148269D02*
X10134468Y-15072079D01*
X10134468Y-15072079D02*
X10124944Y-15053031D01*
X10124944Y-15053031D02*
X10115420Y-15043508D01*
X10115420Y-15043508D02*
X10096372Y-15033984D01*
X10096372Y-15033984D02*
X10058277Y-15033984D01*
X10058277Y-15033984D02*
X10039230Y-15043508D01*
X10039230Y-15043508D02*
X10029706Y-15053031D01*
X10029706Y-15053031D02*
X10020182Y-15072079D01*
X10020182Y-15072079D02*
X10020182Y-15119698D01*
X10020182Y-15119698D02*
X10029706Y-15138746D01*
X10029706Y-15138746D02*
X10039230Y-15148269D01*
X10039230Y-15148269D02*
X10058277Y-15157793D01*
X10058277Y-15157793D02*
X10096372Y-15157793D01*
X10096372Y-15157793D02*
X10115420Y-15148269D01*
X10115420Y-15148269D02*
X10124944Y-15138746D01*
X10124944Y-15138746D02*
X10134468Y-15119698D01*
X10372563Y-15233984D02*
X10372563Y-15033984D01*
X10458277Y-15233984D02*
X10458277Y-15129222D01*
X10458277Y-15129222D02*
X10448753Y-15110174D01*
X10448753Y-15110174D02*
X10429706Y-15100650D01*
X10429706Y-15100650D02*
X10401134Y-15100650D01*
X10401134Y-15100650D02*
X10382087Y-15110174D01*
X10382087Y-15110174D02*
X10372563Y-15119698D01*
X10582087Y-15233984D02*
X10563039Y-15224460D01*
X10563039Y-15224460D02*
X10553515Y-15214936D01*
X10553515Y-15214936D02*
X10543992Y-15195888D01*
X10543992Y-15195888D02*
X10543992Y-15138746D01*
X10543992Y-15138746D02*
X10553515Y-15119698D01*
X10553515Y-15119698D02*
X10563039Y-15110174D01*
X10563039Y-15110174D02*
X10582087Y-15100650D01*
X10582087Y-15100650D02*
X10610658Y-15100650D01*
X10610658Y-15100650D02*
X10629706Y-15110174D01*
X10629706Y-15110174D02*
X10639230Y-15119698D01*
X10639230Y-15119698D02*
X10648753Y-15138746D01*
X10648753Y-15138746D02*
X10648753Y-15195888D01*
X10648753Y-15195888D02*
X10639230Y-15214936D01*
X10639230Y-15214936D02*
X10629706Y-15224460D01*
X10629706Y-15224460D02*
X10610658Y-15233984D01*
X10610658Y-15233984D02*
X10582087Y-15233984D01*
X10763039Y-15233984D02*
X10743992Y-15224460D01*
X10743992Y-15224460D02*
X10734468Y-15205412D01*
X10734468Y-15205412D02*
X10734468Y-15033984D01*
X10915420Y-15224460D02*
X10896373Y-15233984D01*
X10896373Y-15233984D02*
X10858277Y-15233984D01*
X10858277Y-15233984D02*
X10839230Y-15224460D01*
X10839230Y-15224460D02*
X10829706Y-15205412D01*
X10829706Y-15205412D02*
X10829706Y-15129222D01*
X10829706Y-15129222D02*
X10839230Y-15110174D01*
X10839230Y-15110174D02*
X10858277Y-15100650D01*
X10858277Y-15100650D02*
X10896373Y-15100650D01*
X10896373Y-15100650D02*
X10915420Y-15110174D01*
X10915420Y-15110174D02*
X10924944Y-15129222D01*
X10924944Y-15129222D02*
X10924944Y-15148269D01*
X10924944Y-15148269D02*
X10829706Y-15167317D01*
X11001134Y-15224460D02*
X11020182Y-15233984D01*
X11020182Y-15233984D02*
X11058277Y-15233984D01*
X11058277Y-15233984D02*
X11077325Y-15224460D01*
X11077325Y-15224460D02*
X11086849Y-15205412D01*
X11086849Y-15205412D02*
X11086849Y-15195888D01*
X11086849Y-15195888D02*
X11077325Y-15176841D01*
X11077325Y-15176841D02*
X11058277Y-15167317D01*
X11058277Y-15167317D02*
X11029706Y-15167317D01*
X11029706Y-15167317D02*
X11010658Y-15157793D01*
X11010658Y-15157793D02*
X11001134Y-15138746D01*
X11001134Y-15138746D02*
X11001134Y-15129222D01*
X11001134Y-15129222D02*
X11010658Y-15110174D01*
X11010658Y-15110174D02*
X11029706Y-15100650D01*
X11029706Y-15100650D02*
X11058277Y-15100650D01*
X11058277Y-15100650D02*
X11077325Y-15110174D01*
X11153515Y-15310174D02*
X11163039Y-15300650D01*
X11163039Y-15300650D02*
X11182087Y-15272079D01*
X11182087Y-15272079D02*
X11191611Y-15253031D01*
X11191611Y-15253031D02*
X11201134Y-15224460D01*
X11201134Y-15224460D02*
X11210658Y-15176841D01*
X11210658Y-15176841D02*
X11210658Y-15138746D01*
X11210658Y-15138746D02*
X11201134Y-15091127D01*
X11201134Y-15091127D02*
X11191611Y-15062555D01*
X11191611Y-15062555D02*
X11182087Y-15043508D01*
X11182087Y-15043508D02*
X11163039Y-15014936D01*
X11163039Y-15014936D02*
X11153515Y-15005412D01*
D12*
X5997500Y-15406500D02*
G75*
G02*
X5957500Y-15406500I-20000J0D01*
G01*
X5957500Y-15406500D02*
G75*
G02*
X5997500Y-15406500I20000J0D01*
G01*
D11*
X6296372Y-15297984D02*
X6315420Y-15297984D01*
X6315420Y-15297984D02*
X6334467Y-15307508D01*
X6334467Y-15307508D02*
X6343991Y-15317031D01*
X6343991Y-15317031D02*
X6353515Y-15336079D01*
X6353515Y-15336079D02*
X6363039Y-15374174D01*
X6363039Y-15374174D02*
X6363039Y-15421793D01*
X6363039Y-15421793D02*
X6353515Y-15459888D01*
X6353515Y-15459888D02*
X6343991Y-15478936D01*
X6343991Y-15478936D02*
X6334467Y-15488460D01*
X6334467Y-15488460D02*
X6315420Y-15497984D01*
X6315420Y-15497984D02*
X6296372Y-15497984D01*
X6296372Y-15497984D02*
X6277324Y-15488460D01*
X6277324Y-15488460D02*
X6267801Y-15478936D01*
X6267801Y-15478936D02*
X6258277Y-15459888D01*
X6258277Y-15459888D02*
X6248753Y-15421793D01*
X6248753Y-15421793D02*
X6248753Y-15374174D01*
X6248753Y-15374174D02*
X6258277Y-15336079D01*
X6258277Y-15336079D02*
X6267801Y-15317031D01*
X6267801Y-15317031D02*
X6277324Y-15307508D01*
X6277324Y-15307508D02*
X6296372Y-15297984D01*
X6448753Y-15478936D02*
X6458277Y-15488460D01*
X6458277Y-15488460D02*
X6448753Y-15497984D01*
X6448753Y-15497984D02*
X6439229Y-15488460D01*
X6439229Y-15488460D02*
X6448753Y-15478936D01*
X6448753Y-15478936D02*
X6448753Y-15497984D01*
X6629705Y-15364650D02*
X6629705Y-15497984D01*
X6582086Y-15288460D02*
X6534467Y-15431317D01*
X6534467Y-15431317D02*
X6658277Y-15431317D01*
X6772562Y-15297984D02*
X6791610Y-15297984D01*
X6791610Y-15297984D02*
X6810658Y-15307508D01*
X6810658Y-15307508D02*
X6820182Y-15317031D01*
X6820182Y-15317031D02*
X6829705Y-15336079D01*
X6829705Y-15336079D02*
X6839229Y-15374174D01*
X6839229Y-15374174D02*
X6839229Y-15421793D01*
X6839229Y-15421793D02*
X6829705Y-15459888D01*
X6829705Y-15459888D02*
X6820182Y-15478936D01*
X6820182Y-15478936D02*
X6810658Y-15488460D01*
X6810658Y-15488460D02*
X6791610Y-15497984D01*
X6791610Y-15497984D02*
X6772562Y-15497984D01*
X6772562Y-15497984D02*
X6753515Y-15488460D01*
X6753515Y-15488460D02*
X6743991Y-15478936D01*
X6743991Y-15478936D02*
X6734467Y-15459888D01*
X6734467Y-15459888D02*
X6724943Y-15421793D01*
X6724943Y-15421793D02*
X6724943Y-15374174D01*
X6724943Y-15374174D02*
X6734467Y-15336079D01*
X6734467Y-15336079D02*
X6743991Y-15317031D01*
X6743991Y-15317031D02*
X6753515Y-15307508D01*
X6753515Y-15307508D02*
X6772562Y-15297984D01*
X6963039Y-15297984D02*
X6982086Y-15297984D01*
X6982086Y-15297984D02*
X7001134Y-15307508D01*
X7001134Y-15307508D02*
X7010658Y-15317031D01*
X7010658Y-15317031D02*
X7020182Y-15336079D01*
X7020182Y-15336079D02*
X7029705Y-15374174D01*
X7029705Y-15374174D02*
X7029705Y-15421793D01*
X7029705Y-15421793D02*
X7020182Y-15459888D01*
X7020182Y-15459888D02*
X7010658Y-15478936D01*
X7010658Y-15478936D02*
X7001134Y-15488460D01*
X7001134Y-15488460D02*
X6982086Y-15497984D01*
X6982086Y-15497984D02*
X6963039Y-15497984D01*
X6963039Y-15497984D02*
X6943991Y-15488460D01*
X6943991Y-15488460D02*
X6934467Y-15478936D01*
X6934467Y-15478936D02*
X6924943Y-15459888D01*
X6924943Y-15459888D02*
X6915420Y-15421793D01*
X6915420Y-15421793D02*
X6915420Y-15374174D01*
X6915420Y-15374174D02*
X6924943Y-15336079D01*
X6924943Y-15336079D02*
X6934467Y-15317031D01*
X6934467Y-15317031D02*
X6943991Y-15307508D01*
X6943991Y-15307508D02*
X6963039Y-15297984D01*
X7115420Y-15497984D02*
X7115420Y-15364650D01*
X7115420Y-15383698D02*
X7124943Y-15374174D01*
X7124943Y-15374174D02*
X7143991Y-15364650D01*
X7143991Y-15364650D02*
X7172563Y-15364650D01*
X7172563Y-15364650D02*
X7191610Y-15374174D01*
X7191610Y-15374174D02*
X7201134Y-15393222D01*
X7201134Y-15393222D02*
X7201134Y-15497984D01*
X7201134Y-15393222D02*
X7210658Y-15374174D01*
X7210658Y-15374174D02*
X7229705Y-15364650D01*
X7229705Y-15364650D02*
X7258277Y-15364650D01*
X7258277Y-15364650D02*
X7277324Y-15374174D01*
X7277324Y-15374174D02*
X7286848Y-15393222D01*
X7286848Y-15393222D02*
X7286848Y-15497984D01*
X7382086Y-15497984D02*
X7382086Y-15364650D01*
X7382086Y-15383698D02*
X7391610Y-15374174D01*
X7391610Y-15374174D02*
X7410658Y-15364650D01*
X7410658Y-15364650D02*
X7439229Y-15364650D01*
X7439229Y-15364650D02*
X7458277Y-15374174D01*
X7458277Y-15374174D02*
X7467801Y-15393222D01*
X7467801Y-15393222D02*
X7467801Y-15497984D01*
X7467801Y-15393222D02*
X7477324Y-15374174D01*
X7477324Y-15374174D02*
X7496372Y-15364650D01*
X7496372Y-15364650D02*
X7524943Y-15364650D01*
X7524943Y-15364650D02*
X7543991Y-15374174D01*
X7543991Y-15374174D02*
X7553515Y-15393222D01*
X7553515Y-15393222D02*
X7553515Y-15497984D01*
X7943991Y-15288460D02*
X7772563Y-15545603D01*
X8201134Y-15297984D02*
X8220182Y-15297984D01*
X8220182Y-15297984D02*
X8239229Y-15307508D01*
X8239229Y-15307508D02*
X8248753Y-15317031D01*
X8248753Y-15317031D02*
X8258277Y-15336079D01*
X8258277Y-15336079D02*
X8267801Y-15374174D01*
X8267801Y-15374174D02*
X8267801Y-15421793D01*
X8267801Y-15421793D02*
X8258277Y-15459888D01*
X8258277Y-15459888D02*
X8248753Y-15478936D01*
X8248753Y-15478936D02*
X8239229Y-15488460D01*
X8239229Y-15488460D02*
X8220182Y-15497984D01*
X8220182Y-15497984D02*
X8201134Y-15497984D01*
X8201134Y-15497984D02*
X8182086Y-15488460D01*
X8182086Y-15488460D02*
X8172563Y-15478936D01*
X8172563Y-15478936D02*
X8163039Y-15459888D01*
X8163039Y-15459888D02*
X8153515Y-15421793D01*
X8153515Y-15421793D02*
X8153515Y-15374174D01*
X8153515Y-15374174D02*
X8163039Y-15336079D01*
X8163039Y-15336079D02*
X8172563Y-15317031D01*
X8172563Y-15317031D02*
X8182086Y-15307508D01*
X8182086Y-15307508D02*
X8201134Y-15297984D01*
X8353515Y-15478936D02*
X8363039Y-15488460D01*
X8363039Y-15488460D02*
X8353515Y-15497984D01*
X8353515Y-15497984D02*
X8343991Y-15488460D01*
X8343991Y-15488460D02*
X8353515Y-15478936D01*
X8353515Y-15478936D02*
X8353515Y-15497984D01*
X8486848Y-15297984D02*
X8505896Y-15297984D01*
X8505896Y-15297984D02*
X8524944Y-15307508D01*
X8524944Y-15307508D02*
X8534468Y-15317031D01*
X8534468Y-15317031D02*
X8543991Y-15336079D01*
X8543991Y-15336079D02*
X8553515Y-15374174D01*
X8553515Y-15374174D02*
X8553515Y-15421793D01*
X8553515Y-15421793D02*
X8543991Y-15459888D01*
X8543991Y-15459888D02*
X8534468Y-15478936D01*
X8534468Y-15478936D02*
X8524944Y-15488460D01*
X8524944Y-15488460D02*
X8505896Y-15497984D01*
X8505896Y-15497984D02*
X8486848Y-15497984D01*
X8486848Y-15497984D02*
X8467801Y-15488460D01*
X8467801Y-15488460D02*
X8458277Y-15478936D01*
X8458277Y-15478936D02*
X8448753Y-15459888D01*
X8448753Y-15459888D02*
X8439229Y-15421793D01*
X8439229Y-15421793D02*
X8439229Y-15374174D01*
X8439229Y-15374174D02*
X8448753Y-15336079D01*
X8448753Y-15336079D02*
X8458277Y-15317031D01*
X8458277Y-15317031D02*
X8467801Y-15307508D01*
X8467801Y-15307508D02*
X8486848Y-15297984D01*
X8743991Y-15497984D02*
X8629706Y-15497984D01*
X8686848Y-15497984D02*
X8686848Y-15297984D01*
X8686848Y-15297984D02*
X8667801Y-15326555D01*
X8667801Y-15326555D02*
X8648753Y-15345603D01*
X8648753Y-15345603D02*
X8629706Y-15355127D01*
X8924944Y-15297984D02*
X8829706Y-15297984D01*
X8829706Y-15297984D02*
X8820182Y-15393222D01*
X8820182Y-15393222D02*
X8829706Y-15383698D01*
X8829706Y-15383698D02*
X8848753Y-15374174D01*
X8848753Y-15374174D02*
X8896372Y-15374174D01*
X8896372Y-15374174D02*
X8915420Y-15383698D01*
X8915420Y-15383698D02*
X8924944Y-15393222D01*
X8924944Y-15393222D02*
X8934468Y-15412269D01*
X8934468Y-15412269D02*
X8934468Y-15459888D01*
X8934468Y-15459888D02*
X8924944Y-15478936D01*
X8924944Y-15478936D02*
X8915420Y-15488460D01*
X8915420Y-15488460D02*
X8896372Y-15497984D01*
X8896372Y-15497984D02*
X8848753Y-15497984D01*
X8848753Y-15497984D02*
X8829706Y-15488460D01*
X8829706Y-15488460D02*
X8820182Y-15478936D01*
X9001134Y-15297984D02*
X9134468Y-15297984D01*
X9134468Y-15297984D02*
X9048753Y-15497984D01*
X9201134Y-15297984D02*
X9201134Y-15336079D01*
X9277325Y-15297984D02*
X9277325Y-15336079D01*
X9572563Y-15574174D02*
X9563039Y-15564650D01*
X9563039Y-15564650D02*
X9543991Y-15536079D01*
X9543991Y-15536079D02*
X9534468Y-15517031D01*
X9534468Y-15517031D02*
X9524944Y-15488460D01*
X9524944Y-15488460D02*
X9515420Y-15440841D01*
X9515420Y-15440841D02*
X9515420Y-15402746D01*
X9515420Y-15402746D02*
X9524944Y-15355127D01*
X9524944Y-15355127D02*
X9534468Y-15326555D01*
X9534468Y-15326555D02*
X9543991Y-15307508D01*
X9543991Y-15307508D02*
X9563039Y-15278936D01*
X9563039Y-15278936D02*
X9572563Y-15269412D01*
X9658277Y-15497984D02*
X9696372Y-15497984D01*
X9696372Y-15497984D02*
X9715420Y-15488460D01*
X9715420Y-15488460D02*
X9724944Y-15478936D01*
X9724944Y-15478936D02*
X9743991Y-15450365D01*
X9743991Y-15450365D02*
X9753515Y-15412269D01*
X9753515Y-15412269D02*
X9753515Y-15336079D01*
X9753515Y-15336079D02*
X9743991Y-15317031D01*
X9743991Y-15317031D02*
X9734468Y-15307508D01*
X9734468Y-15307508D02*
X9715420Y-15297984D01*
X9715420Y-15297984D02*
X9677325Y-15297984D01*
X9677325Y-15297984D02*
X9658277Y-15307508D01*
X9658277Y-15307508D02*
X9648753Y-15317031D01*
X9648753Y-15317031D02*
X9639230Y-15336079D01*
X9639230Y-15336079D02*
X9639230Y-15383698D01*
X9639230Y-15383698D02*
X9648753Y-15402746D01*
X9648753Y-15402746D02*
X9658277Y-15412269D01*
X9658277Y-15412269D02*
X9677325Y-15421793D01*
X9677325Y-15421793D02*
X9715420Y-15421793D01*
X9715420Y-15421793D02*
X9734468Y-15412269D01*
X9734468Y-15412269D02*
X9743991Y-15402746D01*
X9743991Y-15402746D02*
X9753515Y-15383698D01*
X9829706Y-15317031D02*
X9839230Y-15307508D01*
X9839230Y-15307508D02*
X9858277Y-15297984D01*
X9858277Y-15297984D02*
X9905896Y-15297984D01*
X9905896Y-15297984D02*
X9924944Y-15307508D01*
X9924944Y-15307508D02*
X9934468Y-15317031D01*
X9934468Y-15317031D02*
X9943991Y-15336079D01*
X9943991Y-15336079D02*
X9943991Y-15355127D01*
X9943991Y-15355127D02*
X9934468Y-15383698D01*
X9934468Y-15383698D02*
X9820182Y-15497984D01*
X9820182Y-15497984D02*
X9943991Y-15497984D01*
X10182087Y-15497984D02*
X10182087Y-15297984D01*
X10267801Y-15497984D02*
X10267801Y-15393222D01*
X10267801Y-15393222D02*
X10258277Y-15374174D01*
X10258277Y-15374174D02*
X10239230Y-15364650D01*
X10239230Y-15364650D02*
X10210658Y-15364650D01*
X10210658Y-15364650D02*
X10191611Y-15374174D01*
X10191611Y-15374174D02*
X10182087Y-15383698D01*
X10391611Y-15497984D02*
X10372563Y-15488460D01*
X10372563Y-15488460D02*
X10363039Y-15478936D01*
X10363039Y-15478936D02*
X10353515Y-15459888D01*
X10353515Y-15459888D02*
X10353515Y-15402746D01*
X10353515Y-15402746D02*
X10363039Y-15383698D01*
X10363039Y-15383698D02*
X10372563Y-15374174D01*
X10372563Y-15374174D02*
X10391611Y-15364650D01*
X10391611Y-15364650D02*
X10420182Y-15364650D01*
X10420182Y-15364650D02*
X10439230Y-15374174D01*
X10439230Y-15374174D02*
X10448753Y-15383698D01*
X10448753Y-15383698D02*
X10458277Y-15402746D01*
X10458277Y-15402746D02*
X10458277Y-15459888D01*
X10458277Y-15459888D02*
X10448753Y-15478936D01*
X10448753Y-15478936D02*
X10439230Y-15488460D01*
X10439230Y-15488460D02*
X10420182Y-15497984D01*
X10420182Y-15497984D02*
X10391611Y-15497984D01*
X10572563Y-15497984D02*
X10553515Y-15488460D01*
X10553515Y-15488460D02*
X10543992Y-15469412D01*
X10543992Y-15469412D02*
X10543992Y-15297984D01*
X10724944Y-15488460D02*
X10705896Y-15497984D01*
X10705896Y-15497984D02*
X10667801Y-15497984D01*
X10667801Y-15497984D02*
X10648753Y-15488460D01*
X10648753Y-15488460D02*
X10639230Y-15469412D01*
X10639230Y-15469412D02*
X10639230Y-15393222D01*
X10639230Y-15393222D02*
X10648753Y-15374174D01*
X10648753Y-15374174D02*
X10667801Y-15364650D01*
X10667801Y-15364650D02*
X10705896Y-15364650D01*
X10705896Y-15364650D02*
X10724944Y-15374174D01*
X10724944Y-15374174D02*
X10734468Y-15393222D01*
X10734468Y-15393222D02*
X10734468Y-15412269D01*
X10734468Y-15412269D02*
X10639230Y-15431317D01*
X10810658Y-15488460D02*
X10829706Y-15497984D01*
X10829706Y-15497984D02*
X10867801Y-15497984D01*
X10867801Y-15497984D02*
X10886849Y-15488460D01*
X10886849Y-15488460D02*
X10896373Y-15469412D01*
X10896373Y-15469412D02*
X10896373Y-15459888D01*
X10896373Y-15459888D02*
X10886849Y-15440841D01*
X10886849Y-15440841D02*
X10867801Y-15431317D01*
X10867801Y-15431317D02*
X10839230Y-15431317D01*
X10839230Y-15431317D02*
X10820182Y-15421793D01*
X10820182Y-15421793D02*
X10810658Y-15402746D01*
X10810658Y-15402746D02*
X10810658Y-15393222D01*
X10810658Y-15393222D02*
X10820182Y-15374174D01*
X10820182Y-15374174D02*
X10839230Y-15364650D01*
X10839230Y-15364650D02*
X10867801Y-15364650D01*
X10867801Y-15364650D02*
X10886849Y-15374174D01*
X10963039Y-15574174D02*
X10972563Y-15564650D01*
X10972563Y-15564650D02*
X10991611Y-15536079D01*
X10991611Y-15536079D02*
X11001134Y-15517031D01*
X11001134Y-15517031D02*
X11010658Y-15488460D01*
X11010658Y-15488460D02*
X11020182Y-15440841D01*
X11020182Y-15440841D02*
X11020182Y-15402746D01*
X11020182Y-15402746D02*
X11010658Y-15355127D01*
X11010658Y-15355127D02*
X11001134Y-15326555D01*
X11001134Y-15326555D02*
X10991611Y-15307508D01*
X10991611Y-15307508D02*
X10972563Y-15278936D01*
X10972563Y-15278936D02*
X10963039Y-15269412D01*
D12*
X5967500Y-15640500D02*
X5967500Y-15700500D01*
X5937500Y-15670500D02*
X5997500Y-15670500D01*
D11*
X6296372Y-15561984D02*
X6315420Y-15561984D01*
X6315420Y-15561984D02*
X6334467Y-15571508D01*
X6334467Y-15571508D02*
X6343991Y-15581031D01*
X6343991Y-15581031D02*
X6353515Y-15600079D01*
X6353515Y-15600079D02*
X6363039Y-15638174D01*
X6363039Y-15638174D02*
X6363039Y-15685793D01*
X6363039Y-15685793D02*
X6353515Y-15723888D01*
X6353515Y-15723888D02*
X6343991Y-15742936D01*
X6343991Y-15742936D02*
X6334467Y-15752460D01*
X6334467Y-15752460D02*
X6315420Y-15761984D01*
X6315420Y-15761984D02*
X6296372Y-15761984D01*
X6296372Y-15761984D02*
X6277324Y-15752460D01*
X6277324Y-15752460D02*
X6267801Y-15742936D01*
X6267801Y-15742936D02*
X6258277Y-15723888D01*
X6258277Y-15723888D02*
X6248753Y-15685793D01*
X6248753Y-15685793D02*
X6248753Y-15638174D01*
X6248753Y-15638174D02*
X6258277Y-15600079D01*
X6258277Y-15600079D02*
X6267801Y-15581031D01*
X6267801Y-15581031D02*
X6277324Y-15571508D01*
X6277324Y-15571508D02*
X6296372Y-15561984D01*
X6448753Y-15742936D02*
X6458277Y-15752460D01*
X6458277Y-15752460D02*
X6448753Y-15761984D01*
X6448753Y-15761984D02*
X6439229Y-15752460D01*
X6439229Y-15752460D02*
X6448753Y-15742936D01*
X6448753Y-15742936D02*
X6448753Y-15761984D01*
X6629705Y-15561984D02*
X6591610Y-15561984D01*
X6591610Y-15561984D02*
X6572562Y-15571508D01*
X6572562Y-15571508D02*
X6563039Y-15581031D01*
X6563039Y-15581031D02*
X6543991Y-15609603D01*
X6543991Y-15609603D02*
X6534467Y-15647698D01*
X6534467Y-15647698D02*
X6534467Y-15723888D01*
X6534467Y-15723888D02*
X6543991Y-15742936D01*
X6543991Y-15742936D02*
X6553515Y-15752460D01*
X6553515Y-15752460D02*
X6572562Y-15761984D01*
X6572562Y-15761984D02*
X6610658Y-15761984D01*
X6610658Y-15761984D02*
X6629705Y-15752460D01*
X6629705Y-15752460D02*
X6639229Y-15742936D01*
X6639229Y-15742936D02*
X6648753Y-15723888D01*
X6648753Y-15723888D02*
X6648753Y-15676269D01*
X6648753Y-15676269D02*
X6639229Y-15657222D01*
X6639229Y-15657222D02*
X6629705Y-15647698D01*
X6629705Y-15647698D02*
X6610658Y-15638174D01*
X6610658Y-15638174D02*
X6572562Y-15638174D01*
X6572562Y-15638174D02*
X6553515Y-15647698D01*
X6553515Y-15647698D02*
X6543991Y-15657222D01*
X6543991Y-15657222D02*
X6534467Y-15676269D01*
X6772562Y-15561984D02*
X6791610Y-15561984D01*
X6791610Y-15561984D02*
X6810658Y-15571508D01*
X6810658Y-15571508D02*
X6820182Y-15581031D01*
X6820182Y-15581031D02*
X6829705Y-15600079D01*
X6829705Y-15600079D02*
X6839229Y-15638174D01*
X6839229Y-15638174D02*
X6839229Y-15685793D01*
X6839229Y-15685793D02*
X6829705Y-15723888D01*
X6829705Y-15723888D02*
X6820182Y-15742936D01*
X6820182Y-15742936D02*
X6810658Y-15752460D01*
X6810658Y-15752460D02*
X6791610Y-15761984D01*
X6791610Y-15761984D02*
X6772562Y-15761984D01*
X6772562Y-15761984D02*
X6753515Y-15752460D01*
X6753515Y-15752460D02*
X6743991Y-15742936D01*
X6743991Y-15742936D02*
X6734467Y-15723888D01*
X6734467Y-15723888D02*
X6724943Y-15685793D01*
X6724943Y-15685793D02*
X6724943Y-15638174D01*
X6724943Y-15638174D02*
X6734467Y-15600079D01*
X6734467Y-15600079D02*
X6743991Y-15581031D01*
X6743991Y-15581031D02*
X6753515Y-15571508D01*
X6753515Y-15571508D02*
X6772562Y-15561984D01*
X6963039Y-15561984D02*
X6982086Y-15561984D01*
X6982086Y-15561984D02*
X7001134Y-15571508D01*
X7001134Y-15571508D02*
X7010658Y-15581031D01*
X7010658Y-15581031D02*
X7020182Y-15600079D01*
X7020182Y-15600079D02*
X7029705Y-15638174D01*
X7029705Y-15638174D02*
X7029705Y-15685793D01*
X7029705Y-15685793D02*
X7020182Y-15723888D01*
X7020182Y-15723888D02*
X7010658Y-15742936D01*
X7010658Y-15742936D02*
X7001134Y-15752460D01*
X7001134Y-15752460D02*
X6982086Y-15761984D01*
X6982086Y-15761984D02*
X6963039Y-15761984D01*
X6963039Y-15761984D02*
X6943991Y-15752460D01*
X6943991Y-15752460D02*
X6934467Y-15742936D01*
X6934467Y-15742936D02*
X6924943Y-15723888D01*
X6924943Y-15723888D02*
X6915420Y-15685793D01*
X6915420Y-15685793D02*
X6915420Y-15638174D01*
X6915420Y-15638174D02*
X6924943Y-15600079D01*
X6924943Y-15600079D02*
X6934467Y-15581031D01*
X6934467Y-15581031D02*
X6943991Y-15571508D01*
X6943991Y-15571508D02*
X6963039Y-15561984D01*
X7115420Y-15761984D02*
X7115420Y-15628650D01*
X7115420Y-15647698D02*
X7124943Y-15638174D01*
X7124943Y-15638174D02*
X7143991Y-15628650D01*
X7143991Y-15628650D02*
X7172563Y-15628650D01*
X7172563Y-15628650D02*
X7191610Y-15638174D01*
X7191610Y-15638174D02*
X7201134Y-15657222D01*
X7201134Y-15657222D02*
X7201134Y-15761984D01*
X7201134Y-15657222D02*
X7210658Y-15638174D01*
X7210658Y-15638174D02*
X7229705Y-15628650D01*
X7229705Y-15628650D02*
X7258277Y-15628650D01*
X7258277Y-15628650D02*
X7277324Y-15638174D01*
X7277324Y-15638174D02*
X7286848Y-15657222D01*
X7286848Y-15657222D02*
X7286848Y-15761984D01*
X7382086Y-15761984D02*
X7382086Y-15628650D01*
X7382086Y-15647698D02*
X7391610Y-15638174D01*
X7391610Y-15638174D02*
X7410658Y-15628650D01*
X7410658Y-15628650D02*
X7439229Y-15628650D01*
X7439229Y-15628650D02*
X7458277Y-15638174D01*
X7458277Y-15638174D02*
X7467801Y-15657222D01*
X7467801Y-15657222D02*
X7467801Y-15761984D01*
X7467801Y-15657222D02*
X7477324Y-15638174D01*
X7477324Y-15638174D02*
X7496372Y-15628650D01*
X7496372Y-15628650D02*
X7524943Y-15628650D01*
X7524943Y-15628650D02*
X7543991Y-15638174D01*
X7543991Y-15638174D02*
X7553515Y-15657222D01*
X7553515Y-15657222D02*
X7553515Y-15761984D01*
X7943991Y-15552460D02*
X7772563Y-15809603D01*
X8201134Y-15561984D02*
X8220182Y-15561984D01*
X8220182Y-15561984D02*
X8239229Y-15571508D01*
X8239229Y-15571508D02*
X8248753Y-15581031D01*
X8248753Y-15581031D02*
X8258277Y-15600079D01*
X8258277Y-15600079D02*
X8267801Y-15638174D01*
X8267801Y-15638174D02*
X8267801Y-15685793D01*
X8267801Y-15685793D02*
X8258277Y-15723888D01*
X8258277Y-15723888D02*
X8248753Y-15742936D01*
X8248753Y-15742936D02*
X8239229Y-15752460D01*
X8239229Y-15752460D02*
X8220182Y-15761984D01*
X8220182Y-15761984D02*
X8201134Y-15761984D01*
X8201134Y-15761984D02*
X8182086Y-15752460D01*
X8182086Y-15752460D02*
X8172563Y-15742936D01*
X8172563Y-15742936D02*
X8163039Y-15723888D01*
X8163039Y-15723888D02*
X8153515Y-15685793D01*
X8153515Y-15685793D02*
X8153515Y-15638174D01*
X8153515Y-15638174D02*
X8163039Y-15600079D01*
X8163039Y-15600079D02*
X8172563Y-15581031D01*
X8172563Y-15581031D02*
X8182086Y-15571508D01*
X8182086Y-15571508D02*
X8201134Y-15561984D01*
X8353515Y-15742936D02*
X8363039Y-15752460D01*
X8363039Y-15752460D02*
X8353515Y-15761984D01*
X8353515Y-15761984D02*
X8343991Y-15752460D01*
X8343991Y-15752460D02*
X8353515Y-15742936D01*
X8353515Y-15742936D02*
X8353515Y-15761984D01*
X8486848Y-15561984D02*
X8505896Y-15561984D01*
X8505896Y-15561984D02*
X8524944Y-15571508D01*
X8524944Y-15571508D02*
X8534468Y-15581031D01*
X8534468Y-15581031D02*
X8543991Y-15600079D01*
X8543991Y-15600079D02*
X8553515Y-15638174D01*
X8553515Y-15638174D02*
X8553515Y-15685793D01*
X8553515Y-15685793D02*
X8543991Y-15723888D01*
X8543991Y-15723888D02*
X8534468Y-15742936D01*
X8534468Y-15742936D02*
X8524944Y-15752460D01*
X8524944Y-15752460D02*
X8505896Y-15761984D01*
X8505896Y-15761984D02*
X8486848Y-15761984D01*
X8486848Y-15761984D02*
X8467801Y-15752460D01*
X8467801Y-15752460D02*
X8458277Y-15742936D01*
X8458277Y-15742936D02*
X8448753Y-15723888D01*
X8448753Y-15723888D02*
X8439229Y-15685793D01*
X8439229Y-15685793D02*
X8439229Y-15638174D01*
X8439229Y-15638174D02*
X8448753Y-15600079D01*
X8448753Y-15600079D02*
X8458277Y-15581031D01*
X8458277Y-15581031D02*
X8467801Y-15571508D01*
X8467801Y-15571508D02*
X8486848Y-15561984D01*
X8629706Y-15581031D02*
X8639229Y-15571508D01*
X8639229Y-15571508D02*
X8658277Y-15561984D01*
X8658277Y-15561984D02*
X8705896Y-15561984D01*
X8705896Y-15561984D02*
X8724944Y-15571508D01*
X8724944Y-15571508D02*
X8734468Y-15581031D01*
X8734468Y-15581031D02*
X8743991Y-15600079D01*
X8743991Y-15600079D02*
X8743991Y-15619127D01*
X8743991Y-15619127D02*
X8734468Y-15647698D01*
X8734468Y-15647698D02*
X8620182Y-15761984D01*
X8620182Y-15761984D02*
X8743991Y-15761984D01*
X8810658Y-15561984D02*
X8934468Y-15561984D01*
X8934468Y-15561984D02*
X8867801Y-15638174D01*
X8867801Y-15638174D02*
X8896372Y-15638174D01*
X8896372Y-15638174D02*
X8915420Y-15647698D01*
X8915420Y-15647698D02*
X8924944Y-15657222D01*
X8924944Y-15657222D02*
X8934468Y-15676269D01*
X8934468Y-15676269D02*
X8934468Y-15723888D01*
X8934468Y-15723888D02*
X8924944Y-15742936D01*
X8924944Y-15742936D02*
X8915420Y-15752460D01*
X8915420Y-15752460D02*
X8896372Y-15761984D01*
X8896372Y-15761984D02*
X8839229Y-15761984D01*
X8839229Y-15761984D02*
X8820182Y-15752460D01*
X8820182Y-15752460D02*
X8810658Y-15742936D01*
X9105896Y-15561984D02*
X9067801Y-15561984D01*
X9067801Y-15561984D02*
X9048753Y-15571508D01*
X9048753Y-15571508D02*
X9039229Y-15581031D01*
X9039229Y-15581031D02*
X9020182Y-15609603D01*
X9020182Y-15609603D02*
X9010658Y-15647698D01*
X9010658Y-15647698D02*
X9010658Y-15723888D01*
X9010658Y-15723888D02*
X9020182Y-15742936D01*
X9020182Y-15742936D02*
X9029706Y-15752460D01*
X9029706Y-15752460D02*
X9048753Y-15761984D01*
X9048753Y-15761984D02*
X9086849Y-15761984D01*
X9086849Y-15761984D02*
X9105896Y-15752460D01*
X9105896Y-15752460D02*
X9115420Y-15742936D01*
X9115420Y-15742936D02*
X9124944Y-15723888D01*
X9124944Y-15723888D02*
X9124944Y-15676269D01*
X9124944Y-15676269D02*
X9115420Y-15657222D01*
X9115420Y-15657222D02*
X9105896Y-15647698D01*
X9105896Y-15647698D02*
X9086849Y-15638174D01*
X9086849Y-15638174D02*
X9048753Y-15638174D01*
X9048753Y-15638174D02*
X9029706Y-15647698D01*
X9029706Y-15647698D02*
X9020182Y-15657222D01*
X9020182Y-15657222D02*
X9010658Y-15676269D01*
X9201134Y-15561984D02*
X9201134Y-15600079D01*
X9277325Y-15561984D02*
X9277325Y-15600079D01*
X9572563Y-15838174D02*
X9563039Y-15828650D01*
X9563039Y-15828650D02*
X9543991Y-15800079D01*
X9543991Y-15800079D02*
X9534468Y-15781031D01*
X9534468Y-15781031D02*
X9524944Y-15752460D01*
X9524944Y-15752460D02*
X9515420Y-15704841D01*
X9515420Y-15704841D02*
X9515420Y-15666746D01*
X9515420Y-15666746D02*
X9524944Y-15619127D01*
X9524944Y-15619127D02*
X9534468Y-15590555D01*
X9534468Y-15590555D02*
X9543991Y-15571508D01*
X9543991Y-15571508D02*
X9563039Y-15542936D01*
X9563039Y-15542936D02*
X9572563Y-15533412D01*
X9686849Y-15561984D02*
X9705896Y-15561984D01*
X9705896Y-15561984D02*
X9724944Y-15571508D01*
X9724944Y-15571508D02*
X9734468Y-15581031D01*
X9734468Y-15581031D02*
X9743991Y-15600079D01*
X9743991Y-15600079D02*
X9753515Y-15638174D01*
X9753515Y-15638174D02*
X9753515Y-15685793D01*
X9753515Y-15685793D02*
X9743991Y-15723888D01*
X9743991Y-15723888D02*
X9734468Y-15742936D01*
X9734468Y-15742936D02*
X9724944Y-15752460D01*
X9724944Y-15752460D02*
X9705896Y-15761984D01*
X9705896Y-15761984D02*
X9686849Y-15761984D01*
X9686849Y-15761984D02*
X9667801Y-15752460D01*
X9667801Y-15752460D02*
X9658277Y-15742936D01*
X9658277Y-15742936D02*
X9648753Y-15723888D01*
X9648753Y-15723888D02*
X9639230Y-15685793D01*
X9639230Y-15685793D02*
X9639230Y-15638174D01*
X9639230Y-15638174D02*
X9648753Y-15600079D01*
X9648753Y-15600079D02*
X9658277Y-15581031D01*
X9658277Y-15581031D02*
X9667801Y-15571508D01*
X9667801Y-15571508D02*
X9686849Y-15561984D01*
X9991611Y-15761984D02*
X9991611Y-15561984D01*
X10077325Y-15761984D02*
X10077325Y-15657222D01*
X10077325Y-15657222D02*
X10067801Y-15638174D01*
X10067801Y-15638174D02*
X10048753Y-15628650D01*
X10048753Y-15628650D02*
X10020182Y-15628650D01*
X10020182Y-15628650D02*
X10001134Y-15638174D01*
X10001134Y-15638174D02*
X9991611Y-15647698D01*
X10201134Y-15761984D02*
X10182087Y-15752460D01*
X10182087Y-15752460D02*
X10172563Y-15742936D01*
X10172563Y-15742936D02*
X10163039Y-15723888D01*
X10163039Y-15723888D02*
X10163039Y-15666746D01*
X10163039Y-15666746D02*
X10172563Y-15647698D01*
X10172563Y-15647698D02*
X10182087Y-15638174D01*
X10182087Y-15638174D02*
X10201134Y-15628650D01*
X10201134Y-15628650D02*
X10229706Y-15628650D01*
X10229706Y-15628650D02*
X10248753Y-15638174D01*
X10248753Y-15638174D02*
X10258277Y-15647698D01*
X10258277Y-15647698D02*
X10267801Y-15666746D01*
X10267801Y-15666746D02*
X10267801Y-15723888D01*
X10267801Y-15723888D02*
X10258277Y-15742936D01*
X10258277Y-15742936D02*
X10248753Y-15752460D01*
X10248753Y-15752460D02*
X10229706Y-15761984D01*
X10229706Y-15761984D02*
X10201134Y-15761984D01*
X10382087Y-15761984D02*
X10363039Y-15752460D01*
X10363039Y-15752460D02*
X10353515Y-15733412D01*
X10353515Y-15733412D02*
X10353515Y-15561984D01*
X10534468Y-15752460D02*
X10515420Y-15761984D01*
X10515420Y-15761984D02*
X10477325Y-15761984D01*
X10477325Y-15761984D02*
X10458277Y-15752460D01*
X10458277Y-15752460D02*
X10448753Y-15733412D01*
X10448753Y-15733412D02*
X10448753Y-15657222D01*
X10448753Y-15657222D02*
X10458277Y-15638174D01*
X10458277Y-15638174D02*
X10477325Y-15628650D01*
X10477325Y-15628650D02*
X10515420Y-15628650D01*
X10515420Y-15628650D02*
X10534468Y-15638174D01*
X10534468Y-15638174D02*
X10543992Y-15657222D01*
X10543992Y-15657222D02*
X10543992Y-15676269D01*
X10543992Y-15676269D02*
X10448753Y-15695317D01*
X10620182Y-15752460D02*
X10639230Y-15761984D01*
X10639230Y-15761984D02*
X10677325Y-15761984D01*
X10677325Y-15761984D02*
X10696373Y-15752460D01*
X10696373Y-15752460D02*
X10705896Y-15733412D01*
X10705896Y-15733412D02*
X10705896Y-15723888D01*
X10705896Y-15723888D02*
X10696373Y-15704841D01*
X10696373Y-15704841D02*
X10677325Y-15695317D01*
X10677325Y-15695317D02*
X10648753Y-15695317D01*
X10648753Y-15695317D02*
X10629706Y-15685793D01*
X10629706Y-15685793D02*
X10620182Y-15666746D01*
X10620182Y-15666746D02*
X10620182Y-15657222D01*
X10620182Y-15657222D02*
X10629706Y-15638174D01*
X10629706Y-15638174D02*
X10648753Y-15628650D01*
X10648753Y-15628650D02*
X10677325Y-15628650D01*
X10677325Y-15628650D02*
X10696373Y-15638174D01*
X10943992Y-15685793D02*
X11096373Y-15685793D01*
X11020182Y-15761984D02*
X11020182Y-15609603D01*
X11429706Y-15628650D02*
X11429706Y-15761984D01*
X11382087Y-15552460D02*
X11334468Y-15695317D01*
X11334468Y-15695317D02*
X11458277Y-15695317D01*
X11677325Y-15752460D02*
X11696373Y-15761984D01*
X11696373Y-15761984D02*
X11734468Y-15761984D01*
X11734468Y-15761984D02*
X11753515Y-15752460D01*
X11753515Y-15752460D02*
X11763039Y-15733412D01*
X11763039Y-15733412D02*
X11763039Y-15723888D01*
X11763039Y-15723888D02*
X11753515Y-15704841D01*
X11753515Y-15704841D02*
X11734468Y-15695317D01*
X11734468Y-15695317D02*
X11705896Y-15695317D01*
X11705896Y-15695317D02*
X11686849Y-15685793D01*
X11686849Y-15685793D02*
X11677325Y-15666746D01*
X11677325Y-15666746D02*
X11677325Y-15657222D01*
X11677325Y-15657222D02*
X11686849Y-15638174D01*
X11686849Y-15638174D02*
X11705896Y-15628650D01*
X11705896Y-15628650D02*
X11734468Y-15628650D01*
X11734468Y-15628650D02*
X11753515Y-15638174D01*
X11877325Y-15761984D02*
X11858277Y-15752460D01*
X11858277Y-15752460D02*
X11848754Y-15733412D01*
X11848754Y-15733412D02*
X11848754Y-15561984D01*
X11982087Y-15761984D02*
X11963039Y-15752460D01*
X11963039Y-15752460D02*
X11953515Y-15742936D01*
X11953515Y-15742936D02*
X11943992Y-15723888D01*
X11943992Y-15723888D02*
X11943992Y-15666746D01*
X11943992Y-15666746D02*
X11953515Y-15647698D01*
X11953515Y-15647698D02*
X11963039Y-15638174D01*
X11963039Y-15638174D02*
X11982087Y-15628650D01*
X11982087Y-15628650D02*
X12010658Y-15628650D01*
X12010658Y-15628650D02*
X12029706Y-15638174D01*
X12029706Y-15638174D02*
X12039230Y-15647698D01*
X12039230Y-15647698D02*
X12048754Y-15666746D01*
X12048754Y-15666746D02*
X12048754Y-15723888D01*
X12048754Y-15723888D02*
X12039230Y-15742936D01*
X12039230Y-15742936D02*
X12029706Y-15752460D01*
X12029706Y-15752460D02*
X12010658Y-15761984D01*
X12010658Y-15761984D02*
X11982087Y-15761984D01*
X12105896Y-15628650D02*
X12182087Y-15628650D01*
X12134468Y-15561984D02*
X12134468Y-15733412D01*
X12134468Y-15733412D02*
X12143992Y-15752460D01*
X12143992Y-15752460D02*
X12163039Y-15761984D01*
X12163039Y-15761984D02*
X12182087Y-15761984D01*
X12239230Y-15752460D02*
X12258277Y-15761984D01*
X12258277Y-15761984D02*
X12296373Y-15761984D01*
X12296373Y-15761984D02*
X12315420Y-15752460D01*
X12315420Y-15752460D02*
X12324944Y-15733412D01*
X12324944Y-15733412D02*
X12324944Y-15723888D01*
X12324944Y-15723888D02*
X12315420Y-15704841D01*
X12315420Y-15704841D02*
X12296373Y-15695317D01*
X12296373Y-15695317D02*
X12267801Y-15695317D01*
X12267801Y-15695317D02*
X12248754Y-15685793D01*
X12248754Y-15685793D02*
X12239230Y-15666746D01*
X12239230Y-15666746D02*
X12239230Y-15657222D01*
X12239230Y-15657222D02*
X12248754Y-15638174D01*
X12248754Y-15638174D02*
X12267801Y-15628650D01*
X12267801Y-15628650D02*
X12296373Y-15628650D01*
X12296373Y-15628650D02*
X12315420Y-15638174D01*
X12391611Y-15838174D02*
X12401135Y-15828650D01*
X12401135Y-15828650D02*
X12420182Y-15800079D01*
X12420182Y-15800079D02*
X12429706Y-15781031D01*
X12429706Y-15781031D02*
X12439230Y-15752460D01*
X12439230Y-15752460D02*
X12448754Y-15704841D01*
X12448754Y-15704841D02*
X12448754Y-15666746D01*
X12448754Y-15666746D02*
X12439230Y-15619127D01*
X12439230Y-15619127D02*
X12429706Y-15590555D01*
X12429706Y-15590555D02*
X12420182Y-15571508D01*
X12420182Y-15571508D02*
X12401135Y-15542936D01*
X12401135Y-15542936D02*
X12391611Y-15533412D01*
D12*
X5987249Y-15959249D02*
X5987249Y-15909751D01*
X5937751Y-15909751D01*
X5937751Y-15959249D01*
X5987249Y-15959249D01*
D11*
X6296372Y-15825984D02*
X6315420Y-15825984D01*
X6315420Y-15825984D02*
X6334467Y-15835508D01*
X6334467Y-15835508D02*
X6343991Y-15845031D01*
X6343991Y-15845031D02*
X6353515Y-15864079D01*
X6353515Y-15864079D02*
X6363039Y-15902174D01*
X6363039Y-15902174D02*
X6363039Y-15949793D01*
X6363039Y-15949793D02*
X6353515Y-15987888D01*
X6353515Y-15987888D02*
X6343991Y-16006936D01*
X6343991Y-16006936D02*
X6334467Y-16016460D01*
X6334467Y-16016460D02*
X6315420Y-16025984D01*
X6315420Y-16025984D02*
X6296372Y-16025984D01*
X6296372Y-16025984D02*
X6277324Y-16016460D01*
X6277324Y-16016460D02*
X6267801Y-16006936D01*
X6267801Y-16006936D02*
X6258277Y-15987888D01*
X6258277Y-15987888D02*
X6248753Y-15949793D01*
X6248753Y-15949793D02*
X6248753Y-15902174D01*
X6248753Y-15902174D02*
X6258277Y-15864079D01*
X6258277Y-15864079D02*
X6267801Y-15845031D01*
X6267801Y-15845031D02*
X6277324Y-15835508D01*
X6277324Y-15835508D02*
X6296372Y-15825984D01*
X6448753Y-16006936D02*
X6458277Y-16016460D01*
X6458277Y-16016460D02*
X6448753Y-16025984D01*
X6448753Y-16025984D02*
X6439229Y-16016460D01*
X6439229Y-16016460D02*
X6448753Y-16006936D01*
X6448753Y-16006936D02*
X6448753Y-16025984D01*
X6524943Y-15825984D02*
X6658277Y-15825984D01*
X6658277Y-15825984D02*
X6572562Y-16025984D01*
X6772562Y-15825984D02*
X6791610Y-15825984D01*
X6791610Y-15825984D02*
X6810658Y-15835508D01*
X6810658Y-15835508D02*
X6820182Y-15845031D01*
X6820182Y-15845031D02*
X6829705Y-15864079D01*
X6829705Y-15864079D02*
X6839229Y-15902174D01*
X6839229Y-15902174D02*
X6839229Y-15949793D01*
X6839229Y-15949793D02*
X6829705Y-15987888D01*
X6829705Y-15987888D02*
X6820182Y-16006936D01*
X6820182Y-16006936D02*
X6810658Y-16016460D01*
X6810658Y-16016460D02*
X6791610Y-16025984D01*
X6791610Y-16025984D02*
X6772562Y-16025984D01*
X6772562Y-16025984D02*
X6753515Y-16016460D01*
X6753515Y-16016460D02*
X6743991Y-16006936D01*
X6743991Y-16006936D02*
X6734467Y-15987888D01*
X6734467Y-15987888D02*
X6724943Y-15949793D01*
X6724943Y-15949793D02*
X6724943Y-15902174D01*
X6724943Y-15902174D02*
X6734467Y-15864079D01*
X6734467Y-15864079D02*
X6743991Y-15845031D01*
X6743991Y-15845031D02*
X6753515Y-15835508D01*
X6753515Y-15835508D02*
X6772562Y-15825984D01*
X6963039Y-15825984D02*
X6982086Y-15825984D01*
X6982086Y-15825984D02*
X7001134Y-15835508D01*
X7001134Y-15835508D02*
X7010658Y-15845031D01*
X7010658Y-15845031D02*
X7020182Y-15864079D01*
X7020182Y-15864079D02*
X7029705Y-15902174D01*
X7029705Y-15902174D02*
X7029705Y-15949793D01*
X7029705Y-15949793D02*
X7020182Y-15987888D01*
X7020182Y-15987888D02*
X7010658Y-16006936D01*
X7010658Y-16006936D02*
X7001134Y-16016460D01*
X7001134Y-16016460D02*
X6982086Y-16025984D01*
X6982086Y-16025984D02*
X6963039Y-16025984D01*
X6963039Y-16025984D02*
X6943991Y-16016460D01*
X6943991Y-16016460D02*
X6934467Y-16006936D01*
X6934467Y-16006936D02*
X6924943Y-15987888D01*
X6924943Y-15987888D02*
X6915420Y-15949793D01*
X6915420Y-15949793D02*
X6915420Y-15902174D01*
X6915420Y-15902174D02*
X6924943Y-15864079D01*
X6924943Y-15864079D02*
X6934467Y-15845031D01*
X6934467Y-15845031D02*
X6943991Y-15835508D01*
X6943991Y-15835508D02*
X6963039Y-15825984D01*
X7115420Y-16025984D02*
X7115420Y-15892650D01*
X7115420Y-15911698D02*
X7124943Y-15902174D01*
X7124943Y-15902174D02*
X7143991Y-15892650D01*
X7143991Y-15892650D02*
X7172563Y-15892650D01*
X7172563Y-15892650D02*
X7191610Y-15902174D01*
X7191610Y-15902174D02*
X7201134Y-15921222D01*
X7201134Y-15921222D02*
X7201134Y-16025984D01*
X7201134Y-15921222D02*
X7210658Y-15902174D01*
X7210658Y-15902174D02*
X7229705Y-15892650D01*
X7229705Y-15892650D02*
X7258277Y-15892650D01*
X7258277Y-15892650D02*
X7277324Y-15902174D01*
X7277324Y-15902174D02*
X7286848Y-15921222D01*
X7286848Y-15921222D02*
X7286848Y-16025984D01*
X7382086Y-16025984D02*
X7382086Y-15892650D01*
X7382086Y-15911698D02*
X7391610Y-15902174D01*
X7391610Y-15902174D02*
X7410658Y-15892650D01*
X7410658Y-15892650D02*
X7439229Y-15892650D01*
X7439229Y-15892650D02*
X7458277Y-15902174D01*
X7458277Y-15902174D02*
X7467801Y-15921222D01*
X7467801Y-15921222D02*
X7467801Y-16025984D01*
X7467801Y-15921222D02*
X7477324Y-15902174D01*
X7477324Y-15902174D02*
X7496372Y-15892650D01*
X7496372Y-15892650D02*
X7524943Y-15892650D01*
X7524943Y-15892650D02*
X7543991Y-15902174D01*
X7543991Y-15902174D02*
X7553515Y-15921222D01*
X7553515Y-15921222D02*
X7553515Y-16025984D01*
X7943991Y-15816460D02*
X7772563Y-16073603D01*
X8201134Y-15825984D02*
X8220182Y-15825984D01*
X8220182Y-15825984D02*
X8239229Y-15835508D01*
X8239229Y-15835508D02*
X8248753Y-15845031D01*
X8248753Y-15845031D02*
X8258277Y-15864079D01*
X8258277Y-15864079D02*
X8267801Y-15902174D01*
X8267801Y-15902174D02*
X8267801Y-15949793D01*
X8267801Y-15949793D02*
X8258277Y-15987888D01*
X8258277Y-15987888D02*
X8248753Y-16006936D01*
X8248753Y-16006936D02*
X8239229Y-16016460D01*
X8239229Y-16016460D02*
X8220182Y-16025984D01*
X8220182Y-16025984D02*
X8201134Y-16025984D01*
X8201134Y-16025984D02*
X8182086Y-16016460D01*
X8182086Y-16016460D02*
X8172563Y-16006936D01*
X8172563Y-16006936D02*
X8163039Y-15987888D01*
X8163039Y-15987888D02*
X8153515Y-15949793D01*
X8153515Y-15949793D02*
X8153515Y-15902174D01*
X8153515Y-15902174D02*
X8163039Y-15864079D01*
X8163039Y-15864079D02*
X8172563Y-15845031D01*
X8172563Y-15845031D02*
X8182086Y-15835508D01*
X8182086Y-15835508D02*
X8201134Y-15825984D01*
X8353515Y-16006936D02*
X8363039Y-16016460D01*
X8363039Y-16016460D02*
X8353515Y-16025984D01*
X8353515Y-16025984D02*
X8343991Y-16016460D01*
X8343991Y-16016460D02*
X8353515Y-16006936D01*
X8353515Y-16006936D02*
X8353515Y-16025984D01*
X8486848Y-15825984D02*
X8505896Y-15825984D01*
X8505896Y-15825984D02*
X8524944Y-15835508D01*
X8524944Y-15835508D02*
X8534468Y-15845031D01*
X8534468Y-15845031D02*
X8543991Y-15864079D01*
X8543991Y-15864079D02*
X8553515Y-15902174D01*
X8553515Y-15902174D02*
X8553515Y-15949793D01*
X8553515Y-15949793D02*
X8543991Y-15987888D01*
X8543991Y-15987888D02*
X8534468Y-16006936D01*
X8534468Y-16006936D02*
X8524944Y-16016460D01*
X8524944Y-16016460D02*
X8505896Y-16025984D01*
X8505896Y-16025984D02*
X8486848Y-16025984D01*
X8486848Y-16025984D02*
X8467801Y-16016460D01*
X8467801Y-16016460D02*
X8458277Y-16006936D01*
X8458277Y-16006936D02*
X8448753Y-15987888D01*
X8448753Y-15987888D02*
X8439229Y-15949793D01*
X8439229Y-15949793D02*
X8439229Y-15902174D01*
X8439229Y-15902174D02*
X8448753Y-15864079D01*
X8448753Y-15864079D02*
X8458277Y-15845031D01*
X8458277Y-15845031D02*
X8467801Y-15835508D01*
X8467801Y-15835508D02*
X8486848Y-15825984D01*
X8629706Y-15845031D02*
X8639229Y-15835508D01*
X8639229Y-15835508D02*
X8658277Y-15825984D01*
X8658277Y-15825984D02*
X8705896Y-15825984D01*
X8705896Y-15825984D02*
X8724944Y-15835508D01*
X8724944Y-15835508D02*
X8734468Y-15845031D01*
X8734468Y-15845031D02*
X8743991Y-15864079D01*
X8743991Y-15864079D02*
X8743991Y-15883127D01*
X8743991Y-15883127D02*
X8734468Y-15911698D01*
X8734468Y-15911698D02*
X8620182Y-16025984D01*
X8620182Y-16025984D02*
X8743991Y-16025984D01*
X8810658Y-15825984D02*
X8943991Y-15825984D01*
X8943991Y-15825984D02*
X8858277Y-16025984D01*
X9105896Y-15825984D02*
X9067801Y-15825984D01*
X9067801Y-15825984D02*
X9048753Y-15835508D01*
X9048753Y-15835508D02*
X9039229Y-15845031D01*
X9039229Y-15845031D02*
X9020182Y-15873603D01*
X9020182Y-15873603D02*
X9010658Y-15911698D01*
X9010658Y-15911698D02*
X9010658Y-15987888D01*
X9010658Y-15987888D02*
X9020182Y-16006936D01*
X9020182Y-16006936D02*
X9029706Y-16016460D01*
X9029706Y-16016460D02*
X9048753Y-16025984D01*
X9048753Y-16025984D02*
X9086849Y-16025984D01*
X9086849Y-16025984D02*
X9105896Y-16016460D01*
X9105896Y-16016460D02*
X9115420Y-16006936D01*
X9115420Y-16006936D02*
X9124944Y-15987888D01*
X9124944Y-15987888D02*
X9124944Y-15940269D01*
X9124944Y-15940269D02*
X9115420Y-15921222D01*
X9115420Y-15921222D02*
X9105896Y-15911698D01*
X9105896Y-15911698D02*
X9086849Y-15902174D01*
X9086849Y-15902174D02*
X9048753Y-15902174D01*
X9048753Y-15902174D02*
X9029706Y-15911698D01*
X9029706Y-15911698D02*
X9020182Y-15921222D01*
X9020182Y-15921222D02*
X9010658Y-15940269D01*
X9201134Y-15825984D02*
X9201134Y-15864079D01*
X9277325Y-15825984D02*
X9277325Y-15864079D01*
X9572563Y-16102174D02*
X9563039Y-16092650D01*
X9563039Y-16092650D02*
X9543991Y-16064079D01*
X9543991Y-16064079D02*
X9534468Y-16045031D01*
X9534468Y-16045031D02*
X9524944Y-16016460D01*
X9524944Y-16016460D02*
X9515420Y-15968841D01*
X9515420Y-15968841D02*
X9515420Y-15930746D01*
X9515420Y-15930746D02*
X9524944Y-15883127D01*
X9524944Y-15883127D02*
X9534468Y-15854555D01*
X9534468Y-15854555D02*
X9543991Y-15835508D01*
X9543991Y-15835508D02*
X9563039Y-15806936D01*
X9563039Y-15806936D02*
X9572563Y-15797412D01*
X9639230Y-15845031D02*
X9648753Y-15835508D01*
X9648753Y-15835508D02*
X9667801Y-15825984D01*
X9667801Y-15825984D02*
X9715420Y-15825984D01*
X9715420Y-15825984D02*
X9734468Y-15835508D01*
X9734468Y-15835508D02*
X9743991Y-15845031D01*
X9743991Y-15845031D02*
X9753515Y-15864079D01*
X9753515Y-15864079D02*
X9753515Y-15883127D01*
X9753515Y-15883127D02*
X9743991Y-15911698D01*
X9743991Y-15911698D02*
X9629706Y-16025984D01*
X9629706Y-16025984D02*
X9753515Y-16025984D01*
X9924944Y-15892650D02*
X9924944Y-16025984D01*
X9877325Y-15816460D02*
X9829706Y-15959317D01*
X9829706Y-15959317D02*
X9953515Y-15959317D01*
X10182087Y-16025984D02*
X10182087Y-15825984D01*
X10267801Y-16025984D02*
X10267801Y-15921222D01*
X10267801Y-15921222D02*
X10258277Y-15902174D01*
X10258277Y-15902174D02*
X10239230Y-15892650D01*
X10239230Y-15892650D02*
X10210658Y-15892650D01*
X10210658Y-15892650D02*
X10191611Y-15902174D01*
X10191611Y-15902174D02*
X10182087Y-15911698D01*
X10391611Y-16025984D02*
X10372563Y-16016460D01*
X10372563Y-16016460D02*
X10363039Y-16006936D01*
X10363039Y-16006936D02*
X10353515Y-15987888D01*
X10353515Y-15987888D02*
X10353515Y-15930746D01*
X10353515Y-15930746D02*
X10363039Y-15911698D01*
X10363039Y-15911698D02*
X10372563Y-15902174D01*
X10372563Y-15902174D02*
X10391611Y-15892650D01*
X10391611Y-15892650D02*
X10420182Y-15892650D01*
X10420182Y-15892650D02*
X10439230Y-15902174D01*
X10439230Y-15902174D02*
X10448753Y-15911698D01*
X10448753Y-15911698D02*
X10458277Y-15930746D01*
X10458277Y-15930746D02*
X10458277Y-15987888D01*
X10458277Y-15987888D02*
X10448753Y-16006936D01*
X10448753Y-16006936D02*
X10439230Y-16016460D01*
X10439230Y-16016460D02*
X10420182Y-16025984D01*
X10420182Y-16025984D02*
X10391611Y-16025984D01*
X10572563Y-16025984D02*
X10553515Y-16016460D01*
X10553515Y-16016460D02*
X10543992Y-15997412D01*
X10543992Y-15997412D02*
X10543992Y-15825984D01*
X10724944Y-16016460D02*
X10705896Y-16025984D01*
X10705896Y-16025984D02*
X10667801Y-16025984D01*
X10667801Y-16025984D02*
X10648753Y-16016460D01*
X10648753Y-16016460D02*
X10639230Y-15997412D01*
X10639230Y-15997412D02*
X10639230Y-15921222D01*
X10639230Y-15921222D02*
X10648753Y-15902174D01*
X10648753Y-15902174D02*
X10667801Y-15892650D01*
X10667801Y-15892650D02*
X10705896Y-15892650D01*
X10705896Y-15892650D02*
X10724944Y-15902174D01*
X10724944Y-15902174D02*
X10734468Y-15921222D01*
X10734468Y-15921222D02*
X10734468Y-15940269D01*
X10734468Y-15940269D02*
X10639230Y-15959317D01*
X10810658Y-16016460D02*
X10829706Y-16025984D01*
X10829706Y-16025984D02*
X10867801Y-16025984D01*
X10867801Y-16025984D02*
X10886849Y-16016460D01*
X10886849Y-16016460D02*
X10896373Y-15997412D01*
X10896373Y-15997412D02*
X10896373Y-15987888D01*
X10896373Y-15987888D02*
X10886849Y-15968841D01*
X10886849Y-15968841D02*
X10867801Y-15959317D01*
X10867801Y-15959317D02*
X10839230Y-15959317D01*
X10839230Y-15959317D02*
X10820182Y-15949793D01*
X10820182Y-15949793D02*
X10810658Y-15930746D01*
X10810658Y-15930746D02*
X10810658Y-15921222D01*
X10810658Y-15921222D02*
X10820182Y-15902174D01*
X10820182Y-15902174D02*
X10839230Y-15892650D01*
X10839230Y-15892650D02*
X10867801Y-15892650D01*
X10867801Y-15892650D02*
X10886849Y-15902174D01*
X10963039Y-16102174D02*
X10972563Y-16092650D01*
X10972563Y-16092650D02*
X10991611Y-16064079D01*
X10991611Y-16064079D02*
X11001134Y-16045031D01*
X11001134Y-16045031D02*
X11010658Y-16016460D01*
X11010658Y-16016460D02*
X11020182Y-15968841D01*
X11020182Y-15968841D02*
X11020182Y-15930746D01*
X11020182Y-15930746D02*
X11010658Y-15883127D01*
X11010658Y-15883127D02*
X11001134Y-15854555D01*
X11001134Y-15854555D02*
X10991611Y-15835508D01*
X10991611Y-15835508D02*
X10972563Y-15806936D01*
X10972563Y-15806936D02*
X10963039Y-15797412D01*
D12*
X5957500Y-16238500D02*
X5997500Y-16198500D01*
X5957500Y-16158500D01*
X5917500Y-16198500D01*
X5957500Y-16238500D01*
D11*
X6296372Y-16089984D02*
X6315420Y-16089984D01*
X6315420Y-16089984D02*
X6334467Y-16099508D01*
X6334467Y-16099508D02*
X6343991Y-16109031D01*
X6343991Y-16109031D02*
X6353515Y-16128079D01*
X6353515Y-16128079D02*
X6363039Y-16166174D01*
X6363039Y-16166174D02*
X6363039Y-16213793D01*
X6363039Y-16213793D02*
X6353515Y-16251888D01*
X6353515Y-16251888D02*
X6343991Y-16270936D01*
X6343991Y-16270936D02*
X6334467Y-16280460D01*
X6334467Y-16280460D02*
X6315420Y-16289984D01*
X6315420Y-16289984D02*
X6296372Y-16289984D01*
X6296372Y-16289984D02*
X6277324Y-16280460D01*
X6277324Y-16280460D02*
X6267801Y-16270936D01*
X6267801Y-16270936D02*
X6258277Y-16251888D01*
X6258277Y-16251888D02*
X6248753Y-16213793D01*
X6248753Y-16213793D02*
X6248753Y-16166174D01*
X6248753Y-16166174D02*
X6258277Y-16128079D01*
X6258277Y-16128079D02*
X6267801Y-16109031D01*
X6267801Y-16109031D02*
X6277324Y-16099508D01*
X6277324Y-16099508D02*
X6296372Y-16089984D01*
X6448753Y-16270936D02*
X6458277Y-16280460D01*
X6458277Y-16280460D02*
X6448753Y-16289984D01*
X6448753Y-16289984D02*
X6439229Y-16280460D01*
X6439229Y-16280460D02*
X6448753Y-16270936D01*
X6448753Y-16270936D02*
X6448753Y-16289984D01*
X6572562Y-16175698D02*
X6553515Y-16166174D01*
X6553515Y-16166174D02*
X6543991Y-16156650D01*
X6543991Y-16156650D02*
X6534467Y-16137603D01*
X6534467Y-16137603D02*
X6534467Y-16128079D01*
X6534467Y-16128079D02*
X6543991Y-16109031D01*
X6543991Y-16109031D02*
X6553515Y-16099508D01*
X6553515Y-16099508D02*
X6572562Y-16089984D01*
X6572562Y-16089984D02*
X6610658Y-16089984D01*
X6610658Y-16089984D02*
X6629705Y-16099508D01*
X6629705Y-16099508D02*
X6639229Y-16109031D01*
X6639229Y-16109031D02*
X6648753Y-16128079D01*
X6648753Y-16128079D02*
X6648753Y-16137603D01*
X6648753Y-16137603D02*
X6639229Y-16156650D01*
X6639229Y-16156650D02*
X6629705Y-16166174D01*
X6629705Y-16166174D02*
X6610658Y-16175698D01*
X6610658Y-16175698D02*
X6572562Y-16175698D01*
X6572562Y-16175698D02*
X6553515Y-16185222D01*
X6553515Y-16185222D02*
X6543991Y-16194746D01*
X6543991Y-16194746D02*
X6534467Y-16213793D01*
X6534467Y-16213793D02*
X6534467Y-16251888D01*
X6534467Y-16251888D02*
X6543991Y-16270936D01*
X6543991Y-16270936D02*
X6553515Y-16280460D01*
X6553515Y-16280460D02*
X6572562Y-16289984D01*
X6572562Y-16289984D02*
X6610658Y-16289984D01*
X6610658Y-16289984D02*
X6629705Y-16280460D01*
X6629705Y-16280460D02*
X6639229Y-16270936D01*
X6639229Y-16270936D02*
X6648753Y-16251888D01*
X6648753Y-16251888D02*
X6648753Y-16213793D01*
X6648753Y-16213793D02*
X6639229Y-16194746D01*
X6639229Y-16194746D02*
X6629705Y-16185222D01*
X6629705Y-16185222D02*
X6610658Y-16175698D01*
X6772562Y-16089984D02*
X6791610Y-16089984D01*
X6791610Y-16089984D02*
X6810658Y-16099508D01*
X6810658Y-16099508D02*
X6820182Y-16109031D01*
X6820182Y-16109031D02*
X6829705Y-16128079D01*
X6829705Y-16128079D02*
X6839229Y-16166174D01*
X6839229Y-16166174D02*
X6839229Y-16213793D01*
X6839229Y-16213793D02*
X6829705Y-16251888D01*
X6829705Y-16251888D02*
X6820182Y-16270936D01*
X6820182Y-16270936D02*
X6810658Y-16280460D01*
X6810658Y-16280460D02*
X6791610Y-16289984D01*
X6791610Y-16289984D02*
X6772562Y-16289984D01*
X6772562Y-16289984D02*
X6753515Y-16280460D01*
X6753515Y-16280460D02*
X6743991Y-16270936D01*
X6743991Y-16270936D02*
X6734467Y-16251888D01*
X6734467Y-16251888D02*
X6724943Y-16213793D01*
X6724943Y-16213793D02*
X6724943Y-16166174D01*
X6724943Y-16166174D02*
X6734467Y-16128079D01*
X6734467Y-16128079D02*
X6743991Y-16109031D01*
X6743991Y-16109031D02*
X6753515Y-16099508D01*
X6753515Y-16099508D02*
X6772562Y-16089984D01*
X6963039Y-16089984D02*
X6982086Y-16089984D01*
X6982086Y-16089984D02*
X7001134Y-16099508D01*
X7001134Y-16099508D02*
X7010658Y-16109031D01*
X7010658Y-16109031D02*
X7020182Y-16128079D01*
X7020182Y-16128079D02*
X7029705Y-16166174D01*
X7029705Y-16166174D02*
X7029705Y-16213793D01*
X7029705Y-16213793D02*
X7020182Y-16251888D01*
X7020182Y-16251888D02*
X7010658Y-16270936D01*
X7010658Y-16270936D02*
X7001134Y-16280460D01*
X7001134Y-16280460D02*
X6982086Y-16289984D01*
X6982086Y-16289984D02*
X6963039Y-16289984D01*
X6963039Y-16289984D02*
X6943991Y-16280460D01*
X6943991Y-16280460D02*
X6934467Y-16270936D01*
X6934467Y-16270936D02*
X6924943Y-16251888D01*
X6924943Y-16251888D02*
X6915420Y-16213793D01*
X6915420Y-16213793D02*
X6915420Y-16166174D01*
X6915420Y-16166174D02*
X6924943Y-16128079D01*
X6924943Y-16128079D02*
X6934467Y-16109031D01*
X6934467Y-16109031D02*
X6943991Y-16099508D01*
X6943991Y-16099508D02*
X6963039Y-16089984D01*
X7115420Y-16289984D02*
X7115420Y-16156650D01*
X7115420Y-16175698D02*
X7124943Y-16166174D01*
X7124943Y-16166174D02*
X7143991Y-16156650D01*
X7143991Y-16156650D02*
X7172563Y-16156650D01*
X7172563Y-16156650D02*
X7191610Y-16166174D01*
X7191610Y-16166174D02*
X7201134Y-16185222D01*
X7201134Y-16185222D02*
X7201134Y-16289984D01*
X7201134Y-16185222D02*
X7210658Y-16166174D01*
X7210658Y-16166174D02*
X7229705Y-16156650D01*
X7229705Y-16156650D02*
X7258277Y-16156650D01*
X7258277Y-16156650D02*
X7277324Y-16166174D01*
X7277324Y-16166174D02*
X7286848Y-16185222D01*
X7286848Y-16185222D02*
X7286848Y-16289984D01*
X7382086Y-16289984D02*
X7382086Y-16156650D01*
X7382086Y-16175698D02*
X7391610Y-16166174D01*
X7391610Y-16166174D02*
X7410658Y-16156650D01*
X7410658Y-16156650D02*
X7439229Y-16156650D01*
X7439229Y-16156650D02*
X7458277Y-16166174D01*
X7458277Y-16166174D02*
X7467801Y-16185222D01*
X7467801Y-16185222D02*
X7467801Y-16289984D01*
X7467801Y-16185222D02*
X7477324Y-16166174D01*
X7477324Y-16166174D02*
X7496372Y-16156650D01*
X7496372Y-16156650D02*
X7524943Y-16156650D01*
X7524943Y-16156650D02*
X7543991Y-16166174D01*
X7543991Y-16166174D02*
X7553515Y-16185222D01*
X7553515Y-16185222D02*
X7553515Y-16289984D01*
X7943991Y-16080460D02*
X7772563Y-16337603D01*
X8201134Y-16089984D02*
X8220182Y-16089984D01*
X8220182Y-16089984D02*
X8239229Y-16099508D01*
X8239229Y-16099508D02*
X8248753Y-16109031D01*
X8248753Y-16109031D02*
X8258277Y-16128079D01*
X8258277Y-16128079D02*
X8267801Y-16166174D01*
X8267801Y-16166174D02*
X8267801Y-16213793D01*
X8267801Y-16213793D02*
X8258277Y-16251888D01*
X8258277Y-16251888D02*
X8248753Y-16270936D01*
X8248753Y-16270936D02*
X8239229Y-16280460D01*
X8239229Y-16280460D02*
X8220182Y-16289984D01*
X8220182Y-16289984D02*
X8201134Y-16289984D01*
X8201134Y-16289984D02*
X8182086Y-16280460D01*
X8182086Y-16280460D02*
X8172563Y-16270936D01*
X8172563Y-16270936D02*
X8163039Y-16251888D01*
X8163039Y-16251888D02*
X8153515Y-16213793D01*
X8153515Y-16213793D02*
X8153515Y-16166174D01*
X8153515Y-16166174D02*
X8163039Y-16128079D01*
X8163039Y-16128079D02*
X8172563Y-16109031D01*
X8172563Y-16109031D02*
X8182086Y-16099508D01*
X8182086Y-16099508D02*
X8201134Y-16089984D01*
X8353515Y-16270936D02*
X8363039Y-16280460D01*
X8363039Y-16280460D02*
X8353515Y-16289984D01*
X8353515Y-16289984D02*
X8343991Y-16280460D01*
X8343991Y-16280460D02*
X8353515Y-16270936D01*
X8353515Y-16270936D02*
X8353515Y-16289984D01*
X8486848Y-16089984D02*
X8505896Y-16089984D01*
X8505896Y-16089984D02*
X8524944Y-16099508D01*
X8524944Y-16099508D02*
X8534468Y-16109031D01*
X8534468Y-16109031D02*
X8543991Y-16128079D01*
X8543991Y-16128079D02*
X8553515Y-16166174D01*
X8553515Y-16166174D02*
X8553515Y-16213793D01*
X8553515Y-16213793D02*
X8543991Y-16251888D01*
X8543991Y-16251888D02*
X8534468Y-16270936D01*
X8534468Y-16270936D02*
X8524944Y-16280460D01*
X8524944Y-16280460D02*
X8505896Y-16289984D01*
X8505896Y-16289984D02*
X8486848Y-16289984D01*
X8486848Y-16289984D02*
X8467801Y-16280460D01*
X8467801Y-16280460D02*
X8458277Y-16270936D01*
X8458277Y-16270936D02*
X8448753Y-16251888D01*
X8448753Y-16251888D02*
X8439229Y-16213793D01*
X8439229Y-16213793D02*
X8439229Y-16166174D01*
X8439229Y-16166174D02*
X8448753Y-16128079D01*
X8448753Y-16128079D02*
X8458277Y-16109031D01*
X8458277Y-16109031D02*
X8467801Y-16099508D01*
X8467801Y-16099508D02*
X8486848Y-16089984D01*
X8620182Y-16089984D02*
X8743991Y-16089984D01*
X8743991Y-16089984D02*
X8677325Y-16166174D01*
X8677325Y-16166174D02*
X8705896Y-16166174D01*
X8705896Y-16166174D02*
X8724944Y-16175698D01*
X8724944Y-16175698D02*
X8734468Y-16185222D01*
X8734468Y-16185222D02*
X8743991Y-16204269D01*
X8743991Y-16204269D02*
X8743991Y-16251888D01*
X8743991Y-16251888D02*
X8734468Y-16270936D01*
X8734468Y-16270936D02*
X8724944Y-16280460D01*
X8724944Y-16280460D02*
X8705896Y-16289984D01*
X8705896Y-16289984D02*
X8648753Y-16289984D01*
X8648753Y-16289984D02*
X8629706Y-16280460D01*
X8629706Y-16280460D02*
X8620182Y-16270936D01*
X8934468Y-16289984D02*
X8820182Y-16289984D01*
X8877325Y-16289984D02*
X8877325Y-16089984D01*
X8877325Y-16089984D02*
X8858277Y-16118555D01*
X8858277Y-16118555D02*
X8839229Y-16137603D01*
X8839229Y-16137603D02*
X8820182Y-16147127D01*
X9115420Y-16089984D02*
X9020182Y-16089984D01*
X9020182Y-16089984D02*
X9010658Y-16185222D01*
X9010658Y-16185222D02*
X9020182Y-16175698D01*
X9020182Y-16175698D02*
X9039229Y-16166174D01*
X9039229Y-16166174D02*
X9086849Y-16166174D01*
X9086849Y-16166174D02*
X9105896Y-16175698D01*
X9105896Y-16175698D02*
X9115420Y-16185222D01*
X9115420Y-16185222D02*
X9124944Y-16204269D01*
X9124944Y-16204269D02*
X9124944Y-16251888D01*
X9124944Y-16251888D02*
X9115420Y-16270936D01*
X9115420Y-16270936D02*
X9105896Y-16280460D01*
X9105896Y-16280460D02*
X9086849Y-16289984D01*
X9086849Y-16289984D02*
X9039229Y-16289984D01*
X9039229Y-16289984D02*
X9020182Y-16280460D01*
X9020182Y-16280460D02*
X9010658Y-16270936D01*
X9201134Y-16089984D02*
X9201134Y-16128079D01*
X9277325Y-16089984D02*
X9277325Y-16128079D01*
X9572563Y-16366174D02*
X9563039Y-16356650D01*
X9563039Y-16356650D02*
X9543991Y-16328079D01*
X9543991Y-16328079D02*
X9534468Y-16309031D01*
X9534468Y-16309031D02*
X9524944Y-16280460D01*
X9524944Y-16280460D02*
X9515420Y-16232841D01*
X9515420Y-16232841D02*
X9515420Y-16194746D01*
X9515420Y-16194746D02*
X9524944Y-16147127D01*
X9524944Y-16147127D02*
X9534468Y-16118555D01*
X9534468Y-16118555D02*
X9543991Y-16099508D01*
X9543991Y-16099508D02*
X9563039Y-16070936D01*
X9563039Y-16070936D02*
X9572563Y-16061412D01*
X9639230Y-16109031D02*
X9648753Y-16099508D01*
X9648753Y-16099508D02*
X9667801Y-16089984D01*
X9667801Y-16089984D02*
X9715420Y-16089984D01*
X9715420Y-16089984D02*
X9734468Y-16099508D01*
X9734468Y-16099508D02*
X9743991Y-16109031D01*
X9743991Y-16109031D02*
X9753515Y-16128079D01*
X9753515Y-16128079D02*
X9753515Y-16147127D01*
X9753515Y-16147127D02*
X9743991Y-16175698D01*
X9743991Y-16175698D02*
X9629706Y-16289984D01*
X9629706Y-16289984D02*
X9753515Y-16289984D01*
X9991611Y-16289984D02*
X9991611Y-16089984D01*
X10077325Y-16289984D02*
X10077325Y-16185222D01*
X10077325Y-16185222D02*
X10067801Y-16166174D01*
X10067801Y-16166174D02*
X10048753Y-16156650D01*
X10048753Y-16156650D02*
X10020182Y-16156650D01*
X10020182Y-16156650D02*
X10001134Y-16166174D01*
X10001134Y-16166174D02*
X9991611Y-16175698D01*
X10201134Y-16289984D02*
X10182087Y-16280460D01*
X10182087Y-16280460D02*
X10172563Y-16270936D01*
X10172563Y-16270936D02*
X10163039Y-16251888D01*
X10163039Y-16251888D02*
X10163039Y-16194746D01*
X10163039Y-16194746D02*
X10172563Y-16175698D01*
X10172563Y-16175698D02*
X10182087Y-16166174D01*
X10182087Y-16166174D02*
X10201134Y-16156650D01*
X10201134Y-16156650D02*
X10229706Y-16156650D01*
X10229706Y-16156650D02*
X10248753Y-16166174D01*
X10248753Y-16166174D02*
X10258277Y-16175698D01*
X10258277Y-16175698D02*
X10267801Y-16194746D01*
X10267801Y-16194746D02*
X10267801Y-16251888D01*
X10267801Y-16251888D02*
X10258277Y-16270936D01*
X10258277Y-16270936D02*
X10248753Y-16280460D01*
X10248753Y-16280460D02*
X10229706Y-16289984D01*
X10229706Y-16289984D02*
X10201134Y-16289984D01*
X10382087Y-16289984D02*
X10363039Y-16280460D01*
X10363039Y-16280460D02*
X10353515Y-16261412D01*
X10353515Y-16261412D02*
X10353515Y-16089984D01*
X10534468Y-16280460D02*
X10515420Y-16289984D01*
X10515420Y-16289984D02*
X10477325Y-16289984D01*
X10477325Y-16289984D02*
X10458277Y-16280460D01*
X10458277Y-16280460D02*
X10448753Y-16261412D01*
X10448753Y-16261412D02*
X10448753Y-16185222D01*
X10448753Y-16185222D02*
X10458277Y-16166174D01*
X10458277Y-16166174D02*
X10477325Y-16156650D01*
X10477325Y-16156650D02*
X10515420Y-16156650D01*
X10515420Y-16156650D02*
X10534468Y-16166174D01*
X10534468Y-16166174D02*
X10543992Y-16185222D01*
X10543992Y-16185222D02*
X10543992Y-16204269D01*
X10543992Y-16204269D02*
X10448753Y-16223317D01*
X10620182Y-16280460D02*
X10639230Y-16289984D01*
X10639230Y-16289984D02*
X10677325Y-16289984D01*
X10677325Y-16289984D02*
X10696373Y-16280460D01*
X10696373Y-16280460D02*
X10705896Y-16261412D01*
X10705896Y-16261412D02*
X10705896Y-16251888D01*
X10705896Y-16251888D02*
X10696373Y-16232841D01*
X10696373Y-16232841D02*
X10677325Y-16223317D01*
X10677325Y-16223317D02*
X10648753Y-16223317D01*
X10648753Y-16223317D02*
X10629706Y-16213793D01*
X10629706Y-16213793D02*
X10620182Y-16194746D01*
X10620182Y-16194746D02*
X10620182Y-16185222D01*
X10620182Y-16185222D02*
X10629706Y-16166174D01*
X10629706Y-16166174D02*
X10648753Y-16156650D01*
X10648753Y-16156650D02*
X10677325Y-16156650D01*
X10677325Y-16156650D02*
X10696373Y-16166174D01*
X10772563Y-16366174D02*
X10782087Y-16356650D01*
X10782087Y-16356650D02*
X10801134Y-16328079D01*
X10801134Y-16328079D02*
X10810658Y-16309031D01*
X10810658Y-16309031D02*
X10820182Y-16280460D01*
X10820182Y-16280460D02*
X10829706Y-16232841D01*
X10829706Y-16232841D02*
X10829706Y-16194746D01*
X10829706Y-16194746D02*
X10820182Y-16147127D01*
X10820182Y-16147127D02*
X10810658Y-16118555D01*
X10810658Y-16118555D02*
X10801134Y-16099508D01*
X10801134Y-16099508D02*
X10782087Y-16070936D01*
X10782087Y-16070936D02*
X10772563Y-16061412D01*
D12*
X5897500Y-16412500D02*
X5997500Y-16512500D01*
X5997500Y-16412500D02*
X5897500Y-16512500D01*
X5997500Y-16462500D02*
G75*
G02*
X5897500Y-16462500I-50000J0D01*
G01*
X5897500Y-16462500D02*
G75*
G02*
X5997500Y-16462500I50000J0D01*
G01*
D11*
X6363039Y-16553984D02*
X6248753Y-16553984D01*
X6305896Y-16553984D02*
X6305896Y-16353984D01*
X6305896Y-16353984D02*
X6286848Y-16382555D01*
X6286848Y-16382555D02*
X6267801Y-16401603D01*
X6267801Y-16401603D02*
X6248753Y-16411127D01*
X6448753Y-16534936D02*
X6458277Y-16544460D01*
X6458277Y-16544460D02*
X6448753Y-16553984D01*
X6448753Y-16553984D02*
X6439229Y-16544460D01*
X6439229Y-16544460D02*
X6448753Y-16534936D01*
X6448753Y-16534936D02*
X6448753Y-16553984D01*
X6582086Y-16353984D02*
X6601134Y-16353984D01*
X6601134Y-16353984D02*
X6620182Y-16363508D01*
X6620182Y-16363508D02*
X6629705Y-16373031D01*
X6629705Y-16373031D02*
X6639229Y-16392079D01*
X6639229Y-16392079D02*
X6648753Y-16430174D01*
X6648753Y-16430174D02*
X6648753Y-16477793D01*
X6648753Y-16477793D02*
X6639229Y-16515888D01*
X6639229Y-16515888D02*
X6629705Y-16534936D01*
X6629705Y-16534936D02*
X6620182Y-16544460D01*
X6620182Y-16544460D02*
X6601134Y-16553984D01*
X6601134Y-16553984D02*
X6582086Y-16553984D01*
X6582086Y-16553984D02*
X6563039Y-16544460D01*
X6563039Y-16544460D02*
X6553515Y-16534936D01*
X6553515Y-16534936D02*
X6543991Y-16515888D01*
X6543991Y-16515888D02*
X6534467Y-16477793D01*
X6534467Y-16477793D02*
X6534467Y-16430174D01*
X6534467Y-16430174D02*
X6543991Y-16392079D01*
X6543991Y-16392079D02*
X6553515Y-16373031D01*
X6553515Y-16373031D02*
X6563039Y-16363508D01*
X6563039Y-16363508D02*
X6582086Y-16353984D01*
X6772562Y-16353984D02*
X6791610Y-16353984D01*
X6791610Y-16353984D02*
X6810658Y-16363508D01*
X6810658Y-16363508D02*
X6820182Y-16373031D01*
X6820182Y-16373031D02*
X6829705Y-16392079D01*
X6829705Y-16392079D02*
X6839229Y-16430174D01*
X6839229Y-16430174D02*
X6839229Y-16477793D01*
X6839229Y-16477793D02*
X6829705Y-16515888D01*
X6829705Y-16515888D02*
X6820182Y-16534936D01*
X6820182Y-16534936D02*
X6810658Y-16544460D01*
X6810658Y-16544460D02*
X6791610Y-16553984D01*
X6791610Y-16553984D02*
X6772562Y-16553984D01*
X6772562Y-16553984D02*
X6753515Y-16544460D01*
X6753515Y-16544460D02*
X6743991Y-16534936D01*
X6743991Y-16534936D02*
X6734467Y-16515888D01*
X6734467Y-16515888D02*
X6724943Y-16477793D01*
X6724943Y-16477793D02*
X6724943Y-16430174D01*
X6724943Y-16430174D02*
X6734467Y-16392079D01*
X6734467Y-16392079D02*
X6743991Y-16373031D01*
X6743991Y-16373031D02*
X6753515Y-16363508D01*
X6753515Y-16363508D02*
X6772562Y-16353984D01*
X6963039Y-16353984D02*
X6982086Y-16353984D01*
X6982086Y-16353984D02*
X7001134Y-16363508D01*
X7001134Y-16363508D02*
X7010658Y-16373031D01*
X7010658Y-16373031D02*
X7020182Y-16392079D01*
X7020182Y-16392079D02*
X7029705Y-16430174D01*
X7029705Y-16430174D02*
X7029705Y-16477793D01*
X7029705Y-16477793D02*
X7020182Y-16515888D01*
X7020182Y-16515888D02*
X7010658Y-16534936D01*
X7010658Y-16534936D02*
X7001134Y-16544460D01*
X7001134Y-16544460D02*
X6982086Y-16553984D01*
X6982086Y-16553984D02*
X6963039Y-16553984D01*
X6963039Y-16553984D02*
X6943991Y-16544460D01*
X6943991Y-16544460D02*
X6934467Y-16534936D01*
X6934467Y-16534936D02*
X6924943Y-16515888D01*
X6924943Y-16515888D02*
X6915420Y-16477793D01*
X6915420Y-16477793D02*
X6915420Y-16430174D01*
X6915420Y-16430174D02*
X6924943Y-16392079D01*
X6924943Y-16392079D02*
X6934467Y-16373031D01*
X6934467Y-16373031D02*
X6943991Y-16363508D01*
X6943991Y-16363508D02*
X6963039Y-16353984D01*
X7115420Y-16553984D02*
X7115420Y-16420650D01*
X7115420Y-16439698D02*
X7124943Y-16430174D01*
X7124943Y-16430174D02*
X7143991Y-16420650D01*
X7143991Y-16420650D02*
X7172563Y-16420650D01*
X7172563Y-16420650D02*
X7191610Y-16430174D01*
X7191610Y-16430174D02*
X7201134Y-16449222D01*
X7201134Y-16449222D02*
X7201134Y-16553984D01*
X7201134Y-16449222D02*
X7210658Y-16430174D01*
X7210658Y-16430174D02*
X7229705Y-16420650D01*
X7229705Y-16420650D02*
X7258277Y-16420650D01*
X7258277Y-16420650D02*
X7277324Y-16430174D01*
X7277324Y-16430174D02*
X7286848Y-16449222D01*
X7286848Y-16449222D02*
X7286848Y-16553984D01*
X7382086Y-16553984D02*
X7382086Y-16420650D01*
X7382086Y-16439698D02*
X7391610Y-16430174D01*
X7391610Y-16430174D02*
X7410658Y-16420650D01*
X7410658Y-16420650D02*
X7439229Y-16420650D01*
X7439229Y-16420650D02*
X7458277Y-16430174D01*
X7458277Y-16430174D02*
X7467801Y-16449222D01*
X7467801Y-16449222D02*
X7467801Y-16553984D01*
X7467801Y-16449222D02*
X7477324Y-16430174D01*
X7477324Y-16430174D02*
X7496372Y-16420650D01*
X7496372Y-16420650D02*
X7524943Y-16420650D01*
X7524943Y-16420650D02*
X7543991Y-16430174D01*
X7543991Y-16430174D02*
X7553515Y-16449222D01*
X7553515Y-16449222D02*
X7553515Y-16553984D01*
X7943991Y-16344460D02*
X7772563Y-16601603D01*
X8201134Y-16353984D02*
X8220182Y-16353984D01*
X8220182Y-16353984D02*
X8239229Y-16363508D01*
X8239229Y-16363508D02*
X8248753Y-16373031D01*
X8248753Y-16373031D02*
X8258277Y-16392079D01*
X8258277Y-16392079D02*
X8267801Y-16430174D01*
X8267801Y-16430174D02*
X8267801Y-16477793D01*
X8267801Y-16477793D02*
X8258277Y-16515888D01*
X8258277Y-16515888D02*
X8248753Y-16534936D01*
X8248753Y-16534936D02*
X8239229Y-16544460D01*
X8239229Y-16544460D02*
X8220182Y-16553984D01*
X8220182Y-16553984D02*
X8201134Y-16553984D01*
X8201134Y-16553984D02*
X8182086Y-16544460D01*
X8182086Y-16544460D02*
X8172563Y-16534936D01*
X8172563Y-16534936D02*
X8163039Y-16515888D01*
X8163039Y-16515888D02*
X8153515Y-16477793D01*
X8153515Y-16477793D02*
X8153515Y-16430174D01*
X8153515Y-16430174D02*
X8163039Y-16392079D01*
X8163039Y-16392079D02*
X8172563Y-16373031D01*
X8172563Y-16373031D02*
X8182086Y-16363508D01*
X8182086Y-16363508D02*
X8201134Y-16353984D01*
X8353515Y-16534936D02*
X8363039Y-16544460D01*
X8363039Y-16544460D02*
X8353515Y-16553984D01*
X8353515Y-16553984D02*
X8343991Y-16544460D01*
X8343991Y-16544460D02*
X8353515Y-16534936D01*
X8353515Y-16534936D02*
X8353515Y-16553984D01*
X8486848Y-16353984D02*
X8505896Y-16353984D01*
X8505896Y-16353984D02*
X8524944Y-16363508D01*
X8524944Y-16363508D02*
X8534468Y-16373031D01*
X8534468Y-16373031D02*
X8543991Y-16392079D01*
X8543991Y-16392079D02*
X8553515Y-16430174D01*
X8553515Y-16430174D02*
X8553515Y-16477793D01*
X8553515Y-16477793D02*
X8543991Y-16515888D01*
X8543991Y-16515888D02*
X8534468Y-16534936D01*
X8534468Y-16534936D02*
X8524944Y-16544460D01*
X8524944Y-16544460D02*
X8505896Y-16553984D01*
X8505896Y-16553984D02*
X8486848Y-16553984D01*
X8486848Y-16553984D02*
X8467801Y-16544460D01*
X8467801Y-16544460D02*
X8458277Y-16534936D01*
X8458277Y-16534936D02*
X8448753Y-16515888D01*
X8448753Y-16515888D02*
X8439229Y-16477793D01*
X8439229Y-16477793D02*
X8439229Y-16430174D01*
X8439229Y-16430174D02*
X8448753Y-16392079D01*
X8448753Y-16392079D02*
X8458277Y-16373031D01*
X8458277Y-16373031D02*
X8467801Y-16363508D01*
X8467801Y-16363508D02*
X8486848Y-16353984D01*
X8620182Y-16353984D02*
X8743991Y-16353984D01*
X8743991Y-16353984D02*
X8677325Y-16430174D01*
X8677325Y-16430174D02*
X8705896Y-16430174D01*
X8705896Y-16430174D02*
X8724944Y-16439698D01*
X8724944Y-16439698D02*
X8734468Y-16449222D01*
X8734468Y-16449222D02*
X8743991Y-16468269D01*
X8743991Y-16468269D02*
X8743991Y-16515888D01*
X8743991Y-16515888D02*
X8734468Y-16534936D01*
X8734468Y-16534936D02*
X8724944Y-16544460D01*
X8724944Y-16544460D02*
X8705896Y-16553984D01*
X8705896Y-16553984D02*
X8648753Y-16553984D01*
X8648753Y-16553984D02*
X8629706Y-16544460D01*
X8629706Y-16544460D02*
X8620182Y-16534936D01*
X8839229Y-16553984D02*
X8877325Y-16553984D01*
X8877325Y-16553984D02*
X8896372Y-16544460D01*
X8896372Y-16544460D02*
X8905896Y-16534936D01*
X8905896Y-16534936D02*
X8924944Y-16506365D01*
X8924944Y-16506365D02*
X8934468Y-16468269D01*
X8934468Y-16468269D02*
X8934468Y-16392079D01*
X8934468Y-16392079D02*
X8924944Y-16373031D01*
X8924944Y-16373031D02*
X8915420Y-16363508D01*
X8915420Y-16363508D02*
X8896372Y-16353984D01*
X8896372Y-16353984D02*
X8858277Y-16353984D01*
X8858277Y-16353984D02*
X8839229Y-16363508D01*
X8839229Y-16363508D02*
X8829706Y-16373031D01*
X8829706Y-16373031D02*
X8820182Y-16392079D01*
X8820182Y-16392079D02*
X8820182Y-16439698D01*
X8820182Y-16439698D02*
X8829706Y-16458746D01*
X8829706Y-16458746D02*
X8839229Y-16468269D01*
X8839229Y-16468269D02*
X8858277Y-16477793D01*
X8858277Y-16477793D02*
X8896372Y-16477793D01*
X8896372Y-16477793D02*
X8915420Y-16468269D01*
X8915420Y-16468269D02*
X8924944Y-16458746D01*
X8924944Y-16458746D02*
X8934468Y-16439698D01*
X9105896Y-16420650D02*
X9105896Y-16553984D01*
X9058277Y-16344460D02*
X9010658Y-16487317D01*
X9010658Y-16487317D02*
X9134468Y-16487317D01*
X9201134Y-16353984D02*
X9201134Y-16392079D01*
X9277325Y-16353984D02*
X9277325Y-16392079D01*
X9572563Y-16630174D02*
X9563039Y-16620650D01*
X9563039Y-16620650D02*
X9543991Y-16592079D01*
X9543991Y-16592079D02*
X9534468Y-16573031D01*
X9534468Y-16573031D02*
X9524944Y-16544460D01*
X9524944Y-16544460D02*
X9515420Y-16496841D01*
X9515420Y-16496841D02*
X9515420Y-16458746D01*
X9515420Y-16458746D02*
X9524944Y-16411127D01*
X9524944Y-16411127D02*
X9534468Y-16382555D01*
X9534468Y-16382555D02*
X9543991Y-16363508D01*
X9543991Y-16363508D02*
X9563039Y-16334936D01*
X9563039Y-16334936D02*
X9572563Y-16325412D01*
X9629706Y-16353984D02*
X9753515Y-16353984D01*
X9753515Y-16353984D02*
X9686849Y-16430174D01*
X9686849Y-16430174D02*
X9715420Y-16430174D01*
X9715420Y-16430174D02*
X9734468Y-16439698D01*
X9734468Y-16439698D02*
X9743991Y-16449222D01*
X9743991Y-16449222D02*
X9753515Y-16468269D01*
X9753515Y-16468269D02*
X9753515Y-16515888D01*
X9753515Y-16515888D02*
X9743991Y-16534936D01*
X9743991Y-16534936D02*
X9734468Y-16544460D01*
X9734468Y-16544460D02*
X9715420Y-16553984D01*
X9715420Y-16553984D02*
X9658277Y-16553984D01*
X9658277Y-16553984D02*
X9639230Y-16544460D01*
X9639230Y-16544460D02*
X9629706Y-16534936D01*
X9924944Y-16353984D02*
X9886849Y-16353984D01*
X9886849Y-16353984D02*
X9867801Y-16363508D01*
X9867801Y-16363508D02*
X9858277Y-16373031D01*
X9858277Y-16373031D02*
X9839230Y-16401603D01*
X9839230Y-16401603D02*
X9829706Y-16439698D01*
X9829706Y-16439698D02*
X9829706Y-16515888D01*
X9829706Y-16515888D02*
X9839230Y-16534936D01*
X9839230Y-16534936D02*
X9848753Y-16544460D01*
X9848753Y-16544460D02*
X9867801Y-16553984D01*
X9867801Y-16553984D02*
X9905896Y-16553984D01*
X9905896Y-16553984D02*
X9924944Y-16544460D01*
X9924944Y-16544460D02*
X9934468Y-16534936D01*
X9934468Y-16534936D02*
X9943991Y-16515888D01*
X9943991Y-16515888D02*
X9943991Y-16468269D01*
X9943991Y-16468269D02*
X9934468Y-16449222D01*
X9934468Y-16449222D02*
X9924944Y-16439698D01*
X9924944Y-16439698D02*
X9905896Y-16430174D01*
X9905896Y-16430174D02*
X9867801Y-16430174D01*
X9867801Y-16430174D02*
X9848753Y-16439698D01*
X9848753Y-16439698D02*
X9839230Y-16449222D01*
X9839230Y-16449222D02*
X9829706Y-16468269D01*
X10182087Y-16553984D02*
X10182087Y-16353984D01*
X10267801Y-16553984D02*
X10267801Y-16449222D01*
X10267801Y-16449222D02*
X10258277Y-16430174D01*
X10258277Y-16430174D02*
X10239230Y-16420650D01*
X10239230Y-16420650D02*
X10210658Y-16420650D01*
X10210658Y-16420650D02*
X10191611Y-16430174D01*
X10191611Y-16430174D02*
X10182087Y-16439698D01*
X10391611Y-16553984D02*
X10372563Y-16544460D01*
X10372563Y-16544460D02*
X10363039Y-16534936D01*
X10363039Y-16534936D02*
X10353515Y-16515888D01*
X10353515Y-16515888D02*
X10353515Y-16458746D01*
X10353515Y-16458746D02*
X10363039Y-16439698D01*
X10363039Y-16439698D02*
X10372563Y-16430174D01*
X10372563Y-16430174D02*
X10391611Y-16420650D01*
X10391611Y-16420650D02*
X10420182Y-16420650D01*
X10420182Y-16420650D02*
X10439230Y-16430174D01*
X10439230Y-16430174D02*
X10448753Y-16439698D01*
X10448753Y-16439698D02*
X10458277Y-16458746D01*
X10458277Y-16458746D02*
X10458277Y-16515888D01*
X10458277Y-16515888D02*
X10448753Y-16534936D01*
X10448753Y-16534936D02*
X10439230Y-16544460D01*
X10439230Y-16544460D02*
X10420182Y-16553984D01*
X10420182Y-16553984D02*
X10391611Y-16553984D01*
X10572563Y-16553984D02*
X10553515Y-16544460D01*
X10553515Y-16544460D02*
X10543992Y-16525412D01*
X10543992Y-16525412D02*
X10543992Y-16353984D01*
X10724944Y-16544460D02*
X10705896Y-16553984D01*
X10705896Y-16553984D02*
X10667801Y-16553984D01*
X10667801Y-16553984D02*
X10648753Y-16544460D01*
X10648753Y-16544460D02*
X10639230Y-16525412D01*
X10639230Y-16525412D02*
X10639230Y-16449222D01*
X10639230Y-16449222D02*
X10648753Y-16430174D01*
X10648753Y-16430174D02*
X10667801Y-16420650D01*
X10667801Y-16420650D02*
X10705896Y-16420650D01*
X10705896Y-16420650D02*
X10724944Y-16430174D01*
X10724944Y-16430174D02*
X10734468Y-16449222D01*
X10734468Y-16449222D02*
X10734468Y-16468269D01*
X10734468Y-16468269D02*
X10639230Y-16487317D01*
X10810658Y-16544460D02*
X10829706Y-16553984D01*
X10829706Y-16553984D02*
X10867801Y-16553984D01*
X10867801Y-16553984D02*
X10886849Y-16544460D01*
X10886849Y-16544460D02*
X10896373Y-16525412D01*
X10896373Y-16525412D02*
X10896373Y-16515888D01*
X10896373Y-16515888D02*
X10886849Y-16496841D01*
X10886849Y-16496841D02*
X10867801Y-16487317D01*
X10867801Y-16487317D02*
X10839230Y-16487317D01*
X10839230Y-16487317D02*
X10820182Y-16477793D01*
X10820182Y-16477793D02*
X10810658Y-16458746D01*
X10810658Y-16458746D02*
X10810658Y-16449222D01*
X10810658Y-16449222D02*
X10820182Y-16430174D01*
X10820182Y-16430174D02*
X10839230Y-16420650D01*
X10839230Y-16420650D02*
X10867801Y-16420650D01*
X10867801Y-16420650D02*
X10886849Y-16430174D01*
X10963039Y-16630174D02*
X10972563Y-16620650D01*
X10972563Y-16620650D02*
X10991611Y-16592079D01*
X10991611Y-16592079D02*
X11001134Y-16573031D01*
X11001134Y-16573031D02*
X11010658Y-16544460D01*
X11010658Y-16544460D02*
X11020182Y-16496841D01*
X11020182Y-16496841D02*
X11020182Y-16458746D01*
X11020182Y-16458746D02*
X11010658Y-16411127D01*
X11010658Y-16411127D02*
X11001134Y-16382555D01*
X11001134Y-16382555D02*
X10991611Y-16363508D01*
X10991611Y-16363508D02*
X10972563Y-16334936D01*
X10972563Y-16334936D02*
X10963039Y-16325412D01*
D13*
X5877500Y-16666500D02*
X5997500Y-16786500D01*
X5997500Y-16666500D02*
X5877500Y-16786500D01*
X5937500Y-16666500D02*
X5937500Y-16786500D01*
X5877500Y-16726500D02*
X5997500Y-16726500D01*
D11*
X6363039Y-16817984D02*
X6248753Y-16817984D01*
X6305896Y-16817984D02*
X6305896Y-16617984D01*
X6305896Y-16617984D02*
X6286848Y-16646555D01*
X6286848Y-16646555D02*
X6267801Y-16665603D01*
X6267801Y-16665603D02*
X6248753Y-16675127D01*
X6448753Y-16798936D02*
X6458277Y-16808460D01*
X6458277Y-16808460D02*
X6448753Y-16817984D01*
X6448753Y-16817984D02*
X6439229Y-16808460D01*
X6439229Y-16808460D02*
X6448753Y-16798936D01*
X6448753Y-16798936D02*
X6448753Y-16817984D01*
X6534467Y-16637031D02*
X6543991Y-16627508D01*
X6543991Y-16627508D02*
X6563039Y-16617984D01*
X6563039Y-16617984D02*
X6610658Y-16617984D01*
X6610658Y-16617984D02*
X6629705Y-16627508D01*
X6629705Y-16627508D02*
X6639229Y-16637031D01*
X6639229Y-16637031D02*
X6648753Y-16656079D01*
X6648753Y-16656079D02*
X6648753Y-16675127D01*
X6648753Y-16675127D02*
X6639229Y-16703698D01*
X6639229Y-16703698D02*
X6524943Y-16817984D01*
X6524943Y-16817984D02*
X6648753Y-16817984D01*
X6772562Y-16617984D02*
X6791610Y-16617984D01*
X6791610Y-16617984D02*
X6810658Y-16627508D01*
X6810658Y-16627508D02*
X6820182Y-16637031D01*
X6820182Y-16637031D02*
X6829705Y-16656079D01*
X6829705Y-16656079D02*
X6839229Y-16694174D01*
X6839229Y-16694174D02*
X6839229Y-16741793D01*
X6839229Y-16741793D02*
X6829705Y-16779889D01*
X6829705Y-16779889D02*
X6820182Y-16798936D01*
X6820182Y-16798936D02*
X6810658Y-16808460D01*
X6810658Y-16808460D02*
X6791610Y-16817984D01*
X6791610Y-16817984D02*
X6772562Y-16817984D01*
X6772562Y-16817984D02*
X6753515Y-16808460D01*
X6753515Y-16808460D02*
X6743991Y-16798936D01*
X6743991Y-16798936D02*
X6734467Y-16779889D01*
X6734467Y-16779889D02*
X6724943Y-16741793D01*
X6724943Y-16741793D02*
X6724943Y-16694174D01*
X6724943Y-16694174D02*
X6734467Y-16656079D01*
X6734467Y-16656079D02*
X6743991Y-16637031D01*
X6743991Y-16637031D02*
X6753515Y-16627508D01*
X6753515Y-16627508D02*
X6772562Y-16617984D01*
X6963039Y-16617984D02*
X6982086Y-16617984D01*
X6982086Y-16617984D02*
X7001134Y-16627508D01*
X7001134Y-16627508D02*
X7010658Y-16637031D01*
X7010658Y-16637031D02*
X7020182Y-16656079D01*
X7020182Y-16656079D02*
X7029705Y-16694174D01*
X7029705Y-16694174D02*
X7029705Y-16741793D01*
X7029705Y-16741793D02*
X7020182Y-16779889D01*
X7020182Y-16779889D02*
X7010658Y-16798936D01*
X7010658Y-16798936D02*
X7001134Y-16808460D01*
X7001134Y-16808460D02*
X6982086Y-16817984D01*
X6982086Y-16817984D02*
X6963039Y-16817984D01*
X6963039Y-16817984D02*
X6943991Y-16808460D01*
X6943991Y-16808460D02*
X6934467Y-16798936D01*
X6934467Y-16798936D02*
X6924943Y-16779889D01*
X6924943Y-16779889D02*
X6915420Y-16741793D01*
X6915420Y-16741793D02*
X6915420Y-16694174D01*
X6915420Y-16694174D02*
X6924943Y-16656079D01*
X6924943Y-16656079D02*
X6934467Y-16637031D01*
X6934467Y-16637031D02*
X6943991Y-16627508D01*
X6943991Y-16627508D02*
X6963039Y-16617984D01*
X7115420Y-16817984D02*
X7115420Y-16684650D01*
X7115420Y-16703698D02*
X7124943Y-16694174D01*
X7124943Y-16694174D02*
X7143991Y-16684650D01*
X7143991Y-16684650D02*
X7172563Y-16684650D01*
X7172563Y-16684650D02*
X7191610Y-16694174D01*
X7191610Y-16694174D02*
X7201134Y-16713222D01*
X7201134Y-16713222D02*
X7201134Y-16817984D01*
X7201134Y-16713222D02*
X7210658Y-16694174D01*
X7210658Y-16694174D02*
X7229705Y-16684650D01*
X7229705Y-16684650D02*
X7258277Y-16684650D01*
X7258277Y-16684650D02*
X7277324Y-16694174D01*
X7277324Y-16694174D02*
X7286848Y-16713222D01*
X7286848Y-16713222D02*
X7286848Y-16817984D01*
X7382086Y-16817984D02*
X7382086Y-16684650D01*
X7382086Y-16703698D02*
X7391610Y-16694174D01*
X7391610Y-16694174D02*
X7410658Y-16684650D01*
X7410658Y-16684650D02*
X7439229Y-16684650D01*
X7439229Y-16684650D02*
X7458277Y-16694174D01*
X7458277Y-16694174D02*
X7467801Y-16713222D01*
X7467801Y-16713222D02*
X7467801Y-16817984D01*
X7467801Y-16713222D02*
X7477324Y-16694174D01*
X7477324Y-16694174D02*
X7496372Y-16684650D01*
X7496372Y-16684650D02*
X7524943Y-16684650D01*
X7524943Y-16684650D02*
X7543991Y-16694174D01*
X7543991Y-16694174D02*
X7553515Y-16713222D01*
X7553515Y-16713222D02*
X7553515Y-16817984D01*
X7943991Y-16608460D02*
X7772563Y-16865603D01*
X8201134Y-16617984D02*
X8220182Y-16617984D01*
X8220182Y-16617984D02*
X8239229Y-16627508D01*
X8239229Y-16627508D02*
X8248753Y-16637031D01*
X8248753Y-16637031D02*
X8258277Y-16656079D01*
X8258277Y-16656079D02*
X8267801Y-16694174D01*
X8267801Y-16694174D02*
X8267801Y-16741793D01*
X8267801Y-16741793D02*
X8258277Y-16779889D01*
X8258277Y-16779889D02*
X8248753Y-16798936D01*
X8248753Y-16798936D02*
X8239229Y-16808460D01*
X8239229Y-16808460D02*
X8220182Y-16817984D01*
X8220182Y-16817984D02*
X8201134Y-16817984D01*
X8201134Y-16817984D02*
X8182086Y-16808460D01*
X8182086Y-16808460D02*
X8172563Y-16798936D01*
X8172563Y-16798936D02*
X8163039Y-16779889D01*
X8163039Y-16779889D02*
X8153515Y-16741793D01*
X8153515Y-16741793D02*
X8153515Y-16694174D01*
X8153515Y-16694174D02*
X8163039Y-16656079D01*
X8163039Y-16656079D02*
X8172563Y-16637031D01*
X8172563Y-16637031D02*
X8182086Y-16627508D01*
X8182086Y-16627508D02*
X8201134Y-16617984D01*
X8353515Y-16798936D02*
X8363039Y-16808460D01*
X8363039Y-16808460D02*
X8353515Y-16817984D01*
X8353515Y-16817984D02*
X8343991Y-16808460D01*
X8343991Y-16808460D02*
X8353515Y-16798936D01*
X8353515Y-16798936D02*
X8353515Y-16817984D01*
X8486848Y-16617984D02*
X8505896Y-16617984D01*
X8505896Y-16617984D02*
X8524944Y-16627508D01*
X8524944Y-16627508D02*
X8534468Y-16637031D01*
X8534468Y-16637031D02*
X8543991Y-16656079D01*
X8543991Y-16656079D02*
X8553515Y-16694174D01*
X8553515Y-16694174D02*
X8553515Y-16741793D01*
X8553515Y-16741793D02*
X8543991Y-16779889D01*
X8543991Y-16779889D02*
X8534468Y-16798936D01*
X8534468Y-16798936D02*
X8524944Y-16808460D01*
X8524944Y-16808460D02*
X8505896Y-16817984D01*
X8505896Y-16817984D02*
X8486848Y-16817984D01*
X8486848Y-16817984D02*
X8467801Y-16808460D01*
X8467801Y-16808460D02*
X8458277Y-16798936D01*
X8458277Y-16798936D02*
X8448753Y-16779889D01*
X8448753Y-16779889D02*
X8439229Y-16741793D01*
X8439229Y-16741793D02*
X8439229Y-16694174D01*
X8439229Y-16694174D02*
X8448753Y-16656079D01*
X8448753Y-16656079D02*
X8458277Y-16637031D01*
X8458277Y-16637031D02*
X8467801Y-16627508D01*
X8467801Y-16627508D02*
X8486848Y-16617984D01*
X8724944Y-16684650D02*
X8724944Y-16817984D01*
X8677325Y-16608460D02*
X8629706Y-16751317D01*
X8629706Y-16751317D02*
X8753515Y-16751317D01*
X8810658Y-16617984D02*
X8943991Y-16617984D01*
X8943991Y-16617984D02*
X8858277Y-16817984D01*
X9010658Y-16637031D02*
X9020182Y-16627508D01*
X9020182Y-16627508D02*
X9039229Y-16617984D01*
X9039229Y-16617984D02*
X9086849Y-16617984D01*
X9086849Y-16617984D02*
X9105896Y-16627508D01*
X9105896Y-16627508D02*
X9115420Y-16637031D01*
X9115420Y-16637031D02*
X9124944Y-16656079D01*
X9124944Y-16656079D02*
X9124944Y-16675127D01*
X9124944Y-16675127D02*
X9115420Y-16703698D01*
X9115420Y-16703698D02*
X9001134Y-16817984D01*
X9001134Y-16817984D02*
X9124944Y-16817984D01*
X9201134Y-16617984D02*
X9201134Y-16656079D01*
X9277325Y-16617984D02*
X9277325Y-16656079D01*
X9572563Y-16894174D02*
X9563039Y-16884650D01*
X9563039Y-16884650D02*
X9543991Y-16856079D01*
X9543991Y-16856079D02*
X9534468Y-16837031D01*
X9534468Y-16837031D02*
X9524944Y-16808460D01*
X9524944Y-16808460D02*
X9515420Y-16760841D01*
X9515420Y-16760841D02*
X9515420Y-16722746D01*
X9515420Y-16722746D02*
X9524944Y-16675127D01*
X9524944Y-16675127D02*
X9534468Y-16646555D01*
X9534468Y-16646555D02*
X9543991Y-16627508D01*
X9543991Y-16627508D02*
X9563039Y-16598936D01*
X9563039Y-16598936D02*
X9572563Y-16589412D01*
X9629706Y-16617984D02*
X9753515Y-16617984D01*
X9753515Y-16617984D02*
X9686849Y-16694174D01*
X9686849Y-16694174D02*
X9715420Y-16694174D01*
X9715420Y-16694174D02*
X9734468Y-16703698D01*
X9734468Y-16703698D02*
X9743991Y-16713222D01*
X9743991Y-16713222D02*
X9753515Y-16732269D01*
X9753515Y-16732269D02*
X9753515Y-16779889D01*
X9753515Y-16779889D02*
X9743991Y-16798936D01*
X9743991Y-16798936D02*
X9734468Y-16808460D01*
X9734468Y-16808460D02*
X9715420Y-16817984D01*
X9715420Y-16817984D02*
X9658277Y-16817984D01*
X9658277Y-16817984D02*
X9639230Y-16808460D01*
X9639230Y-16808460D02*
X9629706Y-16798936D01*
X9924944Y-16617984D02*
X9886849Y-16617984D01*
X9886849Y-16617984D02*
X9867801Y-16627508D01*
X9867801Y-16627508D02*
X9858277Y-16637031D01*
X9858277Y-16637031D02*
X9839230Y-16665603D01*
X9839230Y-16665603D02*
X9829706Y-16703698D01*
X9829706Y-16703698D02*
X9829706Y-16779889D01*
X9829706Y-16779889D02*
X9839230Y-16798936D01*
X9839230Y-16798936D02*
X9848753Y-16808460D01*
X9848753Y-16808460D02*
X9867801Y-16817984D01*
X9867801Y-16817984D02*
X9905896Y-16817984D01*
X9905896Y-16817984D02*
X9924944Y-16808460D01*
X9924944Y-16808460D02*
X9934468Y-16798936D01*
X9934468Y-16798936D02*
X9943991Y-16779889D01*
X9943991Y-16779889D02*
X9943991Y-16732269D01*
X9943991Y-16732269D02*
X9934468Y-16713222D01*
X9934468Y-16713222D02*
X9924944Y-16703698D01*
X9924944Y-16703698D02*
X9905896Y-16694174D01*
X9905896Y-16694174D02*
X9867801Y-16694174D01*
X9867801Y-16694174D02*
X9848753Y-16703698D01*
X9848753Y-16703698D02*
X9839230Y-16713222D01*
X9839230Y-16713222D02*
X9829706Y-16732269D01*
X10182087Y-16817984D02*
X10182087Y-16617984D01*
X10267801Y-16817984D02*
X10267801Y-16713222D01*
X10267801Y-16713222D02*
X10258277Y-16694174D01*
X10258277Y-16694174D02*
X10239230Y-16684650D01*
X10239230Y-16684650D02*
X10210658Y-16684650D01*
X10210658Y-16684650D02*
X10191611Y-16694174D01*
X10191611Y-16694174D02*
X10182087Y-16703698D01*
X10391611Y-16817984D02*
X10372563Y-16808460D01*
X10372563Y-16808460D02*
X10363039Y-16798936D01*
X10363039Y-16798936D02*
X10353515Y-16779889D01*
X10353515Y-16779889D02*
X10353515Y-16722746D01*
X10353515Y-16722746D02*
X10363039Y-16703698D01*
X10363039Y-16703698D02*
X10372563Y-16694174D01*
X10372563Y-16694174D02*
X10391611Y-16684650D01*
X10391611Y-16684650D02*
X10420182Y-16684650D01*
X10420182Y-16684650D02*
X10439230Y-16694174D01*
X10439230Y-16694174D02*
X10448753Y-16703698D01*
X10448753Y-16703698D02*
X10458277Y-16722746D01*
X10458277Y-16722746D02*
X10458277Y-16779889D01*
X10458277Y-16779889D02*
X10448753Y-16798936D01*
X10448753Y-16798936D02*
X10439230Y-16808460D01*
X10439230Y-16808460D02*
X10420182Y-16817984D01*
X10420182Y-16817984D02*
X10391611Y-16817984D01*
X10572563Y-16817984D02*
X10553515Y-16808460D01*
X10553515Y-16808460D02*
X10543992Y-16789412D01*
X10543992Y-16789412D02*
X10543992Y-16617984D01*
X10724944Y-16808460D02*
X10705896Y-16817984D01*
X10705896Y-16817984D02*
X10667801Y-16817984D01*
X10667801Y-16817984D02*
X10648753Y-16808460D01*
X10648753Y-16808460D02*
X10639230Y-16789412D01*
X10639230Y-16789412D02*
X10639230Y-16713222D01*
X10639230Y-16713222D02*
X10648753Y-16694174D01*
X10648753Y-16694174D02*
X10667801Y-16684650D01*
X10667801Y-16684650D02*
X10705896Y-16684650D01*
X10705896Y-16684650D02*
X10724944Y-16694174D01*
X10724944Y-16694174D02*
X10734468Y-16713222D01*
X10734468Y-16713222D02*
X10734468Y-16732269D01*
X10734468Y-16732269D02*
X10639230Y-16751317D01*
X10810658Y-16808460D02*
X10829706Y-16817984D01*
X10829706Y-16817984D02*
X10867801Y-16817984D01*
X10867801Y-16817984D02*
X10886849Y-16808460D01*
X10886849Y-16808460D02*
X10896373Y-16789412D01*
X10896373Y-16789412D02*
X10896373Y-16779889D01*
X10896373Y-16779889D02*
X10886849Y-16760841D01*
X10886849Y-16760841D02*
X10867801Y-16751317D01*
X10867801Y-16751317D02*
X10839230Y-16751317D01*
X10839230Y-16751317D02*
X10820182Y-16741793D01*
X10820182Y-16741793D02*
X10810658Y-16722746D01*
X10810658Y-16722746D02*
X10810658Y-16713222D01*
X10810658Y-16713222D02*
X10820182Y-16694174D01*
X10820182Y-16694174D02*
X10839230Y-16684650D01*
X10839230Y-16684650D02*
X10867801Y-16684650D01*
X10867801Y-16684650D02*
X10886849Y-16694174D01*
X10963039Y-16894174D02*
X10972563Y-16884650D01*
X10972563Y-16884650D02*
X10991611Y-16856079D01*
X10991611Y-16856079D02*
X11001134Y-16837031D01*
X11001134Y-16837031D02*
X11010658Y-16808460D01*
X11010658Y-16808460D02*
X11020182Y-16760841D01*
X11020182Y-16760841D02*
X11020182Y-16722746D01*
X11020182Y-16722746D02*
X11010658Y-16675127D01*
X11010658Y-16675127D02*
X11001134Y-16646555D01*
X11001134Y-16646555D02*
X10991611Y-16627508D01*
X10991611Y-16627508D02*
X10972563Y-16598936D01*
X10972563Y-16598936D02*
X10963039Y-16589412D01*
D14*
X5867500Y-16925500D02*
X5997500Y-17055500D01*
X5997500Y-16925500D02*
X5867500Y-17055500D01*
X5978462Y-17036462D02*
X5978462Y-16944538D01*
X5886538Y-16944538D01*
X5886538Y-17036462D01*
X5978462Y-17036462D01*
D11*
X6363039Y-17081984D02*
X6248753Y-17081984D01*
X6305896Y-17081984D02*
X6305896Y-16881984D01*
X6305896Y-16881984D02*
X6286848Y-16910555D01*
X6286848Y-16910555D02*
X6267801Y-16929603D01*
X6267801Y-16929603D02*
X6248753Y-16939127D01*
X6448753Y-17062936D02*
X6458277Y-17072460D01*
X6458277Y-17072460D02*
X6448753Y-17081984D01*
X6448753Y-17081984D02*
X6439229Y-17072460D01*
X6439229Y-17072460D02*
X6448753Y-17062936D01*
X6448753Y-17062936D02*
X6448753Y-17081984D01*
X6524943Y-16881984D02*
X6648753Y-16881984D01*
X6648753Y-16881984D02*
X6582086Y-16958174D01*
X6582086Y-16958174D02*
X6610658Y-16958174D01*
X6610658Y-16958174D02*
X6629705Y-16967698D01*
X6629705Y-16967698D02*
X6639229Y-16977222D01*
X6639229Y-16977222D02*
X6648753Y-16996270D01*
X6648753Y-16996270D02*
X6648753Y-17043889D01*
X6648753Y-17043889D02*
X6639229Y-17062936D01*
X6639229Y-17062936D02*
X6629705Y-17072460D01*
X6629705Y-17072460D02*
X6610658Y-17081984D01*
X6610658Y-17081984D02*
X6553515Y-17081984D01*
X6553515Y-17081984D02*
X6534467Y-17072460D01*
X6534467Y-17072460D02*
X6524943Y-17062936D01*
X6772562Y-16881984D02*
X6791610Y-16881984D01*
X6791610Y-16881984D02*
X6810658Y-16891508D01*
X6810658Y-16891508D02*
X6820182Y-16901031D01*
X6820182Y-16901031D02*
X6829705Y-16920079D01*
X6829705Y-16920079D02*
X6839229Y-16958174D01*
X6839229Y-16958174D02*
X6839229Y-17005793D01*
X6839229Y-17005793D02*
X6829705Y-17043889D01*
X6829705Y-17043889D02*
X6820182Y-17062936D01*
X6820182Y-17062936D02*
X6810658Y-17072460D01*
X6810658Y-17072460D02*
X6791610Y-17081984D01*
X6791610Y-17081984D02*
X6772562Y-17081984D01*
X6772562Y-17081984D02*
X6753515Y-17072460D01*
X6753515Y-17072460D02*
X6743991Y-17062936D01*
X6743991Y-17062936D02*
X6734467Y-17043889D01*
X6734467Y-17043889D02*
X6724943Y-17005793D01*
X6724943Y-17005793D02*
X6724943Y-16958174D01*
X6724943Y-16958174D02*
X6734467Y-16920079D01*
X6734467Y-16920079D02*
X6743991Y-16901031D01*
X6743991Y-16901031D02*
X6753515Y-16891508D01*
X6753515Y-16891508D02*
X6772562Y-16881984D01*
X6963039Y-16881984D02*
X6982086Y-16881984D01*
X6982086Y-16881984D02*
X7001134Y-16891508D01*
X7001134Y-16891508D02*
X7010658Y-16901031D01*
X7010658Y-16901031D02*
X7020182Y-16920079D01*
X7020182Y-16920079D02*
X7029705Y-16958174D01*
X7029705Y-16958174D02*
X7029705Y-17005793D01*
X7029705Y-17005793D02*
X7020182Y-17043889D01*
X7020182Y-17043889D02*
X7010658Y-17062936D01*
X7010658Y-17062936D02*
X7001134Y-17072460D01*
X7001134Y-17072460D02*
X6982086Y-17081984D01*
X6982086Y-17081984D02*
X6963039Y-17081984D01*
X6963039Y-17081984D02*
X6943991Y-17072460D01*
X6943991Y-17072460D02*
X6934467Y-17062936D01*
X6934467Y-17062936D02*
X6924943Y-17043889D01*
X6924943Y-17043889D02*
X6915420Y-17005793D01*
X6915420Y-17005793D02*
X6915420Y-16958174D01*
X6915420Y-16958174D02*
X6924943Y-16920079D01*
X6924943Y-16920079D02*
X6934467Y-16901031D01*
X6934467Y-16901031D02*
X6943991Y-16891508D01*
X6943991Y-16891508D02*
X6963039Y-16881984D01*
X7115420Y-17081984D02*
X7115420Y-16948650D01*
X7115420Y-16967698D02*
X7124943Y-16958174D01*
X7124943Y-16958174D02*
X7143991Y-16948650D01*
X7143991Y-16948650D02*
X7172563Y-16948650D01*
X7172563Y-16948650D02*
X7191610Y-16958174D01*
X7191610Y-16958174D02*
X7201134Y-16977222D01*
X7201134Y-16977222D02*
X7201134Y-17081984D01*
X7201134Y-16977222D02*
X7210658Y-16958174D01*
X7210658Y-16958174D02*
X7229705Y-16948650D01*
X7229705Y-16948650D02*
X7258277Y-16948650D01*
X7258277Y-16948650D02*
X7277324Y-16958174D01*
X7277324Y-16958174D02*
X7286848Y-16977222D01*
X7286848Y-16977222D02*
X7286848Y-17081984D01*
X7382086Y-17081984D02*
X7382086Y-16948650D01*
X7382086Y-16967698D02*
X7391610Y-16958174D01*
X7391610Y-16958174D02*
X7410658Y-16948650D01*
X7410658Y-16948650D02*
X7439229Y-16948650D01*
X7439229Y-16948650D02*
X7458277Y-16958174D01*
X7458277Y-16958174D02*
X7467801Y-16977222D01*
X7467801Y-16977222D02*
X7467801Y-17081984D01*
X7467801Y-16977222D02*
X7477324Y-16958174D01*
X7477324Y-16958174D02*
X7496372Y-16948650D01*
X7496372Y-16948650D02*
X7524943Y-16948650D01*
X7524943Y-16948650D02*
X7543991Y-16958174D01*
X7543991Y-16958174D02*
X7553515Y-16977222D01*
X7553515Y-16977222D02*
X7553515Y-17081984D01*
X7943991Y-16872460D02*
X7772563Y-17129603D01*
X8201134Y-16881984D02*
X8220182Y-16881984D01*
X8220182Y-16881984D02*
X8239229Y-16891508D01*
X8239229Y-16891508D02*
X8248753Y-16901031D01*
X8248753Y-16901031D02*
X8258277Y-16920079D01*
X8258277Y-16920079D02*
X8267801Y-16958174D01*
X8267801Y-16958174D02*
X8267801Y-17005793D01*
X8267801Y-17005793D02*
X8258277Y-17043889D01*
X8258277Y-17043889D02*
X8248753Y-17062936D01*
X8248753Y-17062936D02*
X8239229Y-17072460D01*
X8239229Y-17072460D02*
X8220182Y-17081984D01*
X8220182Y-17081984D02*
X8201134Y-17081984D01*
X8201134Y-17081984D02*
X8182086Y-17072460D01*
X8182086Y-17072460D02*
X8172563Y-17062936D01*
X8172563Y-17062936D02*
X8163039Y-17043889D01*
X8163039Y-17043889D02*
X8153515Y-17005793D01*
X8153515Y-17005793D02*
X8153515Y-16958174D01*
X8153515Y-16958174D02*
X8163039Y-16920079D01*
X8163039Y-16920079D02*
X8172563Y-16901031D01*
X8172563Y-16901031D02*
X8182086Y-16891508D01*
X8182086Y-16891508D02*
X8201134Y-16881984D01*
X8353515Y-17062936D02*
X8363039Y-17072460D01*
X8363039Y-17072460D02*
X8353515Y-17081984D01*
X8353515Y-17081984D02*
X8343991Y-17072460D01*
X8343991Y-17072460D02*
X8353515Y-17062936D01*
X8353515Y-17062936D02*
X8353515Y-17081984D01*
X8486848Y-16881984D02*
X8505896Y-16881984D01*
X8505896Y-16881984D02*
X8524944Y-16891508D01*
X8524944Y-16891508D02*
X8534468Y-16901031D01*
X8534468Y-16901031D02*
X8543991Y-16920079D01*
X8543991Y-16920079D02*
X8553515Y-16958174D01*
X8553515Y-16958174D02*
X8553515Y-17005793D01*
X8553515Y-17005793D02*
X8543991Y-17043889D01*
X8543991Y-17043889D02*
X8534468Y-17062936D01*
X8534468Y-17062936D02*
X8524944Y-17072460D01*
X8524944Y-17072460D02*
X8505896Y-17081984D01*
X8505896Y-17081984D02*
X8486848Y-17081984D01*
X8486848Y-17081984D02*
X8467801Y-17072460D01*
X8467801Y-17072460D02*
X8458277Y-17062936D01*
X8458277Y-17062936D02*
X8448753Y-17043889D01*
X8448753Y-17043889D02*
X8439229Y-17005793D01*
X8439229Y-17005793D02*
X8439229Y-16958174D01*
X8439229Y-16958174D02*
X8448753Y-16920079D01*
X8448753Y-16920079D02*
X8458277Y-16901031D01*
X8458277Y-16901031D02*
X8467801Y-16891508D01*
X8467801Y-16891508D02*
X8486848Y-16881984D01*
X8734468Y-16881984D02*
X8639229Y-16881984D01*
X8639229Y-16881984D02*
X8629706Y-16977222D01*
X8629706Y-16977222D02*
X8639229Y-16967698D01*
X8639229Y-16967698D02*
X8658277Y-16958174D01*
X8658277Y-16958174D02*
X8705896Y-16958174D01*
X8705896Y-16958174D02*
X8724944Y-16967698D01*
X8724944Y-16967698D02*
X8734468Y-16977222D01*
X8734468Y-16977222D02*
X8743991Y-16996270D01*
X8743991Y-16996270D02*
X8743991Y-17043889D01*
X8743991Y-17043889D02*
X8734468Y-17062936D01*
X8734468Y-17062936D02*
X8724944Y-17072460D01*
X8724944Y-17072460D02*
X8705896Y-17081984D01*
X8705896Y-17081984D02*
X8658277Y-17081984D01*
X8658277Y-17081984D02*
X8639229Y-17072460D01*
X8639229Y-17072460D02*
X8629706Y-17062936D01*
X8934468Y-17081984D02*
X8820182Y-17081984D01*
X8877325Y-17081984D02*
X8877325Y-16881984D01*
X8877325Y-16881984D02*
X8858277Y-16910555D01*
X8858277Y-16910555D02*
X8839229Y-16929603D01*
X8839229Y-16929603D02*
X8820182Y-16939127D01*
X9010658Y-16901031D02*
X9020182Y-16891508D01*
X9020182Y-16891508D02*
X9039229Y-16881984D01*
X9039229Y-16881984D02*
X9086849Y-16881984D01*
X9086849Y-16881984D02*
X9105896Y-16891508D01*
X9105896Y-16891508D02*
X9115420Y-16901031D01*
X9115420Y-16901031D02*
X9124944Y-16920079D01*
X9124944Y-16920079D02*
X9124944Y-16939127D01*
X9124944Y-16939127D02*
X9115420Y-16967698D01*
X9115420Y-16967698D02*
X9001134Y-17081984D01*
X9001134Y-17081984D02*
X9124944Y-17081984D01*
X9201134Y-16881984D02*
X9201134Y-16920079D01*
X9277325Y-16881984D02*
X9277325Y-16920079D01*
X9572563Y-17158174D02*
X9563039Y-17148650D01*
X9563039Y-17148650D02*
X9543991Y-17120079D01*
X9543991Y-17120079D02*
X9534468Y-17101031D01*
X9534468Y-17101031D02*
X9524944Y-17072460D01*
X9524944Y-17072460D02*
X9515420Y-17024841D01*
X9515420Y-17024841D02*
X9515420Y-16986746D01*
X9515420Y-16986746D02*
X9524944Y-16939127D01*
X9524944Y-16939127D02*
X9534468Y-16910555D01*
X9534468Y-16910555D02*
X9543991Y-16891508D01*
X9543991Y-16891508D02*
X9563039Y-16862936D01*
X9563039Y-16862936D02*
X9572563Y-16853412D01*
X9734468Y-16948650D02*
X9734468Y-17081984D01*
X9686849Y-16872460D02*
X9639230Y-17015317D01*
X9639230Y-17015317D02*
X9763039Y-17015317D01*
X9991611Y-17081984D02*
X9991611Y-16881984D01*
X10077325Y-17081984D02*
X10077325Y-16977222D01*
X10077325Y-16977222D02*
X10067801Y-16958174D01*
X10067801Y-16958174D02*
X10048753Y-16948650D01*
X10048753Y-16948650D02*
X10020182Y-16948650D01*
X10020182Y-16948650D02*
X10001134Y-16958174D01*
X10001134Y-16958174D02*
X9991611Y-16967698D01*
X10201134Y-17081984D02*
X10182087Y-17072460D01*
X10182087Y-17072460D02*
X10172563Y-17062936D01*
X10172563Y-17062936D02*
X10163039Y-17043889D01*
X10163039Y-17043889D02*
X10163039Y-16986746D01*
X10163039Y-16986746D02*
X10172563Y-16967698D01*
X10172563Y-16967698D02*
X10182087Y-16958174D01*
X10182087Y-16958174D02*
X10201134Y-16948650D01*
X10201134Y-16948650D02*
X10229706Y-16948650D01*
X10229706Y-16948650D02*
X10248753Y-16958174D01*
X10248753Y-16958174D02*
X10258277Y-16967698D01*
X10258277Y-16967698D02*
X10267801Y-16986746D01*
X10267801Y-16986746D02*
X10267801Y-17043889D01*
X10267801Y-17043889D02*
X10258277Y-17062936D01*
X10258277Y-17062936D02*
X10248753Y-17072460D01*
X10248753Y-17072460D02*
X10229706Y-17081984D01*
X10229706Y-17081984D02*
X10201134Y-17081984D01*
X10382087Y-17081984D02*
X10363039Y-17072460D01*
X10363039Y-17072460D02*
X10353515Y-17053412D01*
X10353515Y-17053412D02*
X10353515Y-16881984D01*
X10534468Y-17072460D02*
X10515420Y-17081984D01*
X10515420Y-17081984D02*
X10477325Y-17081984D01*
X10477325Y-17081984D02*
X10458277Y-17072460D01*
X10458277Y-17072460D02*
X10448753Y-17053412D01*
X10448753Y-17053412D02*
X10448753Y-16977222D01*
X10448753Y-16977222D02*
X10458277Y-16958174D01*
X10458277Y-16958174D02*
X10477325Y-16948650D01*
X10477325Y-16948650D02*
X10515420Y-16948650D01*
X10515420Y-16948650D02*
X10534468Y-16958174D01*
X10534468Y-16958174D02*
X10543992Y-16977222D01*
X10543992Y-16977222D02*
X10543992Y-16996270D01*
X10543992Y-16996270D02*
X10448753Y-17015317D01*
X10620182Y-17072460D02*
X10639230Y-17081984D01*
X10639230Y-17081984D02*
X10677325Y-17081984D01*
X10677325Y-17081984D02*
X10696373Y-17072460D01*
X10696373Y-17072460D02*
X10705896Y-17053412D01*
X10705896Y-17053412D02*
X10705896Y-17043889D01*
X10705896Y-17043889D02*
X10696373Y-17024841D01*
X10696373Y-17024841D02*
X10677325Y-17015317D01*
X10677325Y-17015317D02*
X10648753Y-17015317D01*
X10648753Y-17015317D02*
X10629706Y-17005793D01*
X10629706Y-17005793D02*
X10620182Y-16986746D01*
X10620182Y-16986746D02*
X10620182Y-16977222D01*
X10620182Y-16977222D02*
X10629706Y-16958174D01*
X10629706Y-16958174D02*
X10648753Y-16948650D01*
X10648753Y-16948650D02*
X10677325Y-16948650D01*
X10677325Y-16948650D02*
X10696373Y-16958174D01*
X10772563Y-17158174D02*
X10782087Y-17148650D01*
X10782087Y-17148650D02*
X10801134Y-17120079D01*
X10801134Y-17120079D02*
X10810658Y-17101031D01*
X10810658Y-17101031D02*
X10820182Y-17072460D01*
X10820182Y-17072460D02*
X10829706Y-17024841D01*
X10829706Y-17024841D02*
X10829706Y-16986746D01*
X10829706Y-16986746D02*
X10820182Y-16939127D01*
X10820182Y-16939127D02*
X10810658Y-16910555D01*
X10810658Y-16910555D02*
X10801134Y-16891508D01*
X10801134Y-16891508D02*
X10782087Y-16862936D01*
X10782087Y-16862936D02*
X10772563Y-16853412D01*
X5797500Y-17154500D02*
X5997500Y-17354500D01*
X5997500Y-17154500D02*
X5797500Y-17354500D01*
X5897500Y-17354500D02*
X5997500Y-17254500D01*
X5897500Y-17154500D01*
X5797500Y-17254500D01*
X5897500Y-17354500D01*
X6239229Y-17145984D02*
X6363039Y-17145984D01*
X6363039Y-17145984D02*
X6296372Y-17222174D01*
X6296372Y-17222174D02*
X6324943Y-17222174D01*
X6324943Y-17222174D02*
X6343991Y-17231698D01*
X6343991Y-17231698D02*
X6353515Y-17241222D01*
X6353515Y-17241222D02*
X6363039Y-17260270D01*
X6363039Y-17260270D02*
X6363039Y-17307889D01*
X6363039Y-17307889D02*
X6353515Y-17326936D01*
X6353515Y-17326936D02*
X6343991Y-17336460D01*
X6343991Y-17336460D02*
X6324943Y-17345984D01*
X6324943Y-17345984D02*
X6267801Y-17345984D01*
X6267801Y-17345984D02*
X6248753Y-17336460D01*
X6248753Y-17336460D02*
X6239229Y-17326936D01*
X6448753Y-17326936D02*
X6458277Y-17336460D01*
X6458277Y-17336460D02*
X6448753Y-17345984D01*
X6448753Y-17345984D02*
X6439229Y-17336460D01*
X6439229Y-17336460D02*
X6448753Y-17326936D01*
X6448753Y-17326936D02*
X6448753Y-17345984D01*
X6534467Y-17165031D02*
X6543991Y-17155508D01*
X6543991Y-17155508D02*
X6563039Y-17145984D01*
X6563039Y-17145984D02*
X6610658Y-17145984D01*
X6610658Y-17145984D02*
X6629705Y-17155508D01*
X6629705Y-17155508D02*
X6639229Y-17165031D01*
X6639229Y-17165031D02*
X6648753Y-17184079D01*
X6648753Y-17184079D02*
X6648753Y-17203127D01*
X6648753Y-17203127D02*
X6639229Y-17231698D01*
X6639229Y-17231698D02*
X6524943Y-17345984D01*
X6524943Y-17345984D02*
X6648753Y-17345984D01*
X6772562Y-17145984D02*
X6791610Y-17145984D01*
X6791610Y-17145984D02*
X6810658Y-17155508D01*
X6810658Y-17155508D02*
X6820182Y-17165031D01*
X6820182Y-17165031D02*
X6829705Y-17184079D01*
X6829705Y-17184079D02*
X6839229Y-17222174D01*
X6839229Y-17222174D02*
X6839229Y-17269793D01*
X6839229Y-17269793D02*
X6829705Y-17307889D01*
X6829705Y-17307889D02*
X6820182Y-17326936D01*
X6820182Y-17326936D02*
X6810658Y-17336460D01*
X6810658Y-17336460D02*
X6791610Y-17345984D01*
X6791610Y-17345984D02*
X6772562Y-17345984D01*
X6772562Y-17345984D02*
X6753515Y-17336460D01*
X6753515Y-17336460D02*
X6743991Y-17326936D01*
X6743991Y-17326936D02*
X6734467Y-17307889D01*
X6734467Y-17307889D02*
X6724943Y-17269793D01*
X6724943Y-17269793D02*
X6724943Y-17222174D01*
X6724943Y-17222174D02*
X6734467Y-17184079D01*
X6734467Y-17184079D02*
X6743991Y-17165031D01*
X6743991Y-17165031D02*
X6753515Y-17155508D01*
X6753515Y-17155508D02*
X6772562Y-17145984D01*
X6963039Y-17145984D02*
X6982086Y-17145984D01*
X6982086Y-17145984D02*
X7001134Y-17155508D01*
X7001134Y-17155508D02*
X7010658Y-17165031D01*
X7010658Y-17165031D02*
X7020182Y-17184079D01*
X7020182Y-17184079D02*
X7029705Y-17222174D01*
X7029705Y-17222174D02*
X7029705Y-17269793D01*
X7029705Y-17269793D02*
X7020182Y-17307889D01*
X7020182Y-17307889D02*
X7010658Y-17326936D01*
X7010658Y-17326936D02*
X7001134Y-17336460D01*
X7001134Y-17336460D02*
X6982086Y-17345984D01*
X6982086Y-17345984D02*
X6963039Y-17345984D01*
X6963039Y-17345984D02*
X6943991Y-17336460D01*
X6943991Y-17336460D02*
X6934467Y-17326936D01*
X6934467Y-17326936D02*
X6924943Y-17307889D01*
X6924943Y-17307889D02*
X6915420Y-17269793D01*
X6915420Y-17269793D02*
X6915420Y-17222174D01*
X6915420Y-17222174D02*
X6924943Y-17184079D01*
X6924943Y-17184079D02*
X6934467Y-17165031D01*
X6934467Y-17165031D02*
X6943991Y-17155508D01*
X6943991Y-17155508D02*
X6963039Y-17145984D01*
X7115420Y-17345984D02*
X7115420Y-17212650D01*
X7115420Y-17231698D02*
X7124943Y-17222174D01*
X7124943Y-17222174D02*
X7143991Y-17212650D01*
X7143991Y-17212650D02*
X7172563Y-17212650D01*
X7172563Y-17212650D02*
X7191610Y-17222174D01*
X7191610Y-17222174D02*
X7201134Y-17241222D01*
X7201134Y-17241222D02*
X7201134Y-17345984D01*
X7201134Y-17241222D02*
X7210658Y-17222174D01*
X7210658Y-17222174D02*
X7229705Y-17212650D01*
X7229705Y-17212650D02*
X7258277Y-17212650D01*
X7258277Y-17212650D02*
X7277324Y-17222174D01*
X7277324Y-17222174D02*
X7286848Y-17241222D01*
X7286848Y-17241222D02*
X7286848Y-17345984D01*
X7382086Y-17345984D02*
X7382086Y-17212650D01*
X7382086Y-17231698D02*
X7391610Y-17222174D01*
X7391610Y-17222174D02*
X7410658Y-17212650D01*
X7410658Y-17212650D02*
X7439229Y-17212650D01*
X7439229Y-17212650D02*
X7458277Y-17222174D01*
X7458277Y-17222174D02*
X7467801Y-17241222D01*
X7467801Y-17241222D02*
X7467801Y-17345984D01*
X7467801Y-17241222D02*
X7477324Y-17222174D01*
X7477324Y-17222174D02*
X7496372Y-17212650D01*
X7496372Y-17212650D02*
X7524943Y-17212650D01*
X7524943Y-17212650D02*
X7543991Y-17222174D01*
X7543991Y-17222174D02*
X7553515Y-17241222D01*
X7553515Y-17241222D02*
X7553515Y-17345984D01*
X7943991Y-17136460D02*
X7772563Y-17393603D01*
X8201134Y-17145984D02*
X8220182Y-17145984D01*
X8220182Y-17145984D02*
X8239229Y-17155508D01*
X8239229Y-17155508D02*
X8248753Y-17165031D01*
X8248753Y-17165031D02*
X8258277Y-17184079D01*
X8258277Y-17184079D02*
X8267801Y-17222174D01*
X8267801Y-17222174D02*
X8267801Y-17269793D01*
X8267801Y-17269793D02*
X8258277Y-17307889D01*
X8258277Y-17307889D02*
X8248753Y-17326936D01*
X8248753Y-17326936D02*
X8239229Y-17336460D01*
X8239229Y-17336460D02*
X8220182Y-17345984D01*
X8220182Y-17345984D02*
X8201134Y-17345984D01*
X8201134Y-17345984D02*
X8182086Y-17336460D01*
X8182086Y-17336460D02*
X8172563Y-17326936D01*
X8172563Y-17326936D02*
X8163039Y-17307889D01*
X8163039Y-17307889D02*
X8153515Y-17269793D01*
X8153515Y-17269793D02*
X8153515Y-17222174D01*
X8153515Y-17222174D02*
X8163039Y-17184079D01*
X8163039Y-17184079D02*
X8172563Y-17165031D01*
X8172563Y-17165031D02*
X8182086Y-17155508D01*
X8182086Y-17155508D02*
X8201134Y-17145984D01*
X8353515Y-17326936D02*
X8363039Y-17336460D01*
X8363039Y-17336460D02*
X8353515Y-17345984D01*
X8353515Y-17345984D02*
X8343991Y-17336460D01*
X8343991Y-17336460D02*
X8353515Y-17326936D01*
X8353515Y-17326936D02*
X8353515Y-17345984D01*
X8553515Y-17345984D02*
X8439229Y-17345984D01*
X8496372Y-17345984D02*
X8496372Y-17145984D01*
X8496372Y-17145984D02*
X8477325Y-17174555D01*
X8477325Y-17174555D02*
X8458277Y-17193603D01*
X8458277Y-17193603D02*
X8439229Y-17203127D01*
X8629706Y-17165031D02*
X8639229Y-17155508D01*
X8639229Y-17155508D02*
X8658277Y-17145984D01*
X8658277Y-17145984D02*
X8705896Y-17145984D01*
X8705896Y-17145984D02*
X8724944Y-17155508D01*
X8724944Y-17155508D02*
X8734468Y-17165031D01*
X8734468Y-17165031D02*
X8743991Y-17184079D01*
X8743991Y-17184079D02*
X8743991Y-17203127D01*
X8743991Y-17203127D02*
X8734468Y-17231698D01*
X8734468Y-17231698D02*
X8620182Y-17345984D01*
X8620182Y-17345984D02*
X8743991Y-17345984D01*
X8915420Y-17145984D02*
X8877325Y-17145984D01*
X8877325Y-17145984D02*
X8858277Y-17155508D01*
X8858277Y-17155508D02*
X8848753Y-17165031D01*
X8848753Y-17165031D02*
X8829706Y-17193603D01*
X8829706Y-17193603D02*
X8820182Y-17231698D01*
X8820182Y-17231698D02*
X8820182Y-17307889D01*
X8820182Y-17307889D02*
X8829706Y-17326936D01*
X8829706Y-17326936D02*
X8839229Y-17336460D01*
X8839229Y-17336460D02*
X8858277Y-17345984D01*
X8858277Y-17345984D02*
X8896372Y-17345984D01*
X8896372Y-17345984D02*
X8915420Y-17336460D01*
X8915420Y-17336460D02*
X8924944Y-17326936D01*
X8924944Y-17326936D02*
X8934468Y-17307889D01*
X8934468Y-17307889D02*
X8934468Y-17260270D01*
X8934468Y-17260270D02*
X8924944Y-17241222D01*
X8924944Y-17241222D02*
X8915420Y-17231698D01*
X8915420Y-17231698D02*
X8896372Y-17222174D01*
X8896372Y-17222174D02*
X8858277Y-17222174D01*
X8858277Y-17222174D02*
X8839229Y-17231698D01*
X8839229Y-17231698D02*
X8829706Y-17241222D01*
X8829706Y-17241222D02*
X8820182Y-17260270D01*
X9058277Y-17145984D02*
X9077325Y-17145984D01*
X9077325Y-17145984D02*
X9096372Y-17155508D01*
X9096372Y-17155508D02*
X9105896Y-17165031D01*
X9105896Y-17165031D02*
X9115420Y-17184079D01*
X9115420Y-17184079D02*
X9124944Y-17222174D01*
X9124944Y-17222174D02*
X9124944Y-17269793D01*
X9124944Y-17269793D02*
X9115420Y-17307889D01*
X9115420Y-17307889D02*
X9105896Y-17326936D01*
X9105896Y-17326936D02*
X9096372Y-17336460D01*
X9096372Y-17336460D02*
X9077325Y-17345984D01*
X9077325Y-17345984D02*
X9058277Y-17345984D01*
X9058277Y-17345984D02*
X9039229Y-17336460D01*
X9039229Y-17336460D02*
X9029706Y-17326936D01*
X9029706Y-17326936D02*
X9020182Y-17307889D01*
X9020182Y-17307889D02*
X9010658Y-17269793D01*
X9010658Y-17269793D02*
X9010658Y-17222174D01*
X9010658Y-17222174D02*
X9020182Y-17184079D01*
X9020182Y-17184079D02*
X9029706Y-17165031D01*
X9029706Y-17165031D02*
X9039229Y-17155508D01*
X9039229Y-17155508D02*
X9058277Y-17145984D01*
X9201134Y-17145984D02*
X9201134Y-17184079D01*
X9277325Y-17145984D02*
X9277325Y-17184079D01*
X9572563Y-17422174D02*
X9563039Y-17412650D01*
X9563039Y-17412650D02*
X9543991Y-17384079D01*
X9543991Y-17384079D02*
X9534468Y-17365031D01*
X9534468Y-17365031D02*
X9524944Y-17336460D01*
X9524944Y-17336460D02*
X9515420Y-17288841D01*
X9515420Y-17288841D02*
X9515420Y-17250746D01*
X9515420Y-17250746D02*
X9524944Y-17203127D01*
X9524944Y-17203127D02*
X9534468Y-17174555D01*
X9534468Y-17174555D02*
X9543991Y-17155508D01*
X9543991Y-17155508D02*
X9563039Y-17126936D01*
X9563039Y-17126936D02*
X9572563Y-17117412D01*
X9734468Y-17212650D02*
X9734468Y-17345984D01*
X9686849Y-17136460D02*
X9639230Y-17279317D01*
X9639230Y-17279317D02*
X9763039Y-17279317D01*
X9991611Y-17345984D02*
X9991611Y-17145984D01*
X10077325Y-17345984D02*
X10077325Y-17241222D01*
X10077325Y-17241222D02*
X10067801Y-17222174D01*
X10067801Y-17222174D02*
X10048753Y-17212650D01*
X10048753Y-17212650D02*
X10020182Y-17212650D01*
X10020182Y-17212650D02*
X10001134Y-17222174D01*
X10001134Y-17222174D02*
X9991611Y-17231698D01*
X10201134Y-17345984D02*
X10182087Y-17336460D01*
X10182087Y-17336460D02*
X10172563Y-17326936D01*
X10172563Y-17326936D02*
X10163039Y-17307889D01*
X10163039Y-17307889D02*
X10163039Y-17250746D01*
X10163039Y-17250746D02*
X10172563Y-17231698D01*
X10172563Y-17231698D02*
X10182087Y-17222174D01*
X10182087Y-17222174D02*
X10201134Y-17212650D01*
X10201134Y-17212650D02*
X10229706Y-17212650D01*
X10229706Y-17212650D02*
X10248753Y-17222174D01*
X10248753Y-17222174D02*
X10258277Y-17231698D01*
X10258277Y-17231698D02*
X10267801Y-17250746D01*
X10267801Y-17250746D02*
X10267801Y-17307889D01*
X10267801Y-17307889D02*
X10258277Y-17326936D01*
X10258277Y-17326936D02*
X10248753Y-17336460D01*
X10248753Y-17336460D02*
X10229706Y-17345984D01*
X10229706Y-17345984D02*
X10201134Y-17345984D01*
X10382087Y-17345984D02*
X10363039Y-17336460D01*
X10363039Y-17336460D02*
X10353515Y-17317412D01*
X10353515Y-17317412D02*
X10353515Y-17145984D01*
X10534468Y-17336460D02*
X10515420Y-17345984D01*
X10515420Y-17345984D02*
X10477325Y-17345984D01*
X10477325Y-17345984D02*
X10458277Y-17336460D01*
X10458277Y-17336460D02*
X10448753Y-17317412D01*
X10448753Y-17317412D02*
X10448753Y-17241222D01*
X10448753Y-17241222D02*
X10458277Y-17222174D01*
X10458277Y-17222174D02*
X10477325Y-17212650D01*
X10477325Y-17212650D02*
X10515420Y-17212650D01*
X10515420Y-17212650D02*
X10534468Y-17222174D01*
X10534468Y-17222174D02*
X10543992Y-17241222D01*
X10543992Y-17241222D02*
X10543992Y-17260270D01*
X10543992Y-17260270D02*
X10448753Y-17279317D01*
X10620182Y-17336460D02*
X10639230Y-17345984D01*
X10639230Y-17345984D02*
X10677325Y-17345984D01*
X10677325Y-17345984D02*
X10696373Y-17336460D01*
X10696373Y-17336460D02*
X10705896Y-17317412D01*
X10705896Y-17317412D02*
X10705896Y-17307889D01*
X10705896Y-17307889D02*
X10696373Y-17288841D01*
X10696373Y-17288841D02*
X10677325Y-17279317D01*
X10677325Y-17279317D02*
X10648753Y-17279317D01*
X10648753Y-17279317D02*
X10629706Y-17269793D01*
X10629706Y-17269793D02*
X10620182Y-17250746D01*
X10620182Y-17250746D02*
X10620182Y-17241222D01*
X10620182Y-17241222D02*
X10629706Y-17222174D01*
X10629706Y-17222174D02*
X10648753Y-17212650D01*
X10648753Y-17212650D02*
X10677325Y-17212650D01*
X10677325Y-17212650D02*
X10696373Y-17222174D01*
X10772563Y-17422174D02*
X10782087Y-17412650D01*
X10782087Y-17412650D02*
X10801134Y-17384079D01*
X10801134Y-17384079D02*
X10810658Y-17365031D01*
X10810658Y-17365031D02*
X10820182Y-17336460D01*
X10820182Y-17336460D02*
X10829706Y-17288841D01*
X10829706Y-17288841D02*
X10829706Y-17250746D01*
X10829706Y-17250746D02*
X10820182Y-17203127D01*
X10820182Y-17203127D02*
X10810658Y-17174555D01*
X10810658Y-17174555D02*
X10801134Y-17155508D01*
X10801134Y-17155508D02*
X10782087Y-17126936D01*
X10782087Y-17126936D02*
X10772563Y-17117412D01*
M02*
