%TF.GenerationSoftware,KiCad,Pcbnew,9.0.2*%
%TF.CreationDate,2025-07-05T15:42:11+10:00*%
%TF.ProjectId,avswitch,61767377-6974-4636-982e-6b696361645f,rev?*%
%TF.SameCoordinates,Original*%
%TF.FileFunction,Soldermask,Top*%
%TF.FilePolarity,Negative*%
%FSLAX46Y46*%
G04 Gerber Fmt 4.6, Leading zero omitted, Abs format (unit mm)*
G04 Created by KiCad (PCBNEW 9.0.2) date 2025-07-05 15:42:11*
%MOMM*%
%LPD*%
G01*
G04 APERTURE LIST*
G04 Aperture macros list*
%AMRoundRect*
0 Rectangle with rounded corners*
0 $1 Rounding radius*
0 $2 $3 $4 $5 $6 $7 $8 $9 X,Y pos of 4 corners*
0 Add a 4 corners polygon primitive as box body*
4,1,4,$2,$3,$4,$5,$6,$7,$8,$9,$2,$3,0*
0 Add four circle primitives for the rounded corners*
1,1,$1+$1,$2,$3*
1,1,$1+$1,$4,$5*
1,1,$1+$1,$6,$7*
1,1,$1+$1,$8,$9*
0 Add four rect primitives between the rounded corners*
20,1,$1+$1,$2,$3,$4,$5,0*
20,1,$1+$1,$4,$5,$6,$7,0*
20,1,$1+$1,$6,$7,$8,$9,0*
20,1,$1+$1,$8,$9,$2,$3,0*%
%AMHorizOval*
0 Thick line with rounded ends*
0 $1 width*
0 $2 $3 position (X,Y) of the first rounded end (center of the circle)*
0 $4 $5 position (X,Y) of the second rounded end (center of the circle)*
0 Add line between two ends*
20,1,$1,$2,$3,$4,$5,0*
0 Add two circle primitives to create the rounded ends*
1,1,$1,$2,$3*
1,1,$1,$4,$5*%
G04 Aperture macros list end*
%ADD10RoundRect,0.397059X-0.952941X-1.852941X0.952941X-1.852941X0.952941X1.852941X-0.952941X1.852941X0*%
%ADD11C,2.400000*%
%ADD12RoundRect,0.397059X-1.984058X-0.636396X-0.636396X-1.984058X1.984058X0.636396X0.636396X1.984058X0*%
%ADD13RoundRect,0.397059X0.636396X-1.984058X1.984058X-0.636396X-0.636396X1.984058X-1.984058X0.636396X0*%
%ADD14RoundRect,0.250000X-1.100000X0.325000X-1.100000X-0.325000X1.100000X-0.325000X1.100000X0.325000X0*%
%ADD15RoundRect,0.250000X-0.450000X0.262500X-0.450000X-0.262500X0.450000X-0.262500X0.450000X0.262500X0*%
%ADD16RoundRect,0.250000X0.262500X0.450000X-0.262500X0.450000X-0.262500X-0.450000X0.262500X-0.450000X0*%
%ADD17RoundRect,0.140000X0.140000X0.170000X-0.140000X0.170000X-0.140000X-0.170000X0.140000X-0.170000X0*%
%ADD18C,3.600000*%
%ADD19C,6.400000*%
%ADD20RoundRect,0.250000X0.450000X-0.262500X0.450000X0.262500X-0.450000X0.262500X-0.450000X-0.262500X0*%
%ADD21RoundRect,0.250001X-1.149999X-1.149999X1.149999X-1.149999X1.149999X1.149999X-1.149999X1.149999X0*%
%ADD22C,2.800000*%
%ADD23RoundRect,0.250000X-0.550000X-0.550000X0.550000X-0.550000X0.550000X0.550000X-0.550000X0.550000X0*%
%ADD24C,1.600000*%
%ADD25RoundRect,0.112500X-0.187500X-0.112500X0.187500X-0.112500X0.187500X0.112500X-0.187500X0.112500X0*%
%ADD26RoundRect,0.112500X0.187500X0.112500X-0.187500X0.112500X-0.187500X-0.112500X0.187500X-0.112500X0*%
%ADD27RoundRect,0.150000X-0.512500X-0.150000X0.512500X-0.150000X0.512500X0.150000X-0.512500X0.150000X0*%
%ADD28RoundRect,0.250000X1.100000X-0.325000X1.100000X0.325000X-1.100000X0.325000X-1.100000X-0.325000X0*%
%ADD29RoundRect,0.140000X0.170000X-0.140000X0.170000X0.140000X-0.170000X0.140000X-0.170000X-0.140000X0*%
%ADD30RoundRect,0.140000X-0.170000X0.140000X-0.170000X-0.140000X0.170000X-0.140000X0.170000X0.140000X0*%
%ADD31RoundRect,0.150000X-0.825000X-0.150000X0.825000X-0.150000X0.825000X0.150000X-0.825000X0.150000X0*%
%ADD32RoundRect,0.140000X-0.140000X-0.170000X0.140000X-0.170000X0.140000X0.170000X-0.140000X0.170000X0*%
%ADD33RoundRect,0.250000X-0.262500X-0.450000X0.262500X-0.450000X0.262500X0.450000X-0.262500X0.450000X0*%
%ADD34R,1.400000X1.400000*%
%ADD35C,1.400000*%
%ADD36R,3.700000X1.200000*%
%ADD37RoundRect,0.150000X0.825000X0.150000X-0.825000X0.150000X-0.825000X-0.150000X0.825000X-0.150000X0*%
%ADD38R,5.700000X1.600000*%
%ADD39RoundRect,0.150000X0.150000X-0.512500X0.150000X0.512500X-0.150000X0.512500X-0.150000X-0.512500X0*%
%ADD40RoundRect,0.150000X-0.150000X0.825000X-0.150000X-0.825000X0.150000X-0.825000X0.150000X0.825000X0*%
%ADD41R,1.600000X5.700000*%
%ADD42RoundRect,0.087500X0.250000X0.087500X-0.250000X0.087500X-0.250000X-0.087500X0.250000X-0.087500X0*%
%ADD43RoundRect,0.175000X0.424264X0.176777X0.176777X0.424264X-0.424264X-0.176777X-0.176777X-0.424264X0*%
%ADD44RoundRect,0.190000X-0.424264X-0.155563X-0.155563X-0.424264X0.424264X0.155563X0.155563X0.424264X0*%
%ADD45RoundRect,0.200000X-0.424264X-0.141421X-0.141421X-0.424264X0.424264X0.141421X0.141421X0.424264X0*%
%ADD46RoundRect,0.175000X-0.424264X-0.176777X-0.176777X-0.424264X0.424264X0.176777X0.176777X0.424264X0*%
%ADD47RoundRect,0.190000X0.424264X0.155563X0.155563X0.424264X-0.424264X-0.155563X-0.155563X-0.424264X0*%
%ADD48RoundRect,0.200000X0.424264X0.141421X0.141421X0.424264X-0.424264X-0.141421X-0.141421X-0.424264X0*%
%ADD49HorizOval,1.100000X0.212132X0.212132X-0.212132X-0.212132X0*%
%ADD50R,1.600000X1.600000*%
%ADD51O,1.600000X1.600000*%
%ADD52RoundRect,0.250000X-1.246276X-0.804334X-0.804334X-1.246276X1.246276X0.804334X0.804334X1.246276X0*%
%ADD53RoundRect,0.225000X0.375000X-0.225000X0.375000X0.225000X-0.375000X0.225000X-0.375000X-0.225000X0*%
%ADD54R,1.700000X1.700000*%
%ADD55C,1.700000*%
G04 APERTURE END LIST*
D10*
%TO.C,CONN503*%
X166750000Y-36500000D03*
X217250000Y-36500000D03*
D11*
X210000000Y-36000000D03*
X206000000Y-39250000D03*
X214000000Y-40500000D03*
X192000000Y-36000000D03*
X188000000Y-39250000D03*
X196000000Y-40500000D03*
X174000000Y-36000000D03*
X170000000Y-39250000D03*
X178000000Y-40500000D03*
%TD*%
D12*
%TO.C,CONN601*%
X222292000Y-35499107D03*
X258000893Y-71208000D03*
D11*
X253227922Y-65727922D03*
X248101398Y-65197592D03*
X252874369Y-71738330D03*
X240500000Y-53000000D03*
X235373476Y-52469670D03*
X240146447Y-59010408D03*
X227772078Y-40272078D03*
X222645554Y-39741748D03*
X227418525Y-46282486D03*
%TD*%
D13*
%TO.C,CONN501*%
X69999107Y-71208000D03*
X105708000Y-35499107D03*
D11*
X100227922Y-40272078D03*
X99697592Y-45398602D03*
X106238330Y-40625631D03*
X87500000Y-53000000D03*
X86969670Y-58126524D03*
X93510408Y-53353553D03*
X74772078Y-65727922D03*
X74241748Y-70854446D03*
X80782486Y-66081475D03*
%TD*%
D10*
%TO.C,CONN502*%
X110750000Y-36500000D03*
X161250000Y-36500000D03*
D11*
X154000000Y-36000000D03*
X150000000Y-39250000D03*
X158000000Y-40500000D03*
X136000000Y-36000000D03*
X132000000Y-39250000D03*
X140000000Y-40500000D03*
X118000000Y-36000000D03*
X114000000Y-39250000D03*
X122000000Y-40500000D03*
%TD*%
D14*
%TO.C,C430*%
X68500000Y-120524999D03*
X68500000Y-123475001D03*
%TD*%
D15*
%TO.C,R540*%
X97975000Y-66587500D03*
X97975000Y-68412500D03*
%TD*%
D16*
%TO.C,R633*%
X214912500Y-63500000D03*
X213087500Y-63500000D03*
%TD*%
D17*
%TO.C,C612*%
X228979999Y-65500001D03*
X228019999Y-65500001D03*
%TD*%
D15*
%TO.C,R526*%
X101975000Y-68087500D03*
X101975000Y-69912500D03*
%TD*%
%TO.C,R567*%
X204000000Y-59675000D03*
X204000000Y-61500000D03*
%TD*%
D18*
%TO.C,REF\u002A\u002A*%
X247500000Y-131500000D03*
D19*
X247500000Y-131500000D03*
%TD*%
D20*
%TO.C,R539*%
X97975000Y-57412500D03*
X97975000Y-55587500D03*
%TD*%
%TO.C,R544*%
X154500000Y-50412500D03*
X154500000Y-48587500D03*
%TD*%
D21*
%TO.C,J402*%
X103500000Y-140000000D03*
D22*
X108500000Y-140000000D03*
X113500000Y-140000000D03*
X118500000Y-140000000D03*
%TD*%
D23*
%TO.C,C406*%
X258000000Y-118000000D03*
D24*
X260500000Y-118000000D03*
%TD*%
D16*
%TO.C,R612*%
X227412500Y-54000000D03*
X225587500Y-54000000D03*
%TD*%
D25*
%TO.C,D601*%
X250900000Y-93500000D03*
X253000000Y-93500000D03*
%TD*%
D15*
%TO.C,R507*%
X104887500Y-68087500D03*
X104887500Y-69912500D03*
%TD*%
D26*
%TO.C,D503*%
X104050000Y-49500000D03*
X101950000Y-49500000D03*
%TD*%
D27*
%TO.C,U403*%
X249362500Y-109050001D03*
X249362500Y-110000000D03*
X249362500Y-110949999D03*
X251637500Y-110949999D03*
X251637500Y-110000000D03*
X251637500Y-109050001D03*
%TD*%
D17*
%TO.C,C527*%
X214980000Y-102000000D03*
X214020000Y-102000000D03*
%TD*%
D25*
%TO.C,D518*%
X166450000Y-45000000D03*
X168550000Y-45000000D03*
%TD*%
D28*
%TO.C,C421*%
X68500000Y-128975001D03*
X68500000Y-126024999D03*
%TD*%
D17*
%TO.C,C535*%
X214980000Y-73000000D03*
X214020000Y-73000000D03*
%TD*%
D29*
%TO.C,C516*%
X99975000Y-69980000D03*
X99975000Y-69020000D03*
%TD*%
D14*
%TO.C,C424*%
X70500000Y-114024999D03*
X70500000Y-116975001D03*
%TD*%
D30*
%TO.C,C517*%
X78525000Y-75060000D03*
X78525000Y-76020000D03*
%TD*%
D17*
%TO.C,C435*%
X259980000Y-113500000D03*
X259020000Y-113500000D03*
%TD*%
D31*
%TO.C,U508*%
X210025000Y-89555000D03*
X210025000Y-90825000D03*
X210025000Y-92095000D03*
X210025000Y-93365000D03*
X210025000Y-94635000D03*
X210025000Y-95905000D03*
X210025000Y-97175000D03*
X210025000Y-98445000D03*
X214975000Y-98445000D03*
X214975000Y-97175000D03*
X214975000Y-95905000D03*
X214975000Y-94635000D03*
X214975000Y-93365000D03*
X214975000Y-92095000D03*
X214975000Y-90825000D03*
X214975000Y-89555000D03*
%TD*%
D20*
%TO.C,R542*%
X76525000Y-78365000D03*
X76525000Y-76540000D03*
%TD*%
D29*
%TO.C,C525*%
X177000000Y-47980000D03*
X177000000Y-47020000D03*
%TD*%
%TO.C,C607*%
X244500000Y-77505000D03*
X244500000Y-76545000D03*
%TD*%
D20*
%TO.C,R561*%
X199975000Y-48952500D03*
X199975000Y-47127500D03*
%TD*%
%TO.C,R715*%
X208000000Y-135412500D03*
X208000000Y-133587500D03*
%TD*%
D15*
%TO.C,R619*%
X246500000Y-75087500D03*
X246500000Y-76912500D03*
%TD*%
D16*
%TO.C,R555*%
X201412500Y-65000000D03*
X199587500Y-65000000D03*
%TD*%
D32*
%TO.C,C414*%
X70520000Y-134000000D03*
X71480000Y-134000000D03*
%TD*%
D16*
%TO.C,R515*%
X84850000Y-73040000D03*
X83025000Y-73040000D03*
%TD*%
D15*
%TO.C,R621*%
X219000000Y-54087500D03*
X219000000Y-55912500D03*
%TD*%
D26*
%TO.C,D603*%
X243600000Y-73000000D03*
X241500000Y-73000000D03*
%TD*%
D20*
%TO.C,R554*%
X175000000Y-48912500D03*
X175000000Y-47087500D03*
%TD*%
D33*
%TO.C,R517*%
X146087500Y-45000000D03*
X147912500Y-45000000D03*
%TD*%
D15*
%TO.C,R407*%
X65500000Y-129087500D03*
X65500000Y-130912500D03*
%TD*%
D26*
%TO.C,D516*%
X197500000Y-67500000D03*
X195400000Y-67500000D03*
%TD*%
D33*
%TO.C,R534*%
X155087500Y-53000000D03*
X156912500Y-53000000D03*
%TD*%
D34*
%TO.C,J701*%
X199000000Y-141500000D03*
D35*
X200000000Y-139500000D03*
X201000000Y-141500000D03*
X202000000Y-139500000D03*
X203000000Y-141500000D03*
X204000000Y-139500000D03*
X205000000Y-141500000D03*
X206000000Y-139500000D03*
X207000000Y-141500000D03*
X208000000Y-139500000D03*
X209000000Y-141500000D03*
X210000000Y-139500000D03*
%TD*%
D16*
%TO.C,R627*%
X212412501Y-70000001D03*
X210587501Y-70000001D03*
%TD*%
D30*
%TO.C,C608*%
X244500000Y-88564999D03*
X244500000Y-89524999D03*
%TD*%
D17*
%TO.C,C605*%
X237480000Y-86500000D03*
X236520000Y-86500000D03*
%TD*%
D36*
%TO.C,L404*%
X73000000Y-131899999D03*
X73000000Y-129100001D03*
%TD*%
D37*
%TO.C,U501*%
X105950000Y-65810000D03*
X105950000Y-64540000D03*
X105950000Y-63270000D03*
X105950000Y-62000000D03*
X105950000Y-60730000D03*
X105950000Y-59460000D03*
X105950000Y-58190000D03*
X101000000Y-58190000D03*
X101000000Y-59460000D03*
X101000000Y-60730000D03*
X101000000Y-62000000D03*
X101000000Y-63270000D03*
X101000000Y-64540000D03*
X101000000Y-65810000D03*
%TD*%
D17*
%TO.C,C511*%
X76505000Y-83040000D03*
X75545000Y-83040000D03*
%TD*%
D33*
%TO.C,R402*%
X76000000Y-134500000D03*
X77825000Y-134500000D03*
%TD*%
D30*
%TO.C,C520*%
X121525000Y-47020000D03*
X121525000Y-47980000D03*
%TD*%
D33*
%TO.C,R504*%
X155087500Y-57000000D03*
X156912500Y-57000000D03*
%TD*%
D15*
%TO.C,R570*%
X192975000Y-59627501D03*
X192975000Y-61452501D03*
%TD*%
D30*
%TO.C,C523*%
X201975000Y-62060000D03*
X201975000Y-63020000D03*
%TD*%
D15*
%TO.C,R546*%
X143500000Y-59587500D03*
X143500000Y-61412500D03*
%TD*%
D14*
%TO.C,C426*%
X67000000Y-114024999D03*
X67000000Y-116975001D03*
%TD*%
D20*
%TO.C,R571*%
X179000000Y-50500000D03*
X179000000Y-48675000D03*
%TD*%
%TO.C,R509*%
X83525000Y-76952500D03*
X83525000Y-75127500D03*
%TD*%
D15*
%TO.C,R552*%
X199975000Y-61127500D03*
X199975000Y-62952500D03*
%TD*%
D29*
%TO.C,C510*%
X128525000Y-47980000D03*
X128525000Y-47020000D03*
%TD*%
D16*
%TO.C,R558*%
X201412500Y-45000000D03*
X199587500Y-45000000D03*
%TD*%
D15*
%TO.C,R708*%
X161000000Y-114087500D03*
X161000000Y-115912500D03*
%TD*%
D28*
%TO.C,C428*%
X70500000Y-111975001D03*
X70500000Y-109024999D03*
%TD*%
D20*
%TO.C,R528*%
X150500000Y-48912500D03*
X150500000Y-47087500D03*
%TD*%
D32*
%TO.C,C513*%
X87545000Y-83040000D03*
X88505000Y-83040000D03*
%TD*%
D16*
%TO.C,R581*%
X220412500Y-78500000D03*
X218587500Y-78500000D03*
%TD*%
D29*
%TO.C,C524*%
X194975000Y-48020000D03*
X194975000Y-47060000D03*
%TD*%
D20*
%TO.C,R512*%
X126525000Y-48912500D03*
X126525000Y-47087500D03*
%TD*%
D33*
%TO.C,R556*%
X195587500Y-45000000D03*
X197412500Y-45000000D03*
%TD*%
D14*
%TO.C,C410*%
X81500000Y-133049998D03*
X81500000Y-136000000D03*
%TD*%
D20*
%TO.C,R538*%
X108975000Y-57412500D03*
X108975000Y-55587500D03*
%TD*%
D31*
%TO.C,U509*%
X210025000Y-75055000D03*
X210025000Y-76325000D03*
X210025000Y-77595000D03*
X210025000Y-78865000D03*
X210025000Y-80135000D03*
X210025000Y-81405000D03*
X210025000Y-82675000D03*
X210025000Y-83945000D03*
X214975000Y-83945000D03*
X214975000Y-82675000D03*
X214975000Y-81405000D03*
X214975000Y-80135000D03*
X214975000Y-78865000D03*
X214975000Y-77595000D03*
X214975000Y-76325000D03*
X214975000Y-75055000D03*
%TD*%
D17*
%TO.C,C533*%
X214980000Y-87500000D03*
X214020000Y-87500000D03*
%TD*%
D26*
%TO.C,D606*%
X219550000Y-51500000D03*
X217450000Y-51500000D03*
%TD*%
D25*
%TO.C,D501*%
X104450000Y-74500000D03*
X106550000Y-74500000D03*
%TD*%
D16*
%TO.C,R413*%
X251912500Y-106000000D03*
X250087500Y-106000000D03*
%TD*%
D31*
%TO.C,U502*%
X79525000Y-79190000D03*
X79525000Y-80460000D03*
X79525000Y-81730000D03*
X79525000Y-83000000D03*
X79525000Y-84270000D03*
X79525000Y-85540000D03*
X79525000Y-86810000D03*
X84475000Y-86810000D03*
X84475000Y-85540000D03*
X84475000Y-84270000D03*
X84475000Y-83000000D03*
X84475000Y-81730000D03*
X84475000Y-80460000D03*
X84475000Y-79190000D03*
%TD*%
D20*
%TO.C,R553*%
X197000000Y-48912500D03*
X197000000Y-47087500D03*
%TD*%
D16*
%TO.C,R513*%
X106387500Y-72000000D03*
X104562500Y-72000000D03*
%TD*%
D38*
%TO.C,L406*%
X74500000Y-126350000D03*
X74500000Y-121650000D03*
%TD*%
D33*
%TO.C,R626*%
X214587500Y-70000001D03*
X216412500Y-70000001D03*
%TD*%
D39*
%TO.C,U402*%
X88550001Y-110137500D03*
X89500000Y-110137500D03*
X90449999Y-110137500D03*
X90449999Y-107862500D03*
X88550001Y-107862500D03*
%TD*%
D33*
%TO.C,R404*%
X81087500Y-110000000D03*
X82912500Y-110000000D03*
%TD*%
D32*
%TO.C,C514*%
X130545000Y-55000000D03*
X131505000Y-55000000D03*
%TD*%
D30*
%TO.C,C505*%
X106975000Y-69040000D03*
X106975000Y-70000000D03*
%TD*%
D40*
%TO.C,U602*%
X224810000Y-59525000D03*
X223540000Y-59525000D03*
X222270000Y-59525000D03*
X221000000Y-59525000D03*
X219730000Y-59525000D03*
X218460000Y-59525000D03*
X217190000Y-59525000D03*
X217190000Y-64475000D03*
X218460000Y-64475000D03*
X219730000Y-64475000D03*
X221000000Y-64475000D03*
X222270000Y-64475000D03*
X223540000Y-64475000D03*
X224810000Y-64475000D03*
%TD*%
D20*
%TO.C,R712*%
X190500000Y-140000000D03*
X190500000Y-138175000D03*
%TD*%
D25*
%TO.C,D515*%
X191450000Y-45000000D03*
X193550000Y-45000000D03*
%TD*%
D32*
%TO.C,C603*%
X228020000Y-58587500D03*
X228980000Y-58587500D03*
%TD*%
D33*
%TO.C,R531*%
X109562500Y-60000000D03*
X111387500Y-60000000D03*
%TD*%
D15*
%TO.C,R705*%
X193000000Y-134087500D03*
X193000000Y-135912500D03*
%TD*%
%TO.C,R605*%
X242500000Y-75087500D03*
X242500000Y-76912500D03*
%TD*%
D41*
%TO.C,L401*%
X88650000Y-122000000D03*
X93350000Y-122000000D03*
%TD*%
D33*
%TO.C,R608*%
X238087500Y-77500000D03*
X239912500Y-77500000D03*
%TD*%
D20*
%TO.C,R629*%
X223000000Y-69912501D03*
X223000000Y-68087501D03*
%TD*%
D33*
%TO.C,R549*%
X204562500Y-57040000D03*
X206387500Y-57040000D03*
%TD*%
D15*
%TO.C,R707*%
X163500000Y-114087500D03*
X163500000Y-115912500D03*
%TD*%
D26*
%TO.C,D514*%
X205550000Y-45000000D03*
X203450000Y-45000000D03*
%TD*%
D14*
%TO.C,C433*%
X85000000Y-127049998D03*
X85000000Y-130000000D03*
%TD*%
D33*
%TO.C,R506*%
X131112500Y-53000000D03*
X132937500Y-53000000D03*
%TD*%
D17*
%TO.C,C606*%
X213960000Y-58499999D03*
X213000000Y-58499999D03*
%TD*%
D30*
%TO.C,C532*%
X170000000Y-47020000D03*
X170000000Y-47980000D03*
%TD*%
D16*
%TO.C,R628*%
X216412500Y-67500001D03*
X214587500Y-67500001D03*
%TD*%
D37*
%TO.C,U505*%
X200975000Y-58810000D03*
X200975000Y-57540000D03*
X200975000Y-56270000D03*
X200975000Y-55000000D03*
X200975000Y-53730000D03*
X200975000Y-52460000D03*
X200975000Y-51190000D03*
X196025000Y-51190000D03*
X196025000Y-52460000D03*
X196025000Y-53730000D03*
X196025000Y-55000000D03*
X196025000Y-56270000D03*
X196025000Y-57540000D03*
X196025000Y-58810000D03*
%TD*%
D15*
%TO.C,R709*%
X138500000Y-118087500D03*
X138500000Y-119912500D03*
%TD*%
D16*
%TO.C,R624*%
X214912500Y-60499999D03*
X213087500Y-60499999D03*
%TD*%
D20*
%TO.C,R530*%
X123525000Y-48912500D03*
X123525000Y-47087500D03*
%TD*%
%TO.C,R714*%
X205500000Y-135412500D03*
X205500000Y-133587500D03*
%TD*%
D33*
%TO.C,R523*%
X146087500Y-65000000D03*
X147912500Y-65000000D03*
%TD*%
D18*
%TO.C,REF\u002A\u002A*%
X185000000Y-70000000D03*
D19*
X185000000Y-70000000D03*
%TD*%
D16*
%TO.C,R617*%
X239912500Y-88500000D03*
X238087500Y-88500000D03*
%TD*%
D14*
%TO.C,C409*%
X99000000Y-127049999D03*
X99000000Y-130000001D03*
%TD*%
D28*
%TO.C,C402*%
X76000000Y-140975001D03*
X76000000Y-138024999D03*
%TD*%
D15*
%TO.C,R703*%
X205500000Y-126587500D03*
X205500000Y-128412500D03*
%TD*%
D16*
%TO.C,R607*%
X250912500Y-88500000D03*
X249087500Y-88500000D03*
%TD*%
D30*
%TO.C,C536*%
X207020000Y-83020000D03*
X207020000Y-83980000D03*
%TD*%
D16*
%TO.C,R411*%
X251912500Y-103500000D03*
X250087500Y-103500000D03*
%TD*%
D28*
%TO.C,C429*%
X67000000Y-111975001D03*
X67000000Y-109024999D03*
%TD*%
D32*
%TO.C,C501*%
X108995000Y-62000000D03*
X109955000Y-62000000D03*
%TD*%
D14*
%TO.C,C403*%
X97000000Y-114524999D03*
X97000000Y-117475001D03*
%TD*%
D42*
%TO.C,U401*%
X69000000Y-133500000D03*
X69000001Y-133000000D03*
X69000000Y-132500000D03*
X67575000Y-132500000D03*
X67574999Y-133000000D03*
X67575000Y-133500000D03*
%TD*%
D20*
%TO.C,R625*%
X219000000Y-69912501D03*
X219000000Y-68087501D03*
%TD*%
D16*
%TO.C,R522*%
X151912500Y-45000000D03*
X150087500Y-45000000D03*
%TD*%
%TO.C,R609*%
X227412500Y-56500000D03*
X225587500Y-56500000D03*
%TD*%
%TO.C,R602*%
X238412500Y-81500000D03*
X236587500Y-81500000D03*
%TD*%
%TO.C,R583*%
X220412500Y-76000000D03*
X218587500Y-76000000D03*
%TD*%
D33*
%TO.C,R564*%
X204587500Y-53040000D03*
X206412500Y-53040000D03*
%TD*%
D16*
%TO.C,R519*%
X106387500Y-52000000D03*
X104562500Y-52000000D03*
%TD*%
D14*
%TO.C,C436*%
X255500000Y-108524999D03*
X255500000Y-111475001D03*
%TD*%
D31*
%TO.C,U504*%
X122525000Y-51190000D03*
X122525000Y-52460000D03*
X122525000Y-53730000D03*
X122525000Y-55000000D03*
X122525000Y-56270000D03*
X122525000Y-57540000D03*
X122525000Y-58810000D03*
X127475000Y-58810000D03*
X127475000Y-57540000D03*
X127475000Y-56270000D03*
X127475000Y-55000000D03*
X127475000Y-53730000D03*
X127475000Y-52460000D03*
X127475000Y-51190000D03*
%TD*%
D17*
%TO.C,C503*%
X97955000Y-62000000D03*
X96995000Y-62000000D03*
%TD*%
%TO.C,C602*%
X237480000Y-79500000D03*
X236520000Y-79500000D03*
%TD*%
D32*
%TO.C,C528*%
X179000000Y-55000000D03*
X179960000Y-55000000D03*
%TD*%
D29*
%TO.C,C531*%
X194975000Y-63020001D03*
X194975000Y-62060001D03*
%TD*%
%TO.C,C609*%
X221000000Y-56479999D03*
X221000000Y-55519999D03*
%TD*%
D17*
%TO.C,C526*%
X167980000Y-55000000D03*
X167020000Y-55000000D03*
%TD*%
D16*
%TO.C,R533*%
X76025000Y-81040000D03*
X74200000Y-81040000D03*
%TD*%
%TO.C,R579*%
X220412500Y-90500000D03*
X218587500Y-90500000D03*
%TD*%
D15*
%TO.C,R706*%
X190500000Y-134087500D03*
X190500000Y-135912500D03*
%TD*%
D16*
%TO.C,R505*%
X142825000Y-53000000D03*
X141000000Y-53000000D03*
%TD*%
D17*
%TO.C,C504*%
X143480000Y-55000000D03*
X142520000Y-55000000D03*
%TD*%
D16*
%TO.C,R550*%
X192387500Y-53040000D03*
X190562500Y-53040000D03*
%TD*%
D33*
%TO.C,R610*%
X251087500Y-91000000D03*
X252912500Y-91000000D03*
%TD*%
%TO.C,R405*%
X84587500Y-110000000D03*
X86412500Y-110000000D03*
%TD*%
%TO.C,R551*%
X179587500Y-53000000D03*
X181412500Y-53000000D03*
%TD*%
D40*
%TO.C,U601*%
X248310000Y-80525000D03*
X247040000Y-80525000D03*
X245770000Y-80525000D03*
X244500000Y-80525000D03*
X243230000Y-80525000D03*
X241960000Y-80525000D03*
X240690000Y-80525000D03*
X240690000Y-85475000D03*
X241960000Y-85475000D03*
X243230000Y-85475000D03*
X244500000Y-85475000D03*
X245770000Y-85475000D03*
X247040000Y-85475000D03*
X248310000Y-85475000D03*
%TD*%
D20*
%TO.C,R416*%
X263500000Y-111000000D03*
X263500000Y-109175000D03*
%TD*%
D43*
%TO.C,J403*%
X246675665Y-58531442D03*
D44*
X245247309Y-57103087D03*
D45*
X244377567Y-56233345D03*
D46*
X245968558Y-57824335D03*
D47*
X247396913Y-59252691D03*
D48*
X248266655Y-60122433D03*
D49*
X249433381Y-61176022D03*
X252120387Y-58489016D03*
X243323978Y-55066619D03*
X246010984Y-52379613D03*
%TD*%
D16*
%TO.C,R576*%
X220412500Y-110000000D03*
X218587500Y-110000000D03*
%TD*%
D33*
%TO.C,R611*%
X238087500Y-75000000D03*
X239912500Y-75000000D03*
%TD*%
D16*
%TO.C,R578*%
X220412500Y-98000000D03*
X218587500Y-98000000D03*
%TD*%
D15*
%TO.C,R412*%
X81000000Y-123087500D03*
X81000000Y-124912500D03*
%TD*%
D16*
%TO.C,R580*%
X220412500Y-95500000D03*
X218587500Y-95500000D03*
%TD*%
D20*
%TO.C,R568*%
X203975001Y-50452500D03*
X203975001Y-48627500D03*
%TD*%
D25*
%TO.C,D513*%
X199450000Y-67500000D03*
X201550000Y-67500000D03*
%TD*%
D38*
%TO.C,L402*%
X70500000Y-140850000D03*
X70500000Y-136150000D03*
%TD*%
D14*
%TO.C,C411*%
X95500000Y-127049998D03*
X95500000Y-130000000D03*
%TD*%
D20*
%TO.C,R403*%
X63000000Y-134912500D03*
X63000000Y-133087500D03*
%TD*%
D15*
%TO.C,R537*%
X108975000Y-66587500D03*
X108975000Y-68412500D03*
%TD*%
D20*
%TO.C,R569*%
X192975000Y-50452500D03*
X192975000Y-48627500D03*
%TD*%
D16*
%TO.C,R618*%
X216412500Y-56500000D03*
X214587500Y-56500000D03*
%TD*%
D15*
%TO.C,R529*%
X147500000Y-61087500D03*
X147500000Y-62912500D03*
%TD*%
D20*
%TO.C,R563*%
X172000000Y-48912500D03*
X172000000Y-47087500D03*
%TD*%
D14*
%TO.C,C412*%
X92000000Y-133024999D03*
X92000000Y-135975001D03*
%TD*%
D15*
%TO.C,R510*%
X150500000Y-61087500D03*
X150500000Y-62912500D03*
%TD*%
D39*
%TO.C,U404*%
X259050001Y-111137500D03*
X260000000Y-111137500D03*
X260949999Y-111137500D03*
X260949999Y-108862500D03*
X259050001Y-108862500D03*
%TD*%
D17*
%TO.C,C611*%
X215000000Y-65500000D03*
X214040000Y-65500000D03*
%TD*%
D15*
%TO.C,R562*%
X196975000Y-61127500D03*
X196975000Y-62952500D03*
%TD*%
D29*
%TO.C,C506*%
X99975000Y-54980000D03*
X99975000Y-54020000D03*
%TD*%
D28*
%TO.C,C401*%
X84500000Y-123475001D03*
X84500000Y-120524999D03*
%TD*%
D30*
%TO.C,C610*%
X221000000Y-67520000D03*
X221000000Y-68480000D03*
%TD*%
D50*
%TO.C,A701*%
X145950000Y-141110000D03*
D51*
X148490000Y-141110000D03*
X151030000Y-141110000D03*
X153570000Y-141110000D03*
X156110000Y-141110000D03*
X158650000Y-141110000D03*
X161190000Y-141110000D03*
X163730000Y-141110000D03*
X166270000Y-141110000D03*
X168810000Y-141110000D03*
X171350000Y-141110000D03*
X173890000Y-141110000D03*
X176430000Y-141110000D03*
X178970000Y-141110000D03*
X181510000Y-141110000D03*
X181510000Y-125870000D03*
X178970000Y-125870000D03*
X176430000Y-125870000D03*
X173890000Y-125870000D03*
X171350000Y-125870000D03*
X168810000Y-125870000D03*
X166270000Y-125870000D03*
X163730000Y-125870000D03*
X161190000Y-125870000D03*
X158650000Y-125870000D03*
X156110000Y-125870000D03*
X153570000Y-125870000D03*
X151030000Y-125870000D03*
X148490000Y-125870000D03*
X145950000Y-125870000D03*
%TD*%
D20*
%TO.C,R527*%
X80525000Y-76952500D03*
X80525000Y-75127500D03*
%TD*%
D26*
%TO.C,D506*%
X83050000Y-70500000D03*
X80950000Y-70500000D03*
%TD*%
D20*
%TO.C,R716*%
X210500000Y-135412500D03*
X210500000Y-133587500D03*
%TD*%
D33*
%TO.C,R603*%
X227087500Y-60499999D03*
X228912500Y-60499999D03*
%TD*%
D16*
%TO.C,R577*%
X220412500Y-93000000D03*
X218587500Y-93000000D03*
%TD*%
D33*
%TO.C,R503*%
X87612500Y-81040000D03*
X89437500Y-81040000D03*
%TD*%
D14*
%TO.C,C434*%
X81500000Y-127049998D03*
X81500000Y-130000000D03*
%TD*%
D33*
%TO.C,R560*%
X170587500Y-45000000D03*
X172412500Y-45000000D03*
%TD*%
D26*
%TO.C,D511*%
X132050000Y-45000000D03*
X129950000Y-45000000D03*
%TD*%
%TO.C,D505*%
X89050000Y-73000000D03*
X86950000Y-73000000D03*
%TD*%
D15*
%TO.C,R704*%
X203000000Y-126587500D03*
X203000000Y-128412500D03*
%TD*%
D16*
%TO.C,R518*%
X127850000Y-45000000D03*
X126025000Y-45000000D03*
%TD*%
D25*
%TO.C,D512*%
X116900000Y-45000000D03*
X119000000Y-45000000D03*
%TD*%
D30*
%TO.C,C530*%
X201975000Y-47059999D03*
X201975000Y-48019999D03*
%TD*%
D26*
%TO.C,D502*%
X110550000Y-52000000D03*
X108450000Y-52000000D03*
%TD*%
D29*
%TO.C,C519*%
X145500000Y-62980000D03*
X145500000Y-62020000D03*
%TD*%
D32*
%TO.C,C601*%
X251520000Y-86500000D03*
X252480000Y-86500000D03*
%TD*%
D20*
%TO.C,R541*%
X87525000Y-78452500D03*
X87525000Y-76627500D03*
%TD*%
D14*
%TO.C,C405*%
X106000000Y-127049998D03*
X106000000Y-130000000D03*
%TD*%
D15*
%TO.C,R408*%
X65500000Y-133087500D03*
X65500000Y-134912500D03*
%TD*%
D14*
%TO.C,C408*%
X85000000Y-133024999D03*
X85000000Y-135975001D03*
%TD*%
D29*
%TO.C,C507*%
X85525000Y-76040000D03*
X85525000Y-75080000D03*
%TD*%
D33*
%TO.C,R514*%
X100475000Y-52000000D03*
X102300000Y-52000000D03*
%TD*%
D34*
%TO.C,J504*%
X215000000Y-141500000D03*
D35*
X216000000Y-139500000D03*
X217000000Y-141500000D03*
X218000000Y-139500000D03*
X219000000Y-141500000D03*
X220000000Y-139500000D03*
X221000000Y-141500000D03*
X222000000Y-139500000D03*
X223000000Y-141500000D03*
X224000000Y-139500000D03*
X225000000Y-141500000D03*
X226000000Y-139500000D03*
%TD*%
D33*
%TO.C,R524*%
X122025000Y-45000000D03*
X123850000Y-45000000D03*
%TD*%
D41*
%TO.C,L405*%
X82350000Y-115000000D03*
X77650000Y-115000000D03*
%TD*%
D32*
%TO.C,C521*%
X204020000Y-55000000D03*
X204980000Y-55000000D03*
%TD*%
D30*
%TO.C,C515*%
X106975000Y-54020000D03*
X106975000Y-54980000D03*
%TD*%
%TO.C,C518*%
X152500000Y-47020000D03*
X152500000Y-47980000D03*
%TD*%
D14*
%TO.C,C420*%
X74000000Y-114024999D03*
X74000000Y-116975001D03*
%TD*%
D16*
%TO.C,R532*%
X97387500Y-64000000D03*
X95562500Y-64000000D03*
%TD*%
%TO.C,R536*%
X118937500Y-53000000D03*
X117112500Y-53000000D03*
%TD*%
D25*
%TO.C,D509*%
X141450000Y-45000000D03*
X143550000Y-45000000D03*
%TD*%
D33*
%TO.C,R401*%
X97087500Y-124000000D03*
X98912500Y-124000000D03*
%TD*%
D16*
%TO.C,R574*%
X220412500Y-112500000D03*
X218587500Y-112500000D03*
%TD*%
D33*
%TO.C,R631*%
X229587499Y-70000001D03*
X231412499Y-70000001D03*
%TD*%
%TO.C,R520*%
X100650000Y-72000000D03*
X102475000Y-72000000D03*
%TD*%
D16*
%TO.C,R516*%
X151912500Y-65000000D03*
X150087500Y-65000000D03*
%TD*%
D33*
%TO.C,R613*%
X249087500Y-75000000D03*
X250912500Y-75000000D03*
%TD*%
D18*
%TO.C,REF\u002A\u002A*%
X125000000Y-70000000D03*
D19*
X125000000Y-70000000D03*
%TD*%
D32*
%TO.C,C416*%
X68520000Y-131000000D03*
X69480000Y-131000000D03*
%TD*%
D29*
%TO.C,C509*%
X145520000Y-47980001D03*
X145520000Y-47020001D03*
%TD*%
D20*
%TO.C,R547*%
X130525000Y-50412500D03*
X130525000Y-48587500D03*
%TD*%
%TO.C,R525*%
X104975000Y-55912500D03*
X104975000Y-54087500D03*
%TD*%
D52*
%TO.C,F401*%
X242488559Y-60488559D03*
X245511441Y-63511441D03*
%TD*%
D32*
%TO.C,C604*%
X251520000Y-79500000D03*
X252480000Y-79500000D03*
%TD*%
D16*
%TO.C,R573*%
X220412500Y-107500000D03*
X218587500Y-107500000D03*
%TD*%
D14*
%TO.C,C407*%
X102500000Y-127049998D03*
X102500000Y-130000000D03*
%TD*%
D25*
%TO.C,D605*%
X222500000Y-51500000D03*
X224600000Y-51500000D03*
%TD*%
D20*
%TO.C,R711*%
X193000000Y-140000000D03*
X193000000Y-138175000D03*
%TD*%
%TO.C,R508*%
X101975000Y-55912500D03*
X101975000Y-54087500D03*
%TD*%
%TO.C,R545*%
X143500000Y-50412500D03*
X143500000Y-48587500D03*
%TD*%
D16*
%TO.C,R557*%
X176412500Y-45000000D03*
X174587500Y-45000000D03*
%TD*%
D17*
%TO.C,C418*%
X83980000Y-108000000D03*
X83020000Y-108000000D03*
%TD*%
D30*
%TO.C,C534*%
X207000000Y-97520000D03*
X207000000Y-98480000D03*
%TD*%
D20*
%TO.C,R713*%
X203000000Y-135412500D03*
X203000000Y-133587500D03*
%TD*%
D30*
%TO.C,C701*%
X136000000Y-117020000D03*
X136000000Y-117980000D03*
%TD*%
D33*
%TO.C,R622*%
X250587500Y-81525000D03*
X252412500Y-81525000D03*
%TD*%
D18*
%TO.C,REF\u002A\u002A*%
X110000000Y-115000000D03*
D19*
X110000000Y-115000000D03*
%TD*%
D20*
%TO.C,R572*%
X168000000Y-50412500D03*
X168000000Y-48587500D03*
%TD*%
D30*
%TO.C,C419*%
X63500000Y-129520000D03*
X63500000Y-130480000D03*
%TD*%
D17*
%TO.C,C512*%
X119505000Y-55000000D03*
X118545000Y-55000000D03*
%TD*%
D33*
%TO.C,R559*%
X195587500Y-65000000D03*
X197412500Y-65000000D03*
%TD*%
D30*
%TO.C,C529*%
X207000000Y-112020000D03*
X207000000Y-112980000D03*
%TD*%
D17*
%TO.C,C417*%
X86480000Y-112000000D03*
X85520000Y-112000000D03*
%TD*%
D26*
%TO.C,D504*%
X102550000Y-74500000D03*
X100450000Y-74500000D03*
%TD*%
D41*
%TO.C,L403*%
X93350000Y-115000000D03*
X88650000Y-115000000D03*
%TD*%
D16*
%TO.C,R623*%
X238412500Y-84500000D03*
X236587500Y-84500000D03*
%TD*%
D15*
%TO.C,R701*%
X210500000Y-126587500D03*
X210500000Y-128412500D03*
%TD*%
D53*
%TO.C,D401*%
X85500000Y-117150000D03*
X85500000Y-113850000D03*
%TD*%
D15*
%TO.C,R606*%
X223000000Y-54087500D03*
X223000000Y-55912500D03*
%TD*%
D14*
%TO.C,C431*%
X88500000Y-127024999D03*
X88500000Y-129975001D03*
%TD*%
D33*
%TO.C,R634*%
X227087500Y-63500000D03*
X228912500Y-63500000D03*
%TD*%
D30*
%TO.C,C508*%
X152500000Y-62020000D03*
X152500000Y-62980000D03*
%TD*%
D20*
%TO.C,R620*%
X242500000Y-90912500D03*
X242500000Y-89087500D03*
%TD*%
D14*
%TO.C,C404*%
X65000000Y-138024999D03*
X65000000Y-140975001D03*
%TD*%
D16*
%TO.C,R565*%
X192475000Y-57040000D03*
X190650000Y-57040000D03*
%TD*%
D26*
%TO.C,D517*%
X180550000Y-45000000D03*
X178450000Y-45000000D03*
%TD*%
D16*
%TO.C,R584*%
X220412500Y-81000000D03*
X218587500Y-81000000D03*
%TD*%
D33*
%TO.C,R616*%
X249087500Y-77500000D03*
X250912500Y-77500000D03*
%TD*%
D14*
%TO.C,C432*%
X92000000Y-127024999D03*
X92000000Y-129975001D03*
%TD*%
D16*
%TO.C,R502*%
X97475000Y-60000000D03*
X95650000Y-60000000D03*
%TD*%
D31*
%TO.C,U506*%
X171025000Y-51190000D03*
X171025000Y-52460000D03*
X171025000Y-53730000D03*
X171025000Y-55000000D03*
X171025000Y-56270000D03*
X171025000Y-57540000D03*
X171025000Y-58810000D03*
X175975000Y-58810000D03*
X175975000Y-57540000D03*
X175975000Y-56270000D03*
X175975000Y-55000000D03*
X175975000Y-53730000D03*
X175975000Y-52460000D03*
X175975000Y-51190000D03*
%TD*%
D15*
%TO.C,R702*%
X208000000Y-126587500D03*
X208000000Y-128412500D03*
%TD*%
D54*
%TO.C,J703*%
X146225000Y-119000000D03*
D55*
X148765000Y-119000000D03*
%TD*%
D17*
%TO.C,C522*%
X192955000Y-55040000D03*
X191995000Y-55040000D03*
%TD*%
D25*
%TO.C,D507*%
X149950000Y-67500000D03*
X152050000Y-67500000D03*
%TD*%
D16*
%TO.C,R566*%
X167412500Y-53000000D03*
X165587500Y-53000000D03*
%TD*%
D26*
%TO.C,D604*%
X238050000Y-93500000D03*
X235950000Y-93500000D03*
%TD*%
D33*
%TO.C,R614*%
X236087500Y-91000000D03*
X237912500Y-91000000D03*
%TD*%
D14*
%TO.C,C413*%
X88500000Y-133024999D03*
X88500000Y-135975001D03*
%TD*%
D31*
%TO.C,U507*%
X210025000Y-104055000D03*
X210025000Y-105325000D03*
X210025000Y-106595000D03*
X210025000Y-107865000D03*
X210025000Y-109135000D03*
X210025000Y-110405000D03*
X210025000Y-111675000D03*
X210025000Y-112945000D03*
X214975000Y-112945000D03*
X214975000Y-111675000D03*
X214975000Y-110405000D03*
X214975000Y-109135000D03*
X214975000Y-107865000D03*
X214975000Y-106595000D03*
X214975000Y-105325000D03*
X214975000Y-104055000D03*
%TD*%
D20*
%TO.C,R710*%
X142000000Y-119912500D03*
X142000000Y-118087500D03*
%TD*%
D16*
%TO.C,R630*%
X227412500Y-70000001D03*
X225587500Y-70000001D03*
%TD*%
D20*
%TO.C,R406*%
X86000000Y-107912500D03*
X86000000Y-106087500D03*
%TD*%
%TO.C,R511*%
X147500000Y-48912500D03*
X147500000Y-47087500D03*
%TD*%
D32*
%TO.C,C502*%
X154520000Y-55000000D03*
X155480000Y-55000000D03*
%TD*%
D54*
%TO.C,J704*%
X155880000Y-119000000D03*
D55*
X158420000Y-119000000D03*
X160959999Y-119000000D03*
X163500000Y-119000000D03*
%TD*%
D32*
%TO.C,C415*%
X93020000Y-108000000D03*
X93980000Y-108000000D03*
%TD*%
D26*
%TO.C,D510*%
X148050000Y-67500000D03*
X145950000Y-67500000D03*
%TD*%
D33*
%TO.C,R632*%
X225587500Y-67500001D03*
X227412500Y-67500001D03*
%TD*%
D37*
%TO.C,U503*%
X151475000Y-58810000D03*
X151475000Y-57540000D03*
X151475000Y-56270000D03*
X151475000Y-55000000D03*
X151475000Y-53730000D03*
X151475000Y-52460000D03*
X151475000Y-51190000D03*
X146525000Y-51190000D03*
X146525000Y-52460000D03*
X146525000Y-53730000D03*
X146525000Y-55000000D03*
X146525000Y-56270000D03*
X146525000Y-57540000D03*
X146525000Y-58810000D03*
%TD*%
D33*
%TO.C,R501*%
X109562500Y-64000000D03*
X111387500Y-64000000D03*
%TD*%
D16*
%TO.C,R575*%
X220412500Y-105000000D03*
X218587500Y-105000000D03*
%TD*%
D15*
%TO.C,R543*%
X154500000Y-59587500D03*
X154500000Y-61412500D03*
%TD*%
D16*
%TO.C,R535*%
X143000000Y-57000000D03*
X141175000Y-57000000D03*
%TD*%
D20*
%TO.C,R604*%
X246500000Y-90912500D03*
X246500000Y-89087500D03*
%TD*%
%TO.C,R410*%
X73500000Y-111912500D03*
X73500000Y-110087500D03*
%TD*%
D33*
%TO.C,R521*%
X79112500Y-73040000D03*
X80937500Y-73040000D03*
%TD*%
D16*
%TO.C,R582*%
X220412500Y-83500000D03*
X218587500Y-83500000D03*
%TD*%
D25*
%TO.C,D602*%
X245450000Y-73000000D03*
X247550000Y-73000000D03*
%TD*%
D26*
%TO.C,D508*%
X156050000Y-45000000D03*
X153950000Y-45000000D03*
%TD*%
D16*
%TO.C,R615*%
X216412500Y-54000000D03*
X214587500Y-54000000D03*
%TD*%
D33*
%TO.C,R601*%
X250587500Y-84500000D03*
X252412500Y-84500000D03*
%TD*%
D20*
%TO.C,R548*%
X119525000Y-50325000D03*
X119525000Y-48500000D03*
%TD*%
M02*
